/* XPM */
static char *kaikyaku13[] = {
/* columns rows colors chars-per-pixel */
"30 40 220 2 ",
"   c #1A1617",
".  c #1D1718",
"X  c #1C1919",
"o  c #25171A",
"O  c #24191A",
"+  c #2B191C",
"@  c #32171B",
"#  c #341A1C",
"$  c #3C191E",
"%  c #2C211F",
"&  c #2E1920",
"*  c #331A23",
"=  c #3D1B23",
"-  c #3A1A25",
";  c #3D1E30",
":  c #2C2521",
">  c #322322",
",  c #392525",
"<  c #42171C",
"1  c #41191D",
"2  c #4A1A1E",
"3  c #52191E",
"4  c #441B23",
"5  c #4D1B23",
"6  c #441C29",
"7  c #4D1D2B",
"8  c #571C25",
"9  c #521B2C",
"0  c #561C31",
"q  c #651C27",
"w  c #681A25",
"e  c #701D2E",
"r  c #422325",
"t  c #492A27",
"y  c #4B232A",
"u  c #5D242C",
"i  c #562828",
"p  c #47362D",
"a  c #56332C",
"s  c #452B32",
"d  c #562735",
"f  c #542A34",
"g  c #5B2D39",
"h  c #5C3D35",
"j  c #59363A",
"k  c #68282D",
"l  c #67352F",
"z  c #672834",
"x  c #762334",
"c  c #7B2A36",
"v  c #63343E",
"b  c #683939",
"n  c #773736",
"m  c #584837",
"M  c #67483A",
"N  c #774537",
"B  c #623740",
"V  c #653B42",
"C  c #693D43",
"Z  c #6C4246",
"A  c #6B4548",
"S  c #6B4949",
"D  c #724646",
"F  c #724D4B",
"G  c #6A5748",
"H  c #72524D",
"J  c #775C4D",
"K  c #6F5C53",
"L  c #745551",
"P  c #765A54",
"I  c #7A5B54",
"U  c #795C54",
"Y  c #716749",
"T  c #6F6C55",
"R  c #7C6A53",
"E  c #7C6459",
"W  c #862B35",
"Q  c #862D3D",
"!  c #8B3B31",
"~  c #873F3A",
"^  c #8A4637",
"/  c #924B39",
"(  c #86523D",
")  c #8A563E",
"_  c #94543D",
"`  c #9C573F",
"'  c #995C3E",
"]  c #863942",
"[  c #973B4A",
"{  c #894748",
"}  c #9B4B4E",
"|  c #835942",
" . c #8C5942",
".. c #985945",
"X. c #9D5B4A",
"o. c #9D4D51",
"O. c #895250",
"+. c #9D5953",
"@. c #A35E48",
"#. c #A85658",
"$. c #A8575A",
"%. c #886549",
"&. c #976848",
"*. c #9D6A4B",
"=. c #9B6F4E",
"-. c #8D704E",
";. c #836C54",
":. c #826C5C",
">. c #867356",
",. c #8B7553",
"<. c #8C7B56",
"1. c #85735A",
"2. c #897659",
"3. c #8D7C59",
"4. c #9D7554",
"5. c #9D7B53",
"6. c #937F5B",
"7. c #A7674A",
"8. c #A26B4D",
"9. c #A57248",
"0. c #A96C53",
"q. c #A17654",
"w. c #A57956",
"e. c #B27954",
"r. c #877665",
"t. c #8A7B67",
"y. c #B66864",
"u. c #B17163",
"i. c #8D815A",
"p. c #8C8A5E",
"a. c #93855D",
"s. c #968A5D",
"d. c #9A925F",
"f. c #A88B5B",
"g. c #B4885D",
"h. c #B2905F",
"j. c #8E8266",
"k. c #958961",
"l. c #988C65",
"z. c #9C9666",
"x. c #998475",
"c. c #958E71",
"v. c #969573",
"b. c #9C9B76",
"n. c #A38764",
"m. c #BB8960",
"M. c #A3966B",
"N. c #A39969",
"B. c #B69865",
"V. c #AA8F71",
"C. c #AB9E70",
"Z. c #A4947B",
"A. c #A3A36C",
"S. c #B7A26E",
"D. c #AAA173",
"F. c #A6AA76",
"G. c #B8A976",
"H. c #ACB177",
"J. c #B2B57B",
"K. c #C1996B",
"L. c #C19871",
"P. c #C8A576",
"I. c #C4B07B",
"U. c #B8C87D",
"Y. c #AA9C81",
"T. c #A9AB85",
"R. c #B5AB88",
"E. c #A7B383",
"W. c #BBB385",
"Q. c #B8B587",
"!. c #BEB695",
"~. c #CAB484",
"^. c #C2B894",
"/. c #C6BBA6",
"(. c #C7BFB1",
"). c #ADC087",
"_. c #B7C688",
"`. c #BFD285",
"'. c #BBD292",
"]. c #C1CB86",
"[. c #C2D489",
"{. c #C2D688",
"}. c #C4C395",
"|. c #C5CE94",
" X c #D5C798",
".X c #CADE93",
"XX c #C8D69A",
"oX c #D2DC9B",
"OX c #CCE48D",
"+X c #CEE591",
"@X c #CEE39A",
"#X c #D3E693",
"$X c #DBE695",
"%X c #D3E897",
"&X c #D3E39D",
"*X c #CAC7A8",
"=X c #D5CEA7",
"-X c #D9D7A9",
";X c #CBCEB3",
":X c #D9D5B6",
">X c #D6E3A2",
",X c #DAE5A5",
"<X c #DCE5AA",
"1X c #DEE6B1",
"2X c #DDE1BD",
"3X c #E1E6AE",
"4X c #E1E8AA",
"5X c #E3E6B3",
"6X c #E4E6BA",
"7X c #E6E8B8",
"8X c #E0DBCB",
"9X c #E2DED4",
"0X c #DEE0D4",
"qX c #E5E6C4",
"wX c #E5E6CD",
"eX c #E5E6D3",
"rX c #E5E5DB",
"tX c #E7E8DF",
"yX c #E6E6E5",
"uX c #E8E8E5",
/* pixels */
"$X#X#X#XOXOXOXOX+X#X#X&X,X,X4X4X5X6XqXqXwXwXtXtXuXyXyXyXyXyX",
"$X$X#X#XOXOXOXOX#X#X%X&X&X,X4X4X7X6X6XqXwXwXeXtXyXuXyXyXyXyX",
"$X#X#X+X+X+X+X+X#X%X%X$X4X4X4X4X7X7X6XqXqXwXeXtXtXyXyXyXyXuX",
"h.h.B.h.B.B.S.B.S.B.G.G.I.I.~. X X X X=X-X:X:X:X8X8X9X9XyX9X",
"_ .._ _ / / / ^ ! ! ! ! k i l n / ` @.7.0.e.e.e.g.g.m.K.L.L.",
"C.C.C.C.A.A.N.M.M.n.4.a + o + $ y k  .q.w.9.9.*.7.*.8.8.8.9.",
"....&.=.=.*.8.q.w.n.G + o + + + * * j R.^.^.}.*X=X*X*X*X/.^.",
"5.4.=.&..._ _ ^ ! l # + o O O # # * * h 7.e.u.m.K.K.P.P.~.~.",
"n.n.l.n.M.G.Q.T.z.p + + O O + + + O + + | w.*.&.&.' ......' ",
"~ ~ o.n.^.XX|.Q.l.> o o O O O O O . O . K ^.^.!.!.W.R.T.T.Y.",
"D.W.}._.J.H.F.F.r.* o X X O O + X X X   p @.+.@.X.+.0.u./.rX",
"6.k.N.A.A.A.F.c.P y o X X X O X X X     G C.q.4.*... .^ V.rX",
"d.6.z.N.A.A.A.1.j 5 5 # + O o   X X X . T '.XXQ.~.W.W.R.J.;X",
"Q.a.s.N.A.F.b.E g 4 w w 3 2 $ O X X . > v.'.'.=./ / ` 7.w.J.",
"Q.s.s.z.N.v.j.P g = = q w w 3 @ X o # j E.).'.F.%.( { N  .d.",
"<.<.s.k.z.j.P Z g = r 5 2 3 2 @ O $ $ G T.E.)._.H.Q.;XZ.<.d.",
",.a.a.k.j.E H B 7 M s.b 1 1 5 1 + # y E c.Z.E.).XXeXuX2X`.d.",
"-.3.a.a.E L P U S 3.H.T $ 4 4 y t = V r.v.v.b.E.;XyXyX1X'.s.",
"-.6.k.a.E H :.r.P P j.P * # 7 i 4 g H j.c.c.v.T.0XyXwX<X[.i.",
"-.<.a.a.;.J U P P S A g ; + = = y A E r.r.t.j.*XuXtXqX<XXX<.",
"-.2.6.3.3.:.F b L L L C f & + = d C Z D I :.x.0XyXrX7X<XoXa.",
",.,.3.2.>.>.G d V L P L z = . = d v C L I :.(.uXyXwX3X<XoXM.",
",.>.2.,.:.J s * 6 y Z O.{ x # + f Z F H H x.rXyXrXqX3X,X,XD.",
",.,.>.1.U s * * & = z [ o.[ k * g v V V F (.uXyXrX6X3X,X<XW.",
"<.;.;.J t & * 6 = e x [ } [ x 9 V v v v x.rXyXrXwX5X1X>X,X}.",
"<.%.G , O & 7 9 5 ] [ [ $.Q e 8 v v g Z *XyXyXrXqX5X<X<X<XXX",
",.m > o = 7 6 = z } u.#.y.o.u 7 d v v H |.1XqXwX6X5X4X,X,X-X",
",.: . - 0 0 9 9 n #.y.y.$.+.I L L j g b Q.&X<X6X6X5X<X,X,X,X",
"p., . 6 0 9 9 u ^ o.} #.o.] S E r.P V j i.@X&X1X5X7X<X,X1X<X",
"s.p . $ 4 4 4 9 c W W W W x n { I U S 6 G ].&X<X5X5X1X<X1X<X",
"s.M + 1 u 2 < @ 4 5 5 8 q k c c b v f + p J..X,X5X5X5X1X1X5X",
"s.%.a # l k 2 + . . . o o + $ = = * O o , A.[.&X3X5X5X5X5X5X",
"i.%.l + 3 2 < + X X X X X X X X X O + + + s.{.OX,X5X5X5X1X5X",
",.m k $ + @ $ # X X X X X X X X X O @ + O Y `.`.&X<X5X5X1X<X",
"m : l n a t 2 # X X X X X X X X X X O + X m U.OX@X,X3X5X1X-X",
"# X t ( ( ^ N l X X X X   X X X X X X   X p H.U..X>X5X5X1X6X",
"i o : )  .) ( N X X X X X X X   X X O O X , A.[.`.&X1X7X7XwX",
"N t O M &.&.9.Y % X X X X X X X X X % # + , d.U.`.@X<X6X7XeX",
"( N % t -.9.i.&.: X X X X X X X X X % # # $ R U.`.+X<X6X7XeX",
") &.a % %.f.f.-.% X X X X X X X X O > 2 # # Y U.U.`.&X1X6XtX"
};
