/* XPM */
static char *kaikyaku06[] = {
/* columns rows colors chars-per-pixel */
"30 40 215 2 ",
"   c #1A1617",
".  c #1C1718",
"X  c #1D1919",
"o  c #231619",
"O  c #23191A",
"+  c #2C191C",
"@  c #39171D",
"#  c #33191D",
"$  c #3A191D",
"%  c #2E1A22",
"&  c #341922",
"*  c #3C1A23",
"=  c #3C1A2C",
"-  c #3E1C30",
";  c #372225",
":  c #342C26",
">  c #41191D",
",  c #4C1A1E",
"<  c #50191E",
"1  c #451A24",
"2  c #4A1B25",
"3  c #441A2C",
"4  c #4C1B2A",
"5  c #521B24",
"6  c #5B1A24",
"7  c #531C2B",
"8  c #5B1D2C",
"9  c #441B31",
"0  c #551C31",
"q  c #5B1E31",
"w  c #631D2A",
"e  c #651C28",
"r  c #6A1E31",
"t  c #771D30",
"y  c #482428",
"u  c #55212B",
"i  c #5A242C",
"p  c #42352C",
"a  c #5F332E",
"s  c #4A2637",
"d  c #552332",
"f  c #5D2433",
"g  c #572C36",
"h  c #4D3D35",
"j  c #593934",
"k  c #63232C",
"l  c #6B222C",
"z  c #65342F",
"x  c #632532",
"c  c #6A2B34",
"v  c #742333",
"b  c #7C2938",
"n  c #6C3735",
"m  c #683836",
"M  c #6E3B35",
"N  c #6A333D",
"B  c #713D36",
"V  c #7A3438",
"C  c #554939",
"Z  c #564F3A",
"A  c #65473C",
"S  c #76473A",
"D  c #794339",
"F  c #4C3043",
"G  c #6C3A41",
"H  c #743D43",
"J  c #4F4153",
"K  c #574856",
"L  c #674647",
"P  c #764848",
"I  c #695848",
"U  c #7F5643",
"Y  c #795848",
"T  c #624F59",
"R  c #6A5357",
"E  c #795B55",
"W  c #73694D",
"Q  c #7A6259",
"!  c #655961",
"~  c #6C676C",
"^  c #6C7476",
"/  c #832C3D",
"(  c #8C2E3E",
")  c #884C3C",
"_  c #904D3A",
"`  c #88533E",
"'  c #8F2A41",
"]  c #863B44",
"[  c #963748",
"{  c #854848",
"}  c #97484E",
"|  c #865743",
" . c #825B44",
".. c #9A5847",
"X. c #885350",
"o. c #975956",
"O. c #A55657",
"+. c #8B674A",
"@. c #9A654C",
"#. c #866A58",
"$. c #94655B",
"%. c #8D7157",
"&. c #A36344",
"*. c #A86B48",
"=. c #A6734D",
"-. c #AC724C",
";. c #A46955",
":. c #B0605B",
">. c #A47C52",
",. c #A77958",
"<. c #8C6464",
"1. c #887563",
"2. c #977665",
"3. c #AC6C61",
"4. c #B66A62",
"5. c #B37767",
"6. c #70807D",
"7. c #8B8A5F",
"8. c #9B8559",
"9. c #9A865A",
"0. c #AA8355",
"q. c #AF8856",
"w. c #AC8459",
"e. c #AD8A5C",
"r. c #B18756",
"t. c #BB935C",
"y. c #B8955D",
"u. c #8D8468",
"i. c #978568",
"p. c #909361",
"a. c #978C71",
"s. c #9A9C76",
"d. c #A98968",
"f. c #B3876A",
"g. c #A99766",
"h. c #B7936A",
"j. c #B29D6E",
"k. c #AC9C74",
"l. c #B69B79",
"z. c #A8A46A",
"x. c #ACAA6D",
"c. c #B7AA6A",
"v. c #A4A77A",
"b. c #B7A776",
"n. c #ADB373",
"m. c #B3B371",
"M. c #B8B97B",
"N. c #CB9477",
"B. c #CD9B7B",
"V. c #D39F7F",
"C. c #C0A968",
"Z. c #C0AA7B",
"A. c #D2AB7F",
"S. c #C5B577",
"D. c #BBC37B",
"F. c #CCC378",
"G. c #789085",
"H. c #AFA983",
"J. c #AAB687",
"K. c #B8BA87",
"L. c #B7AC9A",
"P. c #C99E8A",
"I. c #CAAB84",
"U. c #D6AD86",
"Y. c #C1BA84",
"T. c #D9B988",
"R. c #C6B8A7",
"E. c #AEC18A",
"W. c #B6C688",
"Q. c #B7C994",
"!. c #BAD495",
"~. c #BBD59A",
"^. c #C3C58A",
"/. c #D4C38E",
"(. c #C9D689",
"). c #CACB9A",
"_. c #D7CB93",
"`. c #C9D497",
"'. c #D9D699",
"]. c #E1C08E",
"[. c #CEE28D",
"{. c #D0E38F",
"}. c #D3E494",
"|. c #D6E49B",
" X c #D9E49C",
".X c #CBC6A3",
"XX c #D2CBA9",
"oX c #C6DAA4",
"OX c #D8D6A8",
"+X c #D1C7B5",
"@X c #CCD2B4",
"#X c #D7D9B8",
"$X c #E2DBAA",
"%X c #CCE4AD",
"&X c #D6E4A8",
"*X c #DFE5AB",
"=X c #CEE3B2",
"-X c #D3E4B8",
";X c #E4E5A4",
":X c #E6E8A7",
">X c #E3E6AC",
",X c #E3E6B3",
"<X c #E5E6BD",
"1X c #E4DEC4",
"2X c #DDE4C3",
"3X c #DBE5C8",
"4X c #E5E6C4",
"5X c #E5E6CA",
"6X c #E4E6D2",
"7X c #E6E8D3",
"8X c #E5E5DC",
"9X c #E7E8DA",
"0X c #E8E9DF",
"qX c #E6E6E4",
"wX c #E7E8E7",
/* pixels */
">X>X>X;X;X;X;X;X'.A v ' [ O.} o.P d L.qXwXqXqXqXqXqXqXqXqXqX",
">X>X>X>X;X;X;X;X;XI x / / w 8 N o.H R.0X8XwXqXqXqXqXqXqXqXqX",
">X>X>X:X;X;X;X;X:Xi.2 5 1 2 8 V 5.X.R.8X8XwXwXwXqXqXqXqXqXqX",
"_._._._.'.'.'.'.'.K.j 8 6 b ' v O.X.L.5X6X9XqXwXqXqXqXqXqXqX",
"-.-.*.-.*.-.-.-.-.*.M x e r v 6 V $.@X%X=X-X-X3X6X_._._.OX'.",
"j.j.j.h.y.g.g.e.0.>.+.k e , e e c <.#X~.~.Q.!.oX5XXXt.t.y.y.",
"h.l.b.Z.Z.Z.Y.Y.Y.^.^.i.i 5 e ] o.H.<XOX~.H.H.E.oX2X#XXXXXXX",
"-.-.-.*.*.&.&.&.&.&.;.2.L 7 x { d./.$XOXK.u.^ s.W.=X6X<XOX#X",
"K.S.b.b.m.b.j.z.j.j.d.1.E L N { f.A.T.I.d.L s L J.=X-X4Xh.r.",
"......;.;.;.h.).OXH.1.P N i x { ;.B.U.].U.P 3 3 K J.=X2XR.l.",
"k.g.e.0.=.d.b.k.1.P G 0 1 $ * u 5.N.V.V.3.g 9 3 3 R Q.#X1X6X",
";.,.d.d.b.K.#.P N f 4 $ # & * N 3.4.4.X.= & 9 3 = 9 E v.Q.oX",
") _ _ _ q.z.S f 7 * $ + + & F 2.O.O.{ 1 o + & * = = W oXoX`.",
"v.m.m.m.F.9.n 8 4 7 4 1 1 y 1.2.] b & O $ * 1 2 # h E.%XoXoX",
"4X&X X XW.9.M z u 2 7 7 d 1.u.P 8 2 + 1 6 w b 6 C J.`.~.W.W.",
").^. X XD.%.n k m a @ y 1.a.#.G 4 # 1 / v v v $.).#X%X=X@Xa.",
"x.D.}.'.n.+.M k B Q j 1.a.Q P f * * 7 [ [ [ @.Q.H.i..X8XqXL.",
"c.D.}.[.g. .M w c #.1.1.E P c 7 1 2 $ t ( } H.!.W.s.+XqXqX@X",
"z.^.>X`.g.S m w x #.E P G G q 4 1 7 * r ( { k.K.J.oXqXqX8X<X",
"n.OX8X`.9. .S k k U P N r 0 2 1 1 q 1 6 ( [ P.U.b.1XqXqX6X4X",
"n.#X9X).8.S S k 6 M n 8 7 * * 2 2 8 4 * u o.].].XXqXqXqX6X<X",
"m.#X9XY.9.U M x 7 5 6 5 * = 2 4 1 7 q 4 1 O.N.P.1XqXqXwX5X<X",
"M.2X6XY.9.U M k 1 # 1 s F 3 2 4 1 4 8 4 ] 4.:.I.8XwXqX6X4X<X",
"K.5X9X^.9.U M u # + s ! R 0 5 7 1 1 7 7 n } ;.+XqXqXqX6X4X<X",
"M.OXOXM.8. .z > # ; ! ~ L 4 7 7 1 * y d 2 { I.8XqXqXqX5X4X<X",
"x.g.g.8.8.U y # * T ^ ~ g 3 4 7 2 * # # & j +XqXqXqX8X5X4X<X",
"z.I C A | h O O F 6.G.! 0 1 2 4 1 * & + o L 5XqXqXqX6X5X<X<X",
"z.: O O o O . % J ^ G.T 3 1 1 1 1 * # + O I #X4X8XqX6X5X4X<X",
"x.h O O o O + $ F K T F 4 3 3 2 * & # + o C `.>X<X7X5X5X4X4X",
"x.Z O O O O $ < 3 9 - 4 7 2 * * * # + O . : M.,X,X5X5X5X4X4X",
"n.Y > , $ # # 6 6 $ + 4 8 0 4 * # % # O X O 7. X,X4X5X5X4X4X",
"n.8.z B z < # k 6 > + O % & 3 3 & & + O     W '.:X<X5X5X5X4X",
"n.p.D D D k @ , , > $ X O O O & & & O O X   Z (.|.,X4X5X5X5X",
"x.8.D n l 6 , # < , y O O O % = = & X X X   : W.|.*X<X5X5X5X",
"z.Y ) _ ` ` S D D S W O O O % = ; % X X O O : n.}.|.,X4X5X5X",
"A # ` r.y.0.=.>.0.>.I # O X O % O O X X % O O p.}.|.>X4X5X5X",
"z O z q.y.q.0.0.q.0.` y O O O O X X X X O X O W {.}.*X<X4X5X",
"` ; > q.t.q.q.q.w.r.=.B + O O O X X X X O X . Z (.}.&X,X5X5X",
"0.S # ` C.C.C.C.c.r.0.| y + + O X X X X O X   C (.[.}.,X5X5X",
"r.>.y A c.F.F.F.S.y.e.@.y O + O X X X O O O O p D.[.{.*X4X5X"
};
