/* XPM */
static char *kaikyaku20[] = {
/* columns rows colors chars-per-pixel */
"30 40 218 2 ",
"   c #181717",
".  c #1C1919",
"X  c #241718",
"o  c #22191A",
"O  c #2B1A1C",
"+  c #33191C",
"@  c #3C191D",
"#  c #241B24",
"$  c #2D1A22",
"%  c #341A23",
"&  c #3C1B23",
"*  c #351A29",
"=  c #342323",
"-  c #3C2423",
";  c #44191D",
":  c #49191E",
">  c #53191F",
",  c #4A1624",
"<  c #431B24",
"1  c #4C1A23",
"2  c #451B2A",
"3  c #4B1C2B",
"4  c #531B23",
"5  c #5C1C25",
"6  c #521C2C",
"7  c #5C1B2B",
"8  c #4F1C31",
"9  c #511F33",
"0  c #621B26",
"q  c #641C29",
"w  c #6C1C2C",
"e  c #6C1F32",
"r  c #771C30",
"t  c #482528",
"y  c #5C2527",
"u  c #54242C",
"i  c #59262B",
"p  c #53292B",
"a  c #4F342E",
"s  c #4C2633",
"d  c #5A2433",
"f  c #572933",
"g  c #5C2D3C",
"h  c #4D3534",
"j  c #553738",
"k  c #5E333C",
"l  c #6A272D",
"z  c #6A2A2B",
"x  c #78312E",
"c  c #682733",
"v  c #722834",
"b  c #673936",
"n  c #62343D",
"m  c #7D3631",
"M  c #763C38",
"N  c #4F4436",
"B  c #5E433D",
"V  c #574838",
"C  c #67423A",
"Z  c #79473A",
"A  c #6F533F",
"S  c #4F374A",
"D  c #493853",
"F  c #623641",
"G  c #663E45",
"H  c #763740",
"J  c #57434A",
"K  c #664744",
"L  c #694245",
"P  c #6B4549",
"I  c #6D4B4C",
"U  c #784943",
"Y  c #6D524D",
"T  c #675848",
"R  c #7A5242",
"E  c #7B5E4C",
"W  c #675454",
"Q  c #725452",
"!  c #765B55",
"~  c #785E56",
"^  c #7E634A",
"/  c #7C6352",
"(  c #7F6D50",
")  c #7B645B",
"_  c #645F67",
"`  c #61626A",
"'  c #831E36",
"]  c #852339",
"[  c #87253A",
"{  c #863637",
"}  c #8B3630",
"|  c #833B35",
" . c #8B3B34",
".. c #834239",
"X. c #844739",
"o. c #8B453A",
"O. c #8A4C3B",
"+. c #954634",
"@. c #964A38",
"#. c #8F503B",
"$. c #91583E",
"%. c #8D2C41",
"&. c #874F40",
"*. c #8A4A48",
"=. c #924946",
"-. c #895543",
";. c #855B46",
":. c #8C5D44",
">. c #8A5E4A",
",. c #945942",
"<. c #9D5A56",
"1. c #A35C57",
"2. c #8B644C",
"3. c #8B664D",
"4. c #846C4C",
"5. c #926345",
"6. c #97674C",
"7. c #826750",
"8. c #826B54",
"9. c #8F6C52",
"0. c #816B5C",
"q. c #877052",
"w. c #8A7554",
"e. c #8B7954",
"r. c #867259",
"t. c #8A7659",
"y. c #8E7D5A",
"u. c #927557",
"i. c #907C5B",
"p. c #A66C5A",
"a. c #857363",
"s. c #897764",
"d. c #897B64",
"f. c #8A7D69",
"g. c #957C66",
"h. c #B17064",
"j. c #8F8156",
"k. c #93845C",
"l. c #97895E",
"z. c #8D846C",
"x. c #938463",
"c. c #968C62",
"v. c #978965",
"b. c #9A8D62",
"n. c #92856E",
"m. c #9D9564",
"M. c #9C9568",
"N. c #9E9A69",
"B. c #948871",
"V. c #999775",
"C. c #A2976D",
"Z. c #A19D6A",
"A. c #AE9475",
"S. c #A69878",
"D. c #B2947B",
"F. c #9FA06E",
"G. c #9DA176",
"H. c #A4A36C",
"J. c #A6A96F",
"K. c #A3A972",
"L. c #A8A875",
"P. c #B2A67C",
"I. c #ACB274",
"U. c #ABB27A",
"Y. c #AEBA7B",
"T. c #B1B57B",
"R. c #B2BC7C",
"E. c #C38E73",
"W. c #CC9779",
"Q. c #B4C37E",
"!. c #B49B80",
"~. c #AAA884",
"^. c #B8A886",
"/. c #ACBA82",
"(. c #B3B283",
"). c #BABB85",
"_. c #B6A994",
"`. c #B9B692",
"'. c #CAAF8C",
"]. c #C2B9A3",
"[. c #AFC38B",
"{. c #B3C381",
"}. c #B8C787",
"|. c #B9CB84",
" X c #BBD387",
".X c #BED48B",
"XX c #C2D68E",
"oX c #C6CC9C",
"OX c #C6DA91",
"+X c #C9DC94",
"@X c #C7D298",
"#X c #CDDE9B",
"$X c #C6E394",
"%X c #CBE496",
"&X c #CFE29E",
"*X c #D1E19F",
"=X c #CCD3A4",
"-X c #D6D7AA",
";X c #D9DAB4",
":X c #DBDBBF",
">X c #D4E2A2",
",X c #D8E3A7",
"<X c #DBE5AC",
"1X c #DDE5B1",
"2X c #DEE3BB",
"3X c #E0E6AF",
"4X c #E1E5B5",
"5X c #E2E6BB",
"6X c #E5E8B8",
"7X c #D3CFCA",
"8X c #DCDBC4",
"9X c #E4E6C4",
"0X c #E4E6CB",
"qX c #E5E6D4",
"wX c #E6E6DC",
"eX c #E7E8DB",
"rX c #E6E6E5",
"tX c #E8E8E3",
/* pixels */
"#.#.O.O.o.o...| { { z * * $ * $ * * 9 {  .+.@. . .+.@.@.+.@.",
"C.b.l.v.C.C.S.C.x.t.a & + % & & $ $ * 8.x.u.u.9.6.6.>.>.,.-.",
"| O.g.(.@X@X).C.O.&.u 0 q w w 0 @ X X ! A.D.D.^.^.^._.`.`.'.",
"A.'.'.R.L.H.H.u.z 0 5 ] ' ' ' r : X   t }  .{ x } { {  .*.=.",
"b.m.m.m.Z.N.Z.b.i.8.c ] [ %.[ ] 4 .   a 2.>.-.O.-.&.O...| m ",
"4.j.b.m.C.Z.Z.9.M M t : 5 7 q w ; o X K A.A.P.P.^.(.(.(.~.P.",
"w.k.b.m.m.F.H.2.z M k , @ @ : 4 4 + ; i {  . .{  .o.@.,.6.p.",
"e.k.l.b.m.N.N.k.c.z.n 4 l w 5 r w ; d ( ;.X.Z m x x x x | m ",
"e.j.l.l.m.M.Z.K.B.! k : 5 0 4 w 0 & j V./.c.e.w.4.4.^ ^ R A ",
"e.j.k.l.c.M.N.V.a.L s @ : > : 5 1 h I V.[.}.XX=XoX|.{.Y.K.c.",
"e.k.k.l.k.b.M.d.! n 2 & 7 0 q ; t I W z.~.[.=XqXqX>X%X%XOX X",
"e.j.k.j.k.l.z.) F d 3 & 3 4 7 , Y / I d.V.V.oXwXwX1X$X$X.X|.",
"e.k.k.y.y.k.d.) g 8 3 < % , 4 f B L Y ) ) f.=XrXtX2X$X$X|.{.",
"w.k.y.y.t.t.a.) F 3 2 < @ 2 v d 3 F P I ) V.:XrXtX2X$X X{.{.",
"q.y.y.t.r.r.a.a.G 8 2 < & < M d 8 f k G 0.B.:XrXrX9X+X{.U.Y.",
"q.w.e.8.0.0.0.) P s g @ & & n 6 8 8 d F I f.8XrXrX9X&XQ.G.G.",
"q.q.r.8./ ~ Q P F & t % % & < 2 2 2 & * F a.8XrXrXqX,XI.Z.Z.",
"w.7.8.^ ^ ~ Q L g & # o + + % & & 7 % * F f.qXrXrX0X<XL.N.V.",
"w.^ 7.^ / f.a.I F * o . o O O O n %.+ & Q !.eXrXrXqX4XT.c.v.",
"y.R E K W z.a.Q j . . . o X O i h.h.c t Q ~.tXrXrXwX4X(.d.s.",
"k.Z C = T B.f.) s . . o O + + *.W.E.<.c P _.tXrXrXeX6X`.W J ",
"c.h $ . T n.a.S $ $ o O O + 3 p.W.'.1.e F _.tXrXrXtX5XoX` D ",
"l.N   o L a.Y $ o * O X O @ s <.E.W. .4 F ].rXrXrXrX9X=X_ D ",
"m.T . . J a.h . O O o . O % 3 =.h.p.v 4 G ].rXrXrXwX9X=XJ D ",
"l.4.= . C ! = o o o . . o & 3 H *.%.5 O ! 8XrXrXrXwX9X-XJ s ",
"k.w.f - b n o o o o . . o o O 1 q { i % a.0XrXrXrXwX0X-XJ j ",
"y.q.R z v - o X o o . . o $ o O 2 v 6 & f.qXrXrXrXwX9X;XL 6 ",
"w.7.b u y O o o o X . . O $ $ o + 1 3 3 n.2XqXeXrXwX9X;XU 2 ",
"4.V O z u . o X o o . . o O O . . + & t 8.).-X1X5X9X9X4XY , ",
"R -   a z . o o . . . . . X o . . o O 2 P T.OXOX*X1X5X6X0.; ",
"Z b . - p X . . . . . . . o . . . . % 9 g k.XXOXOX-X4X6XS.j ",
"{ Z - o O . . . . . . . . . . . . $ s 8 3 C A.OX+X$X,X4X8X7X",
"o.O.C + . . . . . .   . . .   . . - t @ @ p k.I.XX#X,X<X0XrX",
":.:.5.C o . . . . . . . . . . . o t + + + t u.J.).XX*X4X5XtX",
"C O.5.;.= . . . . . . . . . .   o @ + + + & ;.H.T.|.OX,X4XeX",
"u Z ;.A = . . . . . . . . . . . o X X @ ; ; Z Z.I.T..X*X<XqX",
"Z $.:.C . . . . . . .   . . . . . . X ; ; y A j.I.I.Q.OX,X9X",
"$.:.2.N o . . .   . . . . . . . . . O ; > z a ^ J.I.I.XX>X5X",
"$.5.5.t o . . . . . . . . . . . . . + ; > 1 . V Z.I.I.Q.%X4X",
"$.5.:.p O # . o . . .   . . .   . o + ; ; O # A C.H.I.Q.OX,X"
};
