/* XPM */
static char *kaikyaku26[] = {
/* columns rows colors chars-per-pixel */
"30 40 216 2 ",
"   c #24171A",
".  c #29171B",
"X  c #25191B",
"o  c #2A191D",
"O  c #33191E",
"+  c #3B191D",
"@  c #2E1721",
"#  c #2D1921",
"$  c #331A24",
"%  c #3B1B23",
"&  c #361728",
"*  c #361929",
"=  c #3C1A2C",
"-  c #3E1A30",
";  c #392226",
":  c #39242A",
">  c #36353B",
",  c #43191F",
"<  c #431B22",
"1  c #4C1C25",
"2  c #431C2C",
"3  c #4C1C2C",
"4  c #551C24",
"5  c #541D2B",
"6  c #5C1C28",
"7  c #431B34",
"8  c #4B1D37",
"9  c #611D29",
"0  c #432326",
"q  c #44252A",
"w  c #4A232C",
"e  c #482D2A",
"r  c #54242A",
"t  c #55322D",
"y  c #432033",
"u  c #4B2533",
"i  c #412B34",
"p  c #4A2936",
"a  c #4E2339",
"s  c #542A32",
"d  c #592C35",
"f  c #483438",
"g  c #5C3B33",
"h  c #563438",
"j  c #64222B",
"k  c #61292F",
"l  c #692D33",
"z  c #683739",
"x  c #763638",
"c  c #564737",
"v  c #5E563F",
"b  c #634739",
"n  c #78463A",
"m  c #73563E",
"M  c #3E3447",
"N  c #4B3D4C",
"B  c #573A48",
"V  c #713D43",
"C  c #594848",
"Z  c #514B50",
"A  c #59565C",
"S  c #654244",
"D  c #684A47",
"F  c #744B4B",
"G  c #65534B",
"H  c #765648",
"J  c #7E524B",
"K  c #725852",
"L  c #666149",
"P  c #786456",
"I  c #7F7458",
"U  c #475660",
"Y  c #5E5C65",
"T  c #6F746F",
"R  c #787970",
"E  c #864739",
"W  c #904939",
"Q  c #8A563E",
"!  c #9D5E3F",
"~  c #853C43",
"^  c #86484A",
"/  c #875649",
"(  c #94524F",
")  c #965654",
"_  c #896A4A",
"`  c #976848",
"'  c #98744E",
"]  c #876C57",
"[  c #956756",
"{  c #887859",
"}  c #997B56",
"|  c #A46443",
" . c #A76C45",
".. c #AC774C",
"X. c #B17F4D",
"o. c #A56958",
"O. c #A87457",
"+. c #B57E5A",
"@. c #8A7963",
"#. c #A57763",
"$. c #B57868",
"%. c #C47B6F",
"&. c #998658",
"*. c #9B945E",
"=. c #B6844E",
"-. c #A58A59",
";. c #B48655",
":. c #A7945E",
">. c #AB945E",
",. c #B6945C",
"<. c #988969",
"1. c #999367",
"2. c #9F9C6B",
"3. c #989777",
"4. c #AC8366",
"5. c #B78A66",
"6. c #A49966",
"7. c #AB9B63",
"8. c #B49C66",
"9. c #BD936B",
"0. c #A18E73",
"q. c #B58B74",
"w. c #A79375",
"e. c #B89675",
"r. c #A9A56B",
"t. c #BAA669",
"y. c #B4AE6B",
"u. c #AFB36F",
"i. c #B8B16D",
"p. c #AAA477",
"a. c #B9A977",
"s. c #B3A37C",
"d. c #ADB475",
"f. c #A8B57E",
"g. c #B6B776",
"h. c #B4BA74",
"j. c #B2BC7A",
"k. c #C58C6F",
"l. c #C19B77",
"z. c #C3A86D",
"x. c #D0A77B",
"c. c #C8B679",
"v. c #D4B779",
"b. c #B6C076",
"n. c #B5C57D",
"m. c #BCC47E",
"M. c #B7C97D",
"N. c #B9CB7D",
"B. c #BED37F",
"V. c #C0D27D",
"C. c #78978B",
"Z. c #BF9981",
"A. c #97AF8C",
"S. c #A9AC88",
"D. c #B7AB87",
"F. c #AAB483",
"G. c #BCB481",
"H. c #BBB787",
"J. c #BDB591",
"K. c #BEBAA2",
"L. c #D19881",
"P. c #C8AB82",
"I. c #D3AE8E",
"U. c #C4BD8A",
"Y. c #C9B988",
"T. c #D6B386",
"R. c #D3BA86",
"E. c #CABB96",
"W. c #CBBCA2",
"Q. c #BBC385",
"!. c #BBCE80",
"~. c #BED482",
"^. c #A9C394",
"/. c #B4C892",
"(. c #BDD3A6",
"). c #BCE1A8",
"_. c #C2CB89",
"`. c #DAC588",
"'. c #C2D582",
"]. c #C4DB84",
"[. c #CADE84",
"{. c #C5DA8A",
"}. c #CADC8A",
"|. c #DED58C",
" X c #C5C795",
".X c #DAC797",
"XX c #CDD49B",
"oX c #CAD998",
"OX c #D4DB98",
"+X c #E0C799",
"@X c #E1D99C",
"#X c #CCE186",
"$X c #CDE389",
"%X c #D2E486",
"&X c #D4E48C",
"*X c #D8E58E",
"=X c #D7E397",
"-X c #DAE592",
";X c #D0CBA7",
":X c #CBD6A7",
">X c #D7D7A3",
",X c #CDD5B3",
"<X c #D5D9B8",
"1X c #D7E3A7",
"2X c #DCE4AC",
"3X c #DBE3B3",
"4X c #D5E6B8",
"5X c #E3E6A5",
"6X c #E4E6BA",
"7X c #DADDC5",
"8X c #DEE7C4",
"9X c #E4E7C7",
"0X c #E4E6CB",
"qX c #E4E6D3",
"wX c #E5E6DC",
"eX c #E6E6E5",
/* pixels */
">X:XXXXXXXoXXXOX>XoXXXXX XG.g.U.a.s.p.8.6.8.t.c.c.t.,.,.,.,.",
"+.+.;.5.5.k.9.9.9.9.e.e.U. X>X2X;XE.W.K.W.oX/.XX1X3X,X7X<X<X",
"t.z.8.,.,.,.;.;.X. .| | 7.H.oX=X..W h u K !._.m.XXY.R.`..X>X",
"E.E.`.E.U.U.Q. X XJ.G.a.r.7.'.H.[ z B a F m.m.2.>...X.=.=.=.",
".. .| | O.q.W.7X7X:Xg.$.4.P G G K l ^ ) ( C C G S.J.D.S.D.p.",
".XU.g.Y.;X3X1XoX~.!.&.W E Z U Y < ~ %.k.~ N U R q.e.Z.L.I.W.",
"o.O.5.!.N.].].B.!.j.a.a.H i > i % l ( / y M N G / | | ! `  .",
"n ` -.N.M.~.~.!.M.g.' ( t $ o ; w 1 r 2 # $ = - @.J.J.J.D.e.",
"_ r.:X7XoXV.~.N.M.d.` E r $ * 7 1 6 x k # * - - [ 9.l.x.Y.E.",
"K.7XwX8XoX~.~.~.M.M.h.*.g @ = p r 1 r < X $ - 8 / ` ` |  .O.",
"eX0X1X[.B.B.!.M.Q.{.=Xj.b @ * i D 5 6 4 $ $ = h w.6.*.*.&.&.",
"5X=X%X[.'.~.!.Q.n.}.OX&.0 X o * B z 5 5 * $ & C ,X:X,X;X/.Q.",
"-X&X%XV.#X].!.n.n.~.Q.H % X o * D ] z r * * * C ,X0XeXeXeX9X",
"-X&X%XV.].'.M.n.F.j.1.z % X # # P S.S.V # $ * f (.9XwXeXeX9X",
"-X&X%X%X].~.M.j.r.] b d o o ; O K S.0.d o o $ i J.4XwXeXeX0X",
"*X&X%XV.'.B.n.d.{ ] @.H K w.e.F G <.P u O q @ ; A.4XqXeXeXwX",
"*X&X%X[.~.M.j.6.J @.<.w.T.+XR.) f I V u d q.@.P S.6XqXeXeXeX",
"*X*X%X#X~.n.d.1.n S S J ) q.L./ : G y * l $.I.@XOX2X0XeXeXeX",
"*X*X&X#XB.j.u.{ w ; d z j l [ t ; f X o ( k.I.I.G./.4XeXeXeX",
"*X*X%X#Xn.d.6.v +   g D q = * $ $ e ; o d ^ o.#.1.F.1XeXeXeX",
"-X*X*X[.h.2.c + q Z A f = = * o z L.( & * & B [ @.@./.eXeXeX",
"-X-X*X}.1.c X : Y C.A = = = $ X z $.V = - 7 K 0.0.@.S.wXeXeX",
"-X-X&X}.L   # U T A 7 2 2 * X ; ~ ~ 5 2 7 7 K 0.3.A.).wXeXeX",
"-X-X&X}.c X : Y Y 7 = = % * o q ( ^ 7 7 7 7 d V ] A.).qXeXeX",
"-X-X$X$XL o w N p * = = = # o r x 2 = 7 8 7 2 3 l R ^.0XeXeX",
"-X*X$X$XI w 6 7 y S S p & $ X 2 3 & 7 7 7 = O % 5 B 3.9XeXeX",
"*X$X{.~.2./ ) { E.>XP.#.u * $ * - 7 8 7 7 = O % 8 & @.6XeXeX",
"*X#X~.~.<.z.-X5X5X>X#.J d 7 = 7 7 8 8 8 7 = $ % 5 & I }.2XwX",
"$XV.B.r.[ v.|.|.=X5X@X.XY.w.F 7 8 8 8 8 - * $ % < # I #X1X6X",
"'.B.N.{ J  .z.v.|.5X@XR.P.e.F 8 8 8 8 7 = # o % &   &.&XOX6X",
"B.N.u._ 9 4 n z.`.|.`.R.R.P.K 8 a 7 7 - = o   $ * : 1.&X!.=X",
"N.b.>.` r , O z ;.v.x.P.l.$.V * - - - - * X X ; 3 @.N.&X}.$X",
"N.r.;.>.c . . . 0 m ,.O.O.b @ $ $ $ $ # # X X K I 2.V.&X#X#X",
"b.:.,.,._ O . . . . 0 e O o . @ o o $ # o X . G /.f.b.%X$X$X",
":.t.i.i.:.b X O . X X X X # # X o X X X X X o w { 1.h.%XV.$X",
"l n } y.:.*.e t 0 . . . X o o X o o X X X X ; 4 z H h.%X#X$X",
"6 l ' :.&.:.m t z 1 + O o o o X X X X X X O 4 4 4 t b.%XV.#X",
"j / 7.r.7.*.Q 4 j x j , + + O O o X X X O z ` ` g e b.%X$XB.",
"l } y.i.h.y.' n j 6 4 3 % % < s h ; o + l &.i.:.; e h.V.#XV.",
"Q :.y.b.b.i.' ` n 9 6 5 2 % * $ : O O 4 E -.,.m . b b.V.V.V."
};
