/* XPM */
static char *kaikyaku11[] = {
/* columns rows colors chars-per-pixel */
"30 40 217 2 ",
"   c #1B1718",
".  c #1C1919",
"X  c #241719",
"o  c #2B171C",
"O  c #23191A",
"+  c #2B1A1C",
"@  c #32171D",
"#  c #33191C",
"$  c #3A1A1D",
"%  c #2F1620",
"&  c #2D1A21",
"*  c #341B23",
"=  c #3C1B22",
"-  c #3D1D33",
";  c #392625",
":  c #41191D",
">  c #4B1A1F",
",  c #53191F",
"<  c #431C25",
"1  c #4B1A22",
"2  c #401C28",
"3  c #531B23",
"4  c #5C1B23",
"5  c #521D2A",
"6  c #631922",
"7  c #6C1A25",
"8  c #741A26",
"9  c #462329",
"0  c #4A2729",
"q  c #442D2A",
"w  c #56252A",
"e  c #5C222A",
"r  c #49312B",
"t  c #58392F",
"y  c #582632",
"u  c #4D3031",
"i  c #523B32",
"p  c #543C3A",
"a  c #6D252D",
"s  c #75232D",
"d  c #68332E",
"f  c #71312D",
"g  c #672935",
"h  c #663637",
"j  c #6A333A",
"k  c #6B393C",
"l  c #743B33",
"z  c #773738",
"x  c #594439",
"c  c #65483A",
"v  c #7B4636",
"b  c #764839",
"n  c #68543D",
"m  c #7B513C",
"M  c #543544",
"N  c #4F3A50",
"B  c #6B3E41",
"V  c #733A41",
"C  c #5F4140",
"Z  c #6D4545",
"A  c #6F4048",
"S  c #754844",
"D  c #724E4B",
"F  c #665644",
"G  c #7E5741",
"H  c #7E5841",
"J  c #75554E",
"K  c #7A544D",
"L  c #7B594E",
"P  c #795A53",
"I  c #77624B",
"U  c #7E6556",
"Y  c #767254",
"T  c #7D7269",
"R  c #822937",
"E  c #8B383C",
"W  c #8C4232",
"Q  c #864938",
"!  c #8D4C3A",
"~  c #914735",
"^  c #944C39",
"/  c #81533C",
"(  c #94553D",
")  c #9C593E",
"_  c #A6643F",
"`  c #864541",
"'  c #944846",
"]  c #875C44",
"[  c #9A5B42",
"{  c #995A49",
"}  c #8A5C56",
"|  c #9A5953",
" . c #A05F40",
".. c #A65B55",
"X. c #84654B",
"o. c #896F4C",
"O. c #946342",
"+. c #9C6044",
"@. c #8C744E",
"#. c #9C734B",
"$. c #816356",
"%. c #826B55",
"&. c #81665A",
"*. c #846D5B",
"=. c #9D6454",
"-. c #8D7556",
";. c #957855",
":. c #9D7C5D",
">. c #A36441",
",. c #A76947",
"<. c #AA6C43",
"1. c #A97349",
"2. c #B1784B",
"3. c #AC6F5A",
"4. c #AA7A58",
"5. c #877567",
"6. c #8D7B64",
"7. c #907E67",
"8. c #B67D67",
"9. c #8E855D",
"0. c #948055",
"q. c #998559",
"w. c #9E8A59",
"e. c #97915E",
"r. c #B6814F",
"t. c #A4855A",
"y. c #A98C5C",
"u. c #B0815F",
"i. c #A2945F",
"p. c #AD965E",
"a. c #8B8365",
"s. c #92836A",
"d. c #968A6E",
"f. c #9B8A6D",
"g. c #9E9768",
"h. c #988E70",
"j. c #9C9372",
"k. c #9C9A75",
"l. c #9C9876",
"z. c #A78963",
"x. c #B68767",
"c. c #A49562",
"v. c #A59A64",
"b. c #A7926A",
"n. c #AC9B68",
"m. c #B7986C",
"M. c #B98D73",
"N. c #A29F77",
"B. c #AD9A72",
"V. c #B89679",
"C. c #A6A06A",
"Z. c #ABA46B",
"A. c #ABAA6D",
"S. c #B1AC6D",
"D. c #AFB06D",
"F. c #A7A77A",
"G. c #B3A47C",
"H. c #B5AA78",
"J. c #AEB274",
"K. c #B8BA79",
"L. c #C49B74",
"P. c #C7A37C",
"I. c #BAC67A",
"U. c #BED17E",
"Y. c #B89881",
"T. c #AAAA86",
"R. c #B9A685",
"E. c #B6AB81",
"W. c #ACB583",
"Q. c #AFBA86",
"!. c #BAB785",
"~. c #CBAD89",
"^. c #C6B98B",
"/. c #C2AC90",
"(. c #D0B790",
"). c #D2BB9B",
"_. c #C9BCA9",
"`. c #B2C38A",
"'. c #B7CB8E",
"]. c #BACD90",
"[. c #BDD493",
"{. c #C9C988",
"}. c #D0CB84",
"|. c #C4D583",
" X c #C7DB87",
".X c #C9D68C",
"XX c #D0D286",
"oX c #C8C695",
"OX c #D8C79A",
"+X c #C7DA97",
"@X c #D7DC9A",
"#X c #CDE18F",
"$X c #CBE399",
"%X c #DBE693",
"&X c #D8E599",
"*X c #DBE49C",
"=X c #DEE89B",
"-X c #DAD8A8",
";X c #C8C4BB",
":X c #D3CFB7",
">X c #D6D7B8",
",X c #CDE2A0",
"<X c #D4E7A6",
"1X c #DCE4A5",
"2X c #DDE4AA",
"3X c #E1E5A5",
"4X c #E3E5AC",
"5X c #E5E6B3",
"6X c #E4E8B6",
"7X c #E5E6BB",
"8X c #DADEC8",
"9X c #E5E6C3",
"0X c #E5E6CB",
"qX c #E5E6D4",
"wX c #E6E6DC",
"eX c #E6E6E4",
"rX c #E7E8E7",
/* pixels */
"=X%X%X%X%X%X%X%X&XF.a.N.{.*X4X4X5X7X7X9X0X0XwXeXeXeXeXeXeXeX",
"=X%X%X%X%X%X%X%XK.q + ; i P !.5X5X7X7X9X9X0XqXeXeXeXeXeXeXeX",
"=X=X=X%X%X%X%XJ.x O + + & % p !.5X5X7X9X9X0X0XwXeXeXeXeXeXeX",
"}.}.}.}.XXXXv.q o & + + + & * p ^.5X5X7X9X9X0XqXwXeXrXrXrXrX",
") [ >.+.+.( q X o o # & + O + # c z.x.x.L.L.P.P.~.~.(.).).).",
"y.y.y.t.t.] o X O O O + O O O O @ Q >.>._ <.1.,.<.<.<.2.r.r.",
"z.x.n.m.m.;.$ O O O O O O . . O X I E.E.E.H.R.G.R.R.R.Y.E.V.",
"+.) ) ) ) ^ f > $ $ $ + . .     X c 8.x.L.V.P.~.(.OXOX-X-X>X",
"J.S.B.n.n.c.} 7 6 8 6 $   . . O O F u.+.>.,.>. ._ ,.<.<.1.2.",
"^ ^ ~ { z.K.-.a 8 8 8 > O   O $ + Y +XoX!.E.R.B.B.n.b.t.z.:.",
"c.z.:.q.S.{.j.t , 4 6 > o X > 3 p K.$X<XoXx.x.M.M.V.Y././.:X",
"{ | #.n.A.q.%.D 4 > : > , @ 4 e a.].+X+X,XH.[ ^ ^ ~ E W ~ /.",
"z Q Q t.i.@.U U j 4 3 8 6 o 1 Z l.`.`.[.$X,X`.!.!.H.H.B.b.G.",
"c.A.D.A.C.9.U j g 4 3 4 , $ y &.l.T.Q.`.].[.+X4.,.4.4.x.m.n.",
"1X@X XI.i.g.f.V y 5 3 1 $ h c 6.N.W.W.W.].[.+Xb.! ! W W W +.",
"K.Z.U.K.0.:.8...g $ + 9 k j D f.N.N.W.Q.J.`.`.].N.q.;.f.X.o.",
"i.i.I.D.X.z ..' s $ O % j g } 7.h.h.l.j.l.W.W.`.[.+X>XwXoXJ.",
"w.i.'.Z.G 4 R s 7 $ O = y g K *.s.h.h.d.d.l.a.l.'.6XeXeX7X[.",
"w.Z..XC.b 4 z ' =.e O < < g V &.6.s.h.d.h.a.u x h.8XrXqX4X.X",
"w.^.2Xn.b 3 w =.=.z q = 2 5 j ] $.5.7.j.W.I o % T rXrX0X4X+X",
"w.^.&Xc.b e v 3.' y ; @ < * y S K $.6.l.F.x + q _.rXwX7X3X&X",
"w.^.<Xi.b a ` 3.| a w u 9 & * k S ] *.s.a.C O T eXrXqX5X4X3X",
"i.oX-Xi.S e V ..' R V P P B 9 B V S U &.a.F ; ;XrXeX0X5X4X3X",
"p.oX1XC.G e M V g s j J &.U Z A K L J U s.C T rXeXeX7X5X3X3X",
"i.A.K.0.m y N N 2 3 9 z ..} D B B k D &.U J ;XrXeXwX5X4X2X1X",
"p.@.@.m m 0 - * O . O h ..} J J K K L L J T.rXeXeX0X5X4X2X3X",
"i.c + ; q + O O O . $ y E z V J Z Z D K *.>XwXeXwX9X5X4X1X4X",
"i.n . . . . . O O o 9 d s 4 5 h k k B c } +X4X9X0X7X5X4X3X4X",
"v.n . . . . O O . O O O O # $ # = 5 k j h I.&X3X7X5X5X4X4X4X",
"i.H + O O O O O . . . .   O # O . O % = # 9.&X1X4X5X5X5X4X4X",
"v.@.w > > + O O . . . . . . o @ O . . O o n {.&X4X5X5X4X4X5X",
"i.@.f f l w o O . .   . . . . o @ O O O # i I.@X1X5X5X5X5X5X",
"e.@.v l v d # . . . . . . . . . # # # o # ; A. X&X4X5X5X5X5X",
"i.@.b v v f w O . . O + O O . . O # # $ + o e. X#X1X4X4X5X5X",
";.c q O.O.O.( x . O + + O O . . . O + + + X Y U. X&X4X5X5X5X",
"m + + Q O.O.O.v O O O O O O . . . . O O O O n U. X&X1X5X5X6X",
"v # . c ) O.O.m + . . . . . . . . . . . O + x I.|.#X1X5X5X5X",
"d d X r O.O.@.O.q . . . . . . . . . O ; X $ ; D.|. X&X4X6X6X",
"v m r # / #.r.r.t . . . . . . . . . + $ # : > i.|.|.%X3X6X6X",
"Q ( m # c w.i.w.x . . . O O O O . . O $ $ > > 0.].U.#X1X6X7X"
};
