/* XPM */
static char *kaikyaku22[] = {
/* columns rows colors chars-per-pixel */
"30 40 207 2 ",
"   c #1E1919",
".  c #231619",
"X  c #2D171A",
"o  c #23191A",
"O  c #2B191D",
"+  c #3D1719",
"@  c #341A1C",
"#  c #3C191E",
"$  c #2D1A21",
"%  c #331A24",
"&  c #3B1B23",
"*  c #3E172A",
"=  c #361A29",
"-  c #3B1A2B",
";  c #3F1A31",
":  c #382527",
">  c #35292A",
",  c #41191C",
"<  c #4B191D",
"1  c #55171E",
"2  c #53191E",
"3  c #441B22",
"4  c #4A1B23",
"5  c #411C2C",
"6  c #4E1D2B",
"7  c #531B22",
"8  c #5B1B23",
"9  c #511D2B",
"0  c #5B1C2A",
"q  c #431B33",
"w  c #4A1D36",
"e  c #4C1E38",
"r  c #541C34",
"t  c #631B25",
"y  c #691E2C",
"u  c #41252C",
"i  c #492628",
"p  c #56262B",
"a  c #5A2B2A",
"s  c #4B352D",
"d  c #5C372E",
"f  c #482431",
"g  c #4A2A33",
"h  c #582735",
"j  c #52253A",
"k  c #552A3C",
"l  c #473837",
"z  c #4C343A",
"x  c #5C3738",
"c  c #662329",
"v  c #65222B",
"b  c #6C2B2C",
"n  c #71272C",
"m  c #732D2E",
"M  c #69322F",
"N  c #692A36",
"B  c #762C33",
"V  c #663432",
"C  c #6D3134",
"Z  c #693A34",
"A  c #62333A",
"S  c #65393B",
"D  c #753833",
"F  c #7B3B35",
"G  c #753C39",
"H  c #5D4537",
"J  c #66453A",
"K  c #74443D",
"L  c #74493C",
"P  c #66533D",
"I  c #6F3B43",
"U  c #5E4447",
"Y  c #684747",
"T  c #754947",
"R  c #68554D",
"E  c #7A5847",
"W  c #6E5855",
"Q  c #755B53",
"!  c #7E644E",
"~  c #7C6251",
"^  c #776559",
"/  c #787155",
"(  c #7F6E62",
")  c #823F38",
"_  c #864939",
"`  c #8B553E",
"'  c #91563C",
"]  c #893A46",
"[  c #875746",
"{  c #935C44",
"}  c #945F48",
"|  c #A24E52",
" . c #A65B56",
".. c #966548",
"X. c #9D764E",
"o. c #876955",
"O. c #8A7353",
"+. c #8A7A5B",
"@. c #997757",
"#. c #9E7A54",
"$. c #A76B46",
"%. c #A86258",
"&. c #A57C53",
"*. c #827362",
"=. c #857A64",
"-. c #927865",
";. c #AF7260",
":. c #B57364",
">. c #BA7768",
",. c #8B815D",
"<. c #9A865A",
"1. c #96895D",
"2. c #A48055",
"3. c #AB8354",
"4. c #A68558",
"5. c #AD8C5C",
"6. c #BA8854",
"7. c #BC8B5B",
"8. c #AD905D",
"9. c #B1925D",
"0. c #BB925C",
"q. c #8A836D",
"w. c #978966",
"e. c #9C9667",
"r. c #8C8C71",
"t. c #989172",
"y. c #A79A66",
"u. c #A59C64",
"i. c #B49C62",
"p. c #B08F70",
"a. c #B59675",
"s. c #A9A86D",
"d. c #B6A266",
"f. c #BBA365",
"g. c #BBA66A",
"h. c #B3AD6D",
"j. c #BDAD6B",
"k. c #AEB36E",
"l. c #BEB26D",
"z. c #A7A67A",
"x. c #ADB377",
"c. c #B9B775",
"v. c #B4BC74",
"b. c #C2955B",
"n. c #C19A5D",
"m. c #CB9376",
"M. c #CD9877",
"N. c #C6A769",
"B. c #C4AD6B",
"V. c #C2B36D",
"C. c #CEB36E",
"Z. c #C4A57A",
"A. c #C2B771",
"S. c #C4BB73",
"D. c #C9BB73",
"F. c #B6C376",
"G. c #BBC477",
"H. c #B6C379",
"J. c #B9C579",
"K. c #BBCB7C",
"L. c #BED07F",
"P. c #CAC177",
"I. c #C5C679",
"U. c #CAC378",
"Y. c #CBCA7D",
"T. c #D9C77C",
"R. c #C2D57E",
"E. c #B0B488",
"W. c #DDB589",
"Q. c #BDCD81",
"!. c #BED181",
"~. c #B1C092",
"^. c #BDD59D",
"/. c #C5CA86",
"(. c #C2D482",
"). c #C4DA84",
"_. c #CADD83",
"`. c #C8DB89",
"'. c #D4D382",
"]. c #D4DD8B",
"[. c #D5CC97",
"{. c #CAD793",
"}. c #D6DB94",
"|. c #E0C68F",
" X c #CDE186",
".X c #C4E089",
"XX c #CDE28B",
"oX c #D1E386",
"OX c #D4E58C",
"+X c #D9E48E",
"@X c #CDE194",
"#X c #D4E493",
"$X c #D9E691",
"%X c #DBE698",
"&X c #D8DDAA",
"*X c #D2DDB2",
"=X c #E3DEA9",
"-X c #DBE3A6",
";X c #DBE3B8",
":X c #E1E6AA",
">X c #E2E6B9",
",X c #E4E6C3",
"<X c #E4E7CD",
"1X c #E5E6D5",
"2X c #E4E8D0",
"3X c #E6E6DA",
"4X c #E6E6E5",
/* pixels */
"].-X#X(.Q.K.!..XR.(.,.O O o > ~.^.U     $ & N y C y.&X,X}.f.",
"I.F.K.J.J.!.)..Xh.3.` @ O o $ =.~./     o O 9 0 S E.2X3X>X/.",
"/.x.v.F.K.L.)..Xu.' _ i o $ o g ( r.>   . O & r Q *X4X4X3X:X",
";XJ.v.F.K.L.)..XF.u.1.P o o   $ Y q.l   . . % e q.<X4X4X4X1X",
".XF.F.F.H.L.)..X.X#X`.+.$ . o o z ( R     o $ g E.<X4X4X4X4X",
"!.F.v.F.K.L.)..XXX:X}.+.> o o   $ W ^ $   o $ z E.;X4X4X4X4X",
"!.K.k.F.K.L.!..X.X%XQ.! > o o o o U =.>   $ $ x z.*X4X4X4X4X",
"L.K.F.K.K.L.L.).Q.{.u.T u o o o o z =.z $ x [ p.E.*X4X4X4X4X",
"R.L.F.K.K.L.(.!.s.s.! Y i   O 4 v j ^ R x  .m.W.|.:X3X4X4X4X",
".XL.F.K.Q.!.L.Q.w.O.! +.Q g o.;.| h W W T  .m.W.W.[.3X4X4X4X",
"R.R.K.K.K.K.Q.Q.1.! o.t.w.>.M.M. .h Y ^ N | >.>.:.a.2X4X4X4X",
"R.R.F.K.Q.Q.Q.v.1.! ~ *.-.:.>.>.%.C z Y k ] ] ] F E.2X4X4X4X",
"oXR.R.R.R.R.H.v.1.[ ! E E ) B ]  .A % w * 6 w r j z.<X4X4X4X",
"oXoXR.R.R.R.H.v.1.L d ! O.L 7 7 N 5 O 5 $ = q q j t.,X4X4X4X",
"OX$XR.R.G.G.G.k.,.d X J O.L 5 = = $ $ q - - q q w *.>X4X4X4X",
"OXR.R.R.v.G.F.x.L 4 @ : T S * - % $ $ 5 * * q q q ^ *X4X4X4X",
"+XoXoXoXv.v.v.1.4 , , u @.S * = % $ $ * ; ; q w q Q *X4X4X4X",
"OXOXOXOXJ.h.e.s X X Z a.a.f - - = % % q ; w e e q Q &X3X4X4X",
"OXOXOXOX_.#.H o o @ a.=XQ q * - - % = q ; e k j q R {.>X1X4X",
"+X+XOX+XOX/ . . X i Z.a.f q q q ; ; ; q e j k e = z t.{.>X,X",
"OX+X$XOXOXx.: . + 1 $.S - * q q q q e e e k z q @ 5 Q x.#X:X",
"+X+X$XOXOX`.P   + v m 5 = - q q e e ; q e k e ; O % J w.Q.-X",
"OX$X$XOXXXXXu.a , m b % % - * q q ; ; - ; e ; ; o o : Q x.@X",
"$X$X$X#X`.XXK.<.d M D & % = - - - - % % ; ; ; $ o o O A t.(.",
"$X$XOX X_.`.K.#._ 7 F i % @ = % $ % $ $ % $ @ O o . o g o.x.",
"$X$XOX X(.(.u.i F ` ..Z X $ O O $ $ O $ $ $ $ o o o o = T e.",
"$X$XoX_.(.J./ X L C.D.&.% O O O $ $ $ O $ $ O o     o O h w.",
"%X+X X).L.l.5.d 4 &.T.N.V O O O . O o O O O O o     o o g 1.",
"OXOX XR.K.f.7.&.d V B.C...# @ O O O O O O O O o   . o o u +.",
"OXoX X).G.0.b.B.9.V [ S.g.p 3 3 # # # @ @ @ @ X . o o o i [ ",
"oXOXXX).c.g.N.D.Y.i.M &.U.E < < 7 b p + # # @ X O o o X h G ",
"OXOXOXG.....&.i.Y.U.4.T g.5.M 8 G [ b # @ X @ O O O O 9 0 x ",
"#XoXOX1.t t n #.l.S.l.4.8.5...` { ' D 4 & u = % % O & c 3 i ",
"OX#X(.L t t F N.Y.Y.Y.d.5.9.X.{ ' K c < p I U f & & 0 0 X s ",
"+XOXy.a 8 t ..D.'.$X+XV.f.j.9.2.{ _ D b N A A 4 3 4 8 # @ O.",
"$X_.` 1 8 n 9.D.T.$XoXP.j.V.j.i.3...{ ` L F b 4 < 2 < @ x #.",
"%Xc.a 2 1 _ f.V.Y.Y.Y.S.V.S.S.V.d.9.4.2.X.X.` c 2 < < < G ..",
"%X1.< 2 1 ' 0.n.C.D.j.j.A.I.U.U.S.A.l.l.j.f.X.D 8 1 2 8 N [ ",
"c.J + < v $.6.b.n.n.9.0.N.V.S.U.U.U.P.P.I.j.3.' m t 1 8 c G ",
"K a + , b $.6.b.b.n.6.6.6.f.B.S.S.S.P.I.Y.f.3.{ _ n t 1 8 b "
};
