/* XPM */
static char *kaikyaku24[] = {
/* columns rows colors chars-per-pixel */
"30 40 224 2 ",
"   c #2D171F",
".  c #26191B",
"X  c #2A191D",
"o  c #331A1E",
"O  c #3A191E",
"+  c #31211F",
"@  c #2E1A22",
"#  c #321A24",
"$  c #3A1B24",
"%  c #371729",
"&  c #351A29",
"*  c #3B1A2C",
"=  c #3E1A31",
"-  c #382425",
";  c #3C232B",
":  c #3B2A34",
">  c #451D24",
",  c #4D1A23",
"<  c #441A2C",
"1  c #4E1B2D",
"2  c #531C25",
"3  c #5D1B25",
"4  c #511B2D",
"5  c #5E1D2A",
"6  c #421B34",
"7  c #4A1D36",
"8  c #431C39",
"9  c #4B1E38",
"0  c #531E35",
"q  c #671D29",
"w  c #641D2A",
"e  c #44202A",
"r  c #49232C",
"t  c #422B29",
"y  c #492829",
"u  c #55292B",
"i  c #47362F",
"p  c #51382E",
"a  c #4B2434",
"s  c #482734",
"d  c #4C233A",
"f  c #582735",
"g  c #5B2C36",
"h  c #52243A",
"j  c #542A3C",
"k  c #4C3435",
"l  c #563737",
"z  c #5C323B",
"x  c #68262C",
"c  c #642331",
"v  c #662B36",
"b  c #722534",
"n  c #732B32",
"m  c #6B353A",
"M  c #793739",
"N  c #5C433C",
"B  c #66493C",
"V  c #76443C",
"C  c #7D4438",
"Z  c #64503A",
"A  c #3E3B46",
"S  c #493647",
"D  c #573542",
"F  c #5B3C43",
"G  c #463F53",
"H  c #653742",
"J  c #6B3D44",
"K  c #763E43",
"L  c #374558",
"P  c #5A4744",
"I  c #5C4C53",
"U  c #48505D",
"Y  c #634442",
"T  c #6A4343",
"R  c #634A45",
"E  c #674B4A",
"W  c #764848",
"Q  c #7A5648",
"!  c #7C4751",
"~  c #755654",
"^  c #796048",
"/  c #7B6556",
"(  c #7E725B",
")  c #7C7760",
"_  c #757169",
"`  c #802F3C",
"'  c #994F3B",
"]  c #87494A",
"[  c #815649",
"{  c #985756",
"}  c #A45858",
"|  c #8C644B",
" . c #97674B",
".. c #95724E",
"X. c #836852",
"o. c #836C5C",
"O. c #877B5A",
"+. c #987853",
"@. c #A36747",
"#. c #AB7A4E",
"$. c #A6625D",
"%. c #8B6A61",
"&. c #8B7C69",
"*. c #9A7A67",
"=. c #AA6761",
"-. c #AB7564",
";. c #B8776A",
":. c #9A8659",
">. c #9B8B5A",
",. c #A28758",
"<. c #B9855A",
"1. c #B78859",
"2. c #A6955E",
"3. c #888467",
"4. c #938966",
"5. c #9A9868",
"6. c #8C8B71",
"7. c #9A9877",
"8. c #AC8D67",
"9. c #A79767",
"0. c #B29A63",
"q. c #BB9863",
"w. c #B48471",
"e. c #BE9677",
"r. c #ABA76A",
"t. c #BBA265",
"y. c #B8A769",
"u. c #BCB06C",
"i. c #A9A57B",
"p. c #ACA57D",
"a. c #AFB07C",
"s. c #B5B976",
"d. c #BABC75",
"f. c #C39866",
"g. c #C9967D",
"h. c #C5AC6B",
"j. c #C9AD6C",
"k. c #C4B56F",
"l. c #C7A277",
"z. c #B9C37A",
"x. c #BDC47D",
"c. c #C4C076",
"v. c #C2C57A",
"b. c #C1CD7C",
"n. c #9E8A86",
"m. c #AB978B",
"M. c #B59385",
"N. c #96BB98",
"B. c #A7AB82",
"V. c #B6AB85",
"C. c #ABB585",
"Z. c #ABBA8D",
"A. c #B6B785",
"S. c #AFAD95",
"D. c #B8B194",
"F. c #D7A886",
"G. c #C6B383",
"H. c #C5B489",
"J. c #C4AF9C",
"K. c #CEB390",
"L. c #CBB791",
"P. c #CEB9A5",
"I. c #B6C285",
"U. c #B8CA83",
"Y. c #BDD285",
"T. c #B6CA9A",
"R. c #BBD694",
"E. c #B4E0B4",
"W. c #C4C988",
"Q. c #D5C984",
"!. c #C2D683",
"~. c #C7D585",
"^. c #CADB86",
"/. c #C4DB8B",
"(. c #CADB8C",
"). c #C6C49A",
"_. c #D7C597",
"`. c #CCD59B",
"'. c #D3D49C",
"]. c #C6E088",
"[. c #CBE38C",
"{. c #D5E587",
"}. c #D5E58D",
"|. c #CCE393",
" X c #D4E594",
".X c #DAE694",
"XX c #DDE896",
"oX c #D4E39A",
"OX c #DDE69B",
"+X c #E1E69E",
"@X c #E2E89E",
"#X c #CFCAA1",
"$X c #D3C1A4",
"%X c #D6CAA2",
"&X c #CDD7A5",
"*X c #D5DBA4",
"=X c #D6D5A8",
"-X c #D2DBAB",
";X c #D8CEB5",
":X c #DAD7B7",
">X c #DDD4B7",
",X c #DDDCB4",
"<X c #E5D9A4",
"1X c #C7E2A5",
"2X c #D7E2A4",
"3X c #DDE5A4",
"4X c #DCE3AD",
"5X c #DCE2BB",
"6X c #D9E6B8",
"7X c #E2E5A1",
"8X c #E5E6A9",
"9X c #E6E1B6",
"0X c #E2E6BB",
"qX c #E7E9BC",
"wX c #DDDFD2",
"eX c #E0DCC3",
"rX c #D5E5C2",
"tX c #DDE4C2",
"yX c #E3E5CC",
"uX c #E6E8C8",
"iX c #E3E6D3",
"pX c #E5E6DB",
"aX c #E6E6E5",
"sX c #E7E8E6",
/* pixels */
"*X4X4X4X,X,X,X>X>X>X>X>X>X5X0XuX>XP.J.m.n.m.K.7XoXv.v.Q.Q.Q.",
"G.l.l.g.h.f.f.f.q.<.<.#.f.W.2XqXf. .H D 9 0 O.'.x.>.2.t.j.j.",
"h.j.j.j.h.h.j.h.y.q.t.y.y.s.W.oX8.J ~ E J H ! _ / P ).9X,X5X",
";X=X=X'.`.&X4X5X5X:X#X%X%XV.4.3.P 0 { =.;.{ D A L I D.P.$X_.",
"q.<.<.<.e.P.yXyX6Xk.@.@.@.! U U : c ;.F.F.=.D S G S  .1.1.1.",
"G.G.G.$XeX0X4XoXoXI.9.8...z A A ; f ] { { v = 8 8 d C.2X-X*X",
"K.K.'.oX2XXX.XoX|.W.H.H.*.6 % @ & 4 w M c < = 9 8 j G._._._.",
" .#.~.]. XXXoX|.|.0.' ' n < & = * 5 b $.K > % 8 a j @.#.,.#.",
"2.U.'. X X.XoX|.|.s.2.:.Q - = d j 2 2 b 2 $ % 8 = l :.4.>.9.",
"s.,XpXuXXXoX.X X|.oX'.z.4.; * - R g c ` v % * = = _ &X&X-XuX",
"wXaXyX3X.X XoX|.[.4XqXa.( & # % P J J ] J * 8 8 6 ! P.aXaXiX",
"pXqXOX}. X.XoX|.|.4X8X4.Y # # # P / Q m z * 6 8 = b M.aXaXiX",
"8X7X.X}..X.X X|.|.3XL.^ l @ & # P C.T.m.E % % = = T J.aXaXaX",
"7XOX.X}..X.X|.|./.`.i.~ e   & # P T.iXD.R e * % # 6.5XaXaXaX",
"7XOX.X.X.XoX|.(./.A.C.3.Y &.M.*.k T.rXZ.l [ w.X.Y 6.&XpXaXaX",
"+XOX.X.XoX X|./.Y.C.C.A._.9X<Xe.k B.R.B.B { P.<X'.`.=XiXaXaX",
".X@X.X X X|.R.Y.U.5.o.*.;.F._.8.: 6.7.) y -.F.<X<X`.1XiXsXaX",
"+X@X.X.X X].Y.U.z.( V T W ] g.Q + ) P + ; -.g.F.l.A.R.rXsXaX",
"@X+XXXOX|.].Y.z.3.- R X.z < r * @ T ~ t * a j K *.i.7.#XaXaX",
"+XOXXXXX|./.x.3.W i t l 6 = * # y g.%XJ 6 = = Y B.p.( 7.pXaX",
"+X+X+X+X(.Y.5.Q D.D.Y < 6 * # # f ;.w.v = 8 6 E V.C.7.S.pXaX",
"+X+X+X+X~.5.N D.uXm.j 6 6 % # # K } m 6 8 8 6 H 4.7.Z.E.iXaX",
"+X7X+X7Xa.p ( qX$XF * = = % @ # ] { 7 < 6 7 6 6 v W 6.E.tXaX",
"+X+X+X8X7.- A.;X~ 7 6 6 = * @ $ f 7 6 6 7 7 = % 6 0 / N.6XaX",
"7X7X+X+Xs.p V.%.< 6 6 = 6 = % * 6 7 d h 9 7 6 % * 4 m _ -XpX",
"7X7X+X.XW.B z 7 = * = 6 6 6 8 8 7 h j h d 6 6 % $ 4 7 S T.pX",
"7X7X+X X^.X.< % * = = 7 0 0 9 9 0 h j h 6 8 = * $ 4 < : V.uX",
"7X+X.X[.!.O.e * & * = 6 7 0 9 h D j h 7 8 6 = # $ 4 < # p.uX",
"OXXX[.].Y./ $ # $ % # * = = = d D d d 9 8 8 % X % 1 @ @ p.8X",
"@X.X[.].z.B # # # # # # # # # % 7 7 8 6 = = # X # 6 : F A.@X",
"XX|.].Y.O.e $ # @ @ @ @ # @ # = * = * % # # o . * z f 9.{.@X",
"XX[.].z.+.e > @ @ @ # @ @ # @ @ @ @ # # # #   . k 6.7.z.~.@X",
" X[.!.u.t.V > # X X X X o X # o @ X @ @ @ @ X X e &.1XI.v.XX",
"}.[.x.t.h.| 4 > O X . . X X X X X X @ . . @ . O w v 4.5.z.XX",
"[.].b.u.y.2.g , 2 O o .     X X X X X X @ . X , 3 w V ..z.{.",
"}.d.2.0.d.b.2.B y V x , O O O X X . X X . . , w 3 2 w p u.XX",
"^.| x ' r.z.r.9.p Q ..u O , , , > t $ o X > n M | ..C - r.{.",
"9.n n ..s.z.u.2.Q u M m > # o O r P s # O x M ,.v.c.Z + 5.{.",
"V q ' r.z.].b.z...' x q g F a * % # o k m n  .t.k.,.+ - r.{.",
"w x | d.x.b.{.b.:.+.| M n / _ E I F R Q n ` 2.t.0.l + ..v.b."
};
