/* XPM */
static char *kaikyaku04[] = {
/* columns rows colors chars-per-pixel */
"30 40 215 2 ",
"   c #1C1718",
".  c #1C1919",
"X  c #28171A",
"o  c #24191A",
"O  c #2B191B",
"+  c #33161C",
"@  c #34191C",
"#  c #3C191D",
"$  c #2B1B21",
"%  c #361620",
"&  c #321920",
"*  c #3C1B22",
"=  c #3B1D29",
"-  c #392225",
";  c #342A26",
":  c #48171D",
">  c #44191E",
",  c #4E1A1E",
"<  c #53191F",
"1  c #441B23",
"2  c #4B1B23",
"3  c #441D2B",
"4  c #4C1C2B",
"5  c #531B23",
"6  c #5C1B24",
"7  c #541C2C",
"8  c #5C1E2A",
"9  c #4F1B30",
"0  c #511B31",
"q  c #5C1E32",
"w  c #661B25",
"e  c #6C1C2B",
"r  c #741E2E",
"t  c #791B2D",
"y  c #611F34",
"u  c #4C2325",
"i  c #42272A",
"p  c #48222E",
"a  c #592225",
"s  c #572128",
"d  c #4C332D",
"f  c #4C2833",
"g  c #522B34",
"h  c #5A2A37",
"j  c #4D3C32",
"k  c #5E333D",
"l  c #583938",
"z  c #62242B",
"x  c #6C262A",
"c  c #632A2C",
"v  c #76242D",
"b  c #742A2D",
"n  c #642636",
"m  c #6D2432",
"M  c #642B33",
"N  c #6D2B33",
"B  c #7C2433",
"V  c #732935",
"C  c #7B2F32",
"Z  c #693A35",
"A  c #7A3638",
"S  c #5A4B3A",
"D  c #6A483B",
"F  c #75483E",
"G  c #784A3C",
"H  c #6C523D",
"J  c #70543F",
"K  c #5A3E40",
"L  c #623540",
"P  c #793841",
"I  c #674643",
"U  c #6C4A4A",
"Y  c #714D4C",
"T  c #695446",
"R  c #7C5541",
"E  c #7A5A42",
"W  c #7A554A",
"Q  c #724E50",
"!  c #765A54",
"~  c #755C54",
"^  c #716548",
"/  c #7C635A",
"(  c #7C6758",
")  c #811D33",
"_  c #832135",
"`  c #832A38",
"'  c #8C2B3E",
"]  c #863533",
"[  c #853936",
"{  c #85413A",
"}  c #88493B",
"|  c #974D39",
" . c #80543F",
".. c #9A533D",
"X. c #8E2D40",
"o. c #883941",
"O. c #973648",
"+. c #874845",
"@. c #924A48",
"#. c #9B4A4D",
"$. c #8C5343",
"%. c #835C45",
"&. c #895649",
"*. c #875D4B",
"=. c #8D5D4C",
"-. c #925345",
";. c #965A48",
":. c #9F4E53",
">. c #805B57",
",. c #9E5455",
"<. c #A15B43",
"1. c #A45857",
"2. c #87634A",
"3. c #866A4A",
"4. c #8C6E4B",
"5. c #96634C",
"6. c #916F4C",
"7. c #8E704C",
"8. c #93714D",
"9. c #8A6854",
"0. c #816E5F",
"q. c #936551",
"w. c #936B54",
"e. c #996A56",
"r. c #8A7854",
"t. c #957552",
"y. c #947159",
"u. c #977959",
"i. c #A4644A",
"p. c #A86A58",
"a. c #AC7358",
"s. c #B27A5B",
"d. c #8F6C63",
"f. c #847462",
"g. c #8C7867",
"h. c #9B7C61",
"j. c #AF7162",
"k. c #B67767",
"l. c #96845B",
"z. c #8C826A",
"x. c #90856D",
"c. c #9D9363",
"v. c #9B996B",
"b. c #988B72",
"n. c #989875",
"m. c #AF896A",
"M. c #B78367",
"N. c #A39664",
"B. c #A2946A",
"V. c #A59968",
"C. c #A89575",
"Z. c #9FA67C",
"A. c #A8A46B",
"S. c #AAAC75",
"D. c #A5A879",
"F. c #ADB373",
"G. c #AFB875",
"H. c #B0B376",
"J. c #B1BC78",
"K. c #C3A179",
"L. c #B5C376",
"P. c #B7C678",
"I. c #B8C77B",
"U. c #BBCC7D",
"Y. c #BED37F",
"T. c #C0C47B",
"R. c #C0CD7F",
"E. c #A19C80",
"W. c #B2AC88",
"Q. c #ACB584",
"!. c #B4BA87",
"~. c #C9AE84",
"^. c #CAB68B",
"/. c #CFB890",
"(. c #BCCD81",
"). c #B4C48C",
"_. c #BED382",
"`. c #BFD987",
"'. c #BFDA8A",
"]. c #BBD199",
"[. c #C0D584",
"{. c #C2DC86",
"}. c #C2DD8B",
"|. c #C4D88E",
" X c #CFCD93",
".X c #CEC59B",
"XX c #CDD597",
"oX c #C5E087",
"OX c #C5E18D",
"+X c #C9E38D",
"@X c #C6E290",
"#X c #CCE492",
"$X c #CAE398",
"%X c #D3E595",
"&X c #D3E59A",
"*X c #DBE59D",
"=X c #D3CBA5",
"-X c #D5D2AD",
";X c #DBD8B5",
":X c #E0DBBE",
">X c #DBE5A3",
",X c #D9E4A6",
"<X c #DFE1BD",
"1X c #E1E5A4",
"2X c #E3E5AB",
"3X c #E4E6B4",
"4X c #E5E6BD",
"5X c #E6E8B9",
"6X c #E5E6C4",
"7X c #E6E8C4",
"8X c #E5E6CC",
"9X c #E6E8CA",
"0X c #E5E6D4",
"qX c #E6E6DC",
"wX c #E6E6E4",
/* pixels */
"2X>X%X{._.U.P.L.L.L.P.P.U.[.[.oX#X&X>X2X3X4X7X0XqXwXwXwXwXwX",
"2X*X#XoXY.U.P.L.I.I.I.I.U.(.{.+X#X&X>X2X3X4X6X0XqXwXwXwXwXwX",
">X&X#XoXY.U.P.U.U.U.U.U.U._.}.OX#X%X>X2X3X4X6X8X0XwXwXwXwXwX",
">X&X+XoXY.Y.U.U.U.U.R.U.(.[.{.OX#X&X*X2X3X3X4X8X0XqXwXwXwXwX",
"&X%X+X{.`.Y.Y.Y.U.U._.[._._.`.OX#X%X>X>X3X5X4X7X8X0XwXwXwXwX",
"&X#X+XoXY.`._.Y.U.U.(.G.J._.oX+X+X&X*X2X2X3X4X7X8X0X0XqXwXwX",
"%X+X+XoX{._._.U.U.F.^ j d T S.+X%X%X*X1X2X3X5X4X6X8X0XqXwXwX",
"%X+XoXoX{.[.[.R.G.S X O * O i v.+X%X*X1X2X2X3X4X6X8X8X0XqXwX",
"I.T.R.R.Y.U.U.R.r.+ : b ,.N % j [.%X*X1X1X2X3X5X4X8X9X8X0X0X",
"] { { | ..;.5.e.d > e ' 1.#.4 & 9.%X*X*X1X2X5X5X4X6X7X7X0X0X",
"u.y.5.;.$.} { ] 2 6 t r s M V 7 x -.i.a.M.K.K.K./..X=X;X:X:X",
"@.$.5.5.u.a.u.x.D : 5 # # 8 :.A N N } ..;.<.i.;.| ..<.i.a.s.",
"5.$.} { [ ] ] ] b @ @ > m 6 C o.>.b.b.D.Q.Q.!.C.h.m.h.e.1.5.",
"e.y.y.y.y.w.9.q.=.D s < z 5 6 m d.E.( ( g.g.E.]..X~./..X.X.X",
" .[ C b b C A { q.C.Z > # 6 r q g.g.~ Q Q ! z.n.).B.| | <.i.",
"5.y.y.y.w.2.$.&.&.*.W p # < V M / Q Q L L I Q 0.n.!.B.w.=.-.",
", w b b C A w.G 6 z Y f 1 # + i g p f 3 p h k ! ( n.).).C.W.",
"< Z  .J G } *.c 5 7 y q 4 1 2 # & X X . o 3 g U / z.Z.).=.[ ",
"c J N.A.A.N.%.8 5 1 9 0 4 1 1 @ O O X o o o = k Q ( x.E.!.z.",
"&.S. XG.G.V.F 6 2 1 4 4 9 = o o O * * O o O X 3 L / x.n.n.D.",
" X XN.c.H.u.Z 6 : 1 * 1 1 # o O 1 w 6 * o o o + 3 g l U ~ f.",
"A.l.6.N.A.2.z < 1 1 1 + = & + 2 e r B 8 o X o o @ = K g.z.r.",
"u.8.8.H.c.I 8 5 1 9 1 X O * 8 v r B X.n # , O o O g x.<X=X9.",
"t.8.N.B.M y q 7 0 7 4 4 7 1 e _ O.X.O.X.e 7 o   i 0.-X0X,Xn.",
"t.8.B.I 4 y m q q 0 q h 8 + > e ` _ ) _ 2 = & & T W.8X6X>X(.",
"8.6.S.( 4 7 q y n P s 4 2 + O 6 C B t e > 3 g k g.6X8X3X#X}.",
"8.8.I.).Z 2 7 4 +.M.j.+.1 @ O : t _ r 5 1 f U ~ !.8X7X,X#X@X",
"6.8.`.XXW , # + o.k.k.,.1 O @ @ 5 8 # - g Y ~ C.8X8X4X%X}.{.",
"7.7.S.S.R 2 + + b ` o.m O O @ @ O O @ h I h 9.-X8X6X,X#X@X'.",
"7.2.F Z z 5 @ + 6 w w + @ 7 # # # # V 1.Q k b.6X8X4X,X@X}.|.",
"7.E u u 5 5 O O : w v N A N 7 @ + 6 #.j.#.w.;X8X6X3X#X@X}.'.",
"7.H o o o o     > < v C V A c o o M #.p.,.^.7X8X3X>X#X@X'.'.",
"4.H . . . . . . o O > < a x a o . S { @.e.!.,X<X2X&X$X@X'.{.",
"4.H . . . . . . o . . o   X @ o o l a.;.$.A.(.XX>X#X#XOX'.'.",
"4.J O o o . . o o o . . . $ f * o - a a x l.I.'.#X#X@X}.'.OX",
"3.J u > # O . o o o . . . $ = - o . . . X H F.(.#X#X$X}.OX}.",
"3.J a < < : o O + O o . . . . . . . . . . S v.I.}.#X#XOXOXOX",
"2.J a < < : X X O O O o . . . . . . . . . ; c.F.[.#X#XOX@XOX",
"2.H < < , , # o + @ - o . . . . o $ . . . o l.F.(.OX#X#X@X@X",
"G - < x x x c u > f K o . . . . o o . . . o l.A.J.{.OX#X@X@X"
};
