/* XPM */
static char *kaikyaku21[] = {
/* columns rows colors chars-per-pixel */
"30 40 222 2 ",
"   c #1C1919",
".  c #26161A",
"X  c #29161D",
"o  c #23191A",
"O  c #2B191D",
"+  c #331B1D",
"@  c #3B191C",
"#  c #271F21",
"$  c #2D1A21",
"%  c #3C1621",
"&  c #321A24",
"*  c #3C1A24",
"=  c #361A28",
"-  c #3B1B2B",
";  c #3E1B31",
":  c #332422",
">  c #3C2324",
",  c #3B2429",
"<  c #3C2930",
"1  c #46181D",
"2  c #501A1E",
"3  c #451B23",
"4  c #4B1B24",
"5  c #4A1C28",
"6  c #551C24",
"7  c #5B1B23",
"8  c #551D29",
"9  c #5B1D29",
"0  c #401A32",
"q  c #4D222B",
"w  c #452B29",
"e  c #4D2D2B",
"r  c #532328",
"t  c #5C222D",
"y  c #572C2C",
"u  c #5C2A2E",
"i  c #46342D",
"p  c #58312D",
"a  c #482834",
"s  c #572A33",
"d  c #493734",
"f  c #5B3234",
"g  c #593836",
"h  c #55333D",
"j  c #64252B",
"k  c #69282B",
"l  c #712D2E",
"z  c #622B31",
"x  c #6D2832",
"c  c #762A35",
"v  c #6C3432",
"b  c #693A37",
"n  c #733432",
"m  c #743C35",
"M  c #783639",
"N  c #584036",
"B  c #62443B",
"V  c #64473C",
"C  c #724136",
"Z  c #7D4337",
"A  c #754539",
"S  c #7A453A",
"D  c #764C3D",
"F  c #7B4D3C",
"G  c #6F523E",
"H  c #7D513E",
"J  c #3B3A4E",
"K  c #49344A",
"L  c #503547",
"P  c #524657",
"I  c #694946",
"U  c #7A4D41",
"Y  c #64554A",
"T  c #7A5647",
"R  c #7C5C45",
"E  c #6A5854",
"W  c #755C51",
"Q  c #79644A",
"!  c #6A635E",
"~  c #7A6358",
"^  c #7B7350",
"/  c #575262",
"(  c #6E6966",
")  c #862F3D",
"_  c #833C33",
"`  c #88483A",
"'  c #92453B",
"]  c #94493D",
"[  c #84533E",
"{  c #8A553D",
"}  c #915C3E",
"|  c #8D3B46",
" . c #884A45",
".. c #934A46",
"X. c #845542",
"o. c #8D5441",
"O. c #855D44",
"+. c #8C5D44",
"@. c #845C4C",
"#. c #995846",
"$. c #8F5B53",
"%. c #AB5659",
"&. c #A55858",
"*. c #8B6546",
"=. c #85664A",
"-. c #82644C",
";. c #8D644B",
":. c #8C6B4C",
">. c #916244",
",. c #92654B",
"<. c #9F6049",
"1. c #946B4B",
"2. c #9A6E4B",
"3. c #8E704E",
"4. c #95724F",
"5. c #98714D",
"6. c #856D54",
"7. c #836D5A",
"8. c #976355",
"9. c #936D51",
"0. c #867254",
"q. c #8B7555",
"w. c #897657",
"e. c #8E7C5B",
"r. c #937452",
"t. c #967957",
"y. c #9A7A54",
"u. c #A2664C",
"i. c #A56959",
"p. c #A57057",
"a. c #8C7D63",
"s. c #977B67",
"d. c #827971",
"f. c #B76A65",
"g. c #AA7963",
"h. c #BF746C",
"j. c #93835C",
"k. c #9B865A",
"l. c #9B905F",
"z. c #A48B5D",
"x. c #A6905F",
"c. c #8C8565",
"v. c #938662",
"b. c #978B62",
"n. c #9A8D63",
"m. c #918C6B",
"M. c #9C9464",
"N. c #9C9866",
"B. c #9B9569",
"V. c #9F9B69",
"C. c #999672",
"Z. c #A58662",
"A. c #A79966",
"S. c #A09C67",
"D. c #AC916F",
"F. c #A19D6A",
"G. c #9EA278",
"H. c #A2A16B",
"J. c #ABA46D",
"K. c #ADAD73",
"L. c #B4AC78",
"P. c #B3B675",
"I. c #CF917B",
"U. c #BBC47D",
"Y. c #B9C87F",
"T. c #979283",
"R. c #A8A984",
"E. c #B3A885",
"W. c #A7B586",
"Q. c #ABBB8B",
"!. c #B7B78A",
"~. c #B1AD97",
"^. c #BBB996",
"/. c #BCB8AE",
"(. c #CEA782",
"). c #C1B69C",
"_. c #C2B99B",
"`. c #C4BCA3",
"'. c #AFC285",
"]. c #B8C685",
"[. c #BCCD84",
"{. c #BAD08A",
"}. c #BEDB8F",
"|. c #AFC491",
" X c #B7C696",
".X c #BCD696",
"XX c #BFD1A3",
"oX c #C3C289",
"OX c #C2CC8A",
"+X c #C0D187",
"@X c #C5D18B",
"#X c #C8CA99",
"$X c #C8D997",
"%X c #D1DE9D",
"&X c #C7E399",
"*X c #D6E49E",
"=X c #CACAAA",
"-X c #CADDAC",
";X c #D7CCB8",
":X c #DBD9B4",
">X c #D5E3A4",
",X c #D8E3A7",
"<X c #DBE4AA",
"1X c #DEE5B3",
"2X c #D9E4BC",
"3X c #E1E5B6",
"4X c #E3E6BB",
"5X c #CFCCC5",
"6X c #DBD9C5",
"7X c #DDDBD2",
"8X c #DEE0CC",
"9X c #E4E6C3",
"0X c #E7E8C4",
"qX c #E5E6CC",
"wX c #E7E8CC",
"eX c #E5E6D4",
"rX c #E7E8D3",
"tX c #E5E6DC",
"yX c #E7E8D8",
"uX c #E6E6E5",
"iX c #E9E9E7",
"pX c #E7E8E8",
/* pixels */
"2.2.>.[ F C C :.y.H.P.l.D t | %.f.%.| & f @.;.;.9.9.r.9.,.,.",
"J.F.n.@.D C C *.3.P.@XoXa.z &.&.&.&. .O E E.^.^.).`._.).`.`.",
"i.D.L.:.F A C H 1.K.U.J.m 4 r r 5 u j O y ' ' ] ' ' ..] #.#.",
"#X#XD.=.H H C H 1.J.U.K.@.q 6 s z x c 4 v o.` o.o.o.] { ] ` ",
"S.H.k.:.*.H C A *.M.U.U.m.f 4 M M 9 c s C.E.E.^._._.!.!.!.E.",
"M.S.l.3.*.H v v H y.P.K.( K = 4 6 3 9 I ^.E.p.#.u.u.u.p.g.Z.",
"l.S.l.k.4.F u j C *.z.F.! J * 8 j 9 s R.Q.=X|.s._ _ _ ` ` ' ",
"N.S.N.l.j.=.r 2 z F :.q.P J = 5 b I W /.W.|.}.-XM.R H R D F ",
"N.S.S.N.n.w.p % 6 v C T a ; O $ , h ~ Q.|.Q.=X6X-X!.K.K.C.m.",
"l.S.H.H.N.n.Q : @ 8 8 s , O o o O h c.|.Q.Q.8XuX6X%X>X&X&X&X",
"N.S.H.H.F.V.M.Y . @ @ O = $     . $ Y T.R.W.tXuXeX!.$X}.}.}.",
"M.S.H.S.V.B.H.v.O o     # , o     o   Y C.^.uXuXyX=XW.'.}.{.",
"M.S.S.N.M.b.B.a.d         , :         O W =XiXuXtX:X{.|.W.'.",
"M.N.M.b.v.v.a.7.I O       # h #     + $.(.:XiXiXuX4XQ.W.m.G.",
"j.N.M.c.j.a.7.8...x 7 3 3 O d L   O x h.I.;XuXuXuX0XR.~ ! V.",
"j.j.v.j.w.^ s.g.b x ) ) 9 o ; h   * ..h.h.;XiXiXiX0XE.h Q G.",
"0.j.e.e.7.7.g.i.8 t M r X   0 =   o , u I 5XuXuXuX7X=Xb.C.V.",
"0.e.e.w.6.T g.@.O   $       - $   o O X I 5XuXuXpXeX:XD.C.c.",
"-.w.w.0.V p t.e o           #   X & & X E 7XuXuXuXeX3XJ.m.W ",
"-.-.0.I # e g . o         o . $ $ & O . I tXuXuXuXtX0XT.E K ",
"-.D V #   : O o o       . $ $ & & & $ . ! uXuXuXiXtXwX~./ J ",
"Q > O     O . . o   o O & & = = = & & . d.uXuXuXiXtXwX^.( / ",
"0.:     X O $ o o $ & & = - - - - = $ . T.uXuXuXuXuXrX).P K ",
"w.i     X X X X $ & = - - - - - - & $ X ~.uXuXuXuXuXyX`.K K ",
"w.N X O o o . O o & ; 0 0 0 ; - & $ O : /.pXuXuXuXuXtX=XK ; ",
"w.G u O o o . o o $ = 0 0 - = & $ $ O < 5XpXuXuXuXtXrX=Xa 3 ",
"q.R A : o o o o o o O = = & $ O O O o d =XyXtXtXuXuXtX=Xs 5 ",
"q.Q p + o o o o o O o O $ O O O O o o w W.<X4X4XqXeXtX;Xg 3 ",
":.N + e o o o o o o o o o o o     o   + v.*X>X,X4X0XeX:XI % ",
"Q :   e +         o o               o * I OX,X,X<X4XqXqXs.d ",
"Z p o : p o         o o o             @ 4 v.$X<X>X3X9XqX7X5X",
"n m e o N p . o   o o o o           o @ 1 =.].@X,X3X9XqXuXpX",
"M ` U > : H C r + + @ + O + X X o   . @ 1 b K.+X%X,X1X0XtXuX",
"` O.5.R : f :.,.T C @ + + + X     . + @ @ w S.OXOX%X1X9XqXuX",
"z S 4.p.G + R 9.>.X.y + X o   o O 3 2 2 2 v k.U.OX$X>X1XqXuX",
"6 F 3.y.y.V b [ ` ` m a w & = , t 7 7 7 j >.y.P.[.[.$X1X0XuX",
"n *.5.y.k.[ n n l c n j s L B s 7 2 7 7 m y.Q M.Y.[.@X>X2XyX",
"} >.y.z.A.>.{ { m l l k 7 9 9 9 k 7 7 7 Z +.> ^ U.[.[.$X3XrX",
"} >.5.z.z.1.5.5.>.{ ` Z M k j c Z 2 2 l { g O Q P.Y.[.$X,X0X",
"} { 1.z.y.5.1.5.2.1.+.} >.+.[ ;.F 1 1 v Z + i 4.K.[.Y.+X>X4X"
};
