/* XPM */
static char *kaikyaku09[] = {
/* columns rows colors chars-per-pixel */
"30 40 219 2 ",
"   c #1B1717",
".  c #1B1718",
"X  c #1C1919",
"o  c #201617",
"O  c #26171A",
"+  c #2A161B",
"@  c #24191A",
"#  c #2C191C",
"$  c #34171C",
"%  c #33191D",
"&  c #3A191D",
"*  c #2B211F",
"=  c #2D1920",
"-  c #331A21",
";  c #3C1A21",
":  c #342323",
">  c #3A2927",
",  c #46171F",
"<  c #44191D",
"1  c #4B191E",
"2  c #571C1F",
"3  c #441A23",
"4  c #4B1B24",
"5  c #4D1B29",
"6  c #531A23",
"7  c #5A1A22",
"8  c #541C2D",
"9  c #581D28",
"0  c #561B30",
"q  c #5A1D32",
"w  c #621C26",
"e  c #6A1B28",
"r  c #781D2F",
"t  c #41262A",
"y  c #472728",
"u  c #542226",
"i  c #54242B",
"p  c #562929",
"a  c #5A2C2B",
"s  c #44322C",
"d  c #453C2F",
"f  c #51302D",
"g  c #432434",
"h  c #5B2332",
"j  c #5B2D36",
"k  c #4B3534",
"l  c #5B3835",
"z  c #652529",
"x  c #6A2329",
"c  c #64322D",
"v  c #6B332D",
"b  c #622334",
"n  c #652C35",
"m  c #652A39",
"M  c #742734",
"N  c #6D3A33",
"B  c #6B3739",
"V  c #793834",
"C  c #5A4A38",
"Z  c #68483C",
"A  c #7F4537",
"S  c #74463C",
"D  c #7A523E",
"F  c #6A3D41",
"G  c #5B4B44",
"H  c #6B4744",
"J  c #734A44",
"K  c #794C47",
"L  c #6A5548",
"P  c #755549",
"I  c #6A595A",
"U  c #795651",
"Y  c #7C5C54",
"T  c #6C6447",
"R  c #746648",
"E  c #7B6558",
"W  c #78735E",
"Q  c #842537",
"!  c #823835",
"~  c #874639",
"^  c #834939",
"/  c #914A38",
"(  c #82513D",
")  c #8A553C",
"_  c #96513B",
"`  c #9B523B",
"'  c #A15D3F",
"]  c #893541",
"[  c #923344",
"{  c #894845",
"}  c #8B5847",
"|  c #955C44",
" . c #935552",
".. c #A24C52",
"X. c #89664B",
"o. c #946345",
"O. c #9D6343",
"+. c #9A644B",
"@. c #9C6D4B",
"#. c #86714E",
"$. c #9F714D",
"%. c #86685A",
"&. c #9A6757",
"*. c #8C7656",
"=. c #977957",
"-. c #92795A",
";. c #A36542",
":. c #A66B48",
">. c #AD724A",
",. c #B17A4F",
"<. c #A86E58",
"1. c #A57A55",
"2. c #A77758",
"3. c #846E60",
"4. c #857361",
"5. c #897662",
"6. c #8C7C65",
"7. c #8D7E69",
"8. c #977464",
"9. c #B57667",
"0. c #C1796D",
"q. c #8C8358",
"w. c #928359",
"e. c #9C875C",
"r. c #A78A5C",
"t. c #B68458",
"y. c #A0905D",
"u. c #8C8068",
"i. c #9A8260",
"p. c #9E8D65",
"a. c #92846C",
"s. c #9A9462",
"d. c #968D71",
"f. c #988F73",
"g. c #989273",
"h. c #9B9876",
"j. c #9D9C79",
"k. c #A48965",
"l. c #B88A6C",
"z. c #A69667",
"x. c #A39268",
"c. c #A39C79",
"v. c #B19574",
"b. c #9FA177",
"n. c #AAAD6C",
"m. c #B4AE6F",
"M. c #A8A678",
"N. c #B4A976",
"B. c #B1AB79",
"V. c #ADB175",
"C. c #B3BA79",
"Z. c #C19866",
"A. c #C09774",
"S. c #C6A876",
"D. c #C4B578",
"F. c #B7C67A",
"G. c #B9C77A",
"H. c #BCD17E",
"J. c #A5AA81",
"K. c #BAAE86",
"L. c #AAB485",
"P. c #ADBA88",
"I. c #B8B886",
"U. c #BDBA85",
"Y. c #BEBDA3",
"T. c #C0A781",
"R. c #C1BC8A",
"E. c #D1BA89",
"W. c #C5BE94",
"Q. c #AFC28A",
"!. c #B9C889",
"~. c #BED481",
"^. c #B6C890",
"/. c #B9D293",
"(. c #BEDA97",
"). c #C3C48B",
"_. c #C6C98E",
"`. c #D0C188",
"'. c #C3DC86",
"]. c #C5D988",
"[. c #C6C594",
"{. c #CACB97",
"}. c #D6C793",
"|. c #C1DC9C",
" X c #CCD89A",
".X c #DAD49B",
"XX c #D2DB9B",
"oX c #CDE58C",
"OX c #D4E58C",
"+X c #CDE493",
"@X c #C4E19C",
"#X c #D3E593",
"$X c #D8E796",
"%X c #D4E49A",
"&X c #DBE69C",
"*X c #C4C1A7",
"=X c #D6CCA7",
"-X c #DAD6A8",
";X c #DAD9BB",
":X c #C6E3A1",
">X c #D6E4A3",
",X c #DBE5A4",
"<X c #DCE5AA",
"1X c #DEE3BA",
"2X c #E4E6A6",
"3X c #E2E8A2",
"4X c #E2E5AC",
"5X c #E4E6B3",
"6X c #E5E6BB",
"7X c #DDE1CC",
"8X c #E5E6C3",
"9X c #E5E6CB",
"0X c #E6E8CD",
"qX c #E5E6D4",
"wX c #E6E8D7",
"eX c #E6E6DC",
"rX c #E6E6E5",
"tX c #E7E8E3",
"yX c #E8E8E6",
/* pixels */
"$XOXOXOXoXoXoXoX+X+X+X#X%X%X&X2X5X6X6X8X9XqXeXrXtXrXrXrXrXrX",
"$X#XOXoXoX'.F.C.~.+X#X#X%X&X,X2X4X5X6X8X9X9XeXtXrXrXrXrXrXrX",
"#X#X#XOXF.T s > k T V.#X%X&X,X2X4X5X6X6X8X9XqXeXtXrXrXrXrXrX",
"$X#XOXoXL O O @ @ + s c.$X&X3X2X4X5X6X6X8X9XqXqXeXrXrXrXrXrX",
"m.D.C.e.t # % # # # + s B.&X2X2X4X5X5X6X8X8X9XqXwXtXrXrXrXrX",
"/ ` / i # & 6 6 & # # - l r.S.D.`.}..X-X5X6X8X9X9XwXtXrXrXrX",
"z.k.=.t $ 7 r Q 7 # # 4 6 a / _ ' ' :.,.t.Z.Z.S.S.E.}.}.=X;X",
"+.:.@.p 1 e Q [ M 4 4 ] ] L c.I.D.v.1.1.1.,.:.:.:.:.>.,.t.t.",
"@.o.| A x e e 7 9 ] M V &.7.f.^.@X:X X{.[.[.[.[.{.W.R.K.T.v.",
"x.x.p.p.%.9 & & 7 [ Q 9 %.6.7.L.^./.@X).9.l.Z.A.T.E.}.=X=X-X",
"! ! Q ! V 4 ; w 7 e r 9 J E 4.J.P.Q./.(.m.1.:.;.;.;.;.;.>.,.",
"x.k.w.=.o.J i 7 1 , 6 3 U Y E j.L.P.!.|.|.{.[.W.R.T.N.v.k.8.",
"V ! ~ | i.K 3 ; & 7 7 4 Z j U g.h.L./.@X^.^.2.<.2.l.v.S.=X7X",
"( ( ^ ^ @.c $ ; 5 < 4 3 8 3 J 6.g.b.L.P.J.P.B.=.+.{ / ~ v.tX",
"V.V.n.n.w.c 4 y 0 ; - 3 b i E a.a.h.L.Q.h.b.^.R.U.U.U.N.M.;X",
">X].'.G.Y n h m h q 8 8 h l d.d.j.J.P.J.*.5.h.k.` | <.r.r.I.",
"m.C.'.n.S 4 4 5 5 5 5 3 5 J c.J.P.Q.P.5.s k U 6.X.^ ~ ~ ) e.",
"e.V.G.n.N & % % $ # # f  .8.7.a.j.J.b.E O $ : k L s.c.6.#.q.",
"y.F.H.e.v < $ % + % F 9.0.&.a.f.f.d.h.G O # - $ : c.wX1XF.w.",
"z. XXXw.N 1 < 3 y y  ...[ &.%.%.W u.u.> O $ - - k *XyX0X_.q.",
"m.5X-Xw.N 1 , 6 J j m e n 8.7.7.a.a.G = # # = - 7.tXeX8X_.#.",
"B.1X X*.N 6 1 4 H j 5 ; H 7.7.5.%.I : o @ # O d *XrXwX5X{.X.",
"C.<X[.X.N 6 3 4 f l ; t E %.Y U F > . X X X X W eXtX9X4XXX*.",
"!.<X_.X.N 6 < - - B t L 3.Y U m y % . @ X   > Y.yXtX6X4X&Xs.",
"U.%X).1.} K p # = g G Y J F q 5 y p & + X   W wXrXeX6X<X,Xz.",
"-.w.=.<.A.A.<.S k I 3.U F m 5 = # u 7 1 @ > Y.yXtXqX<X<X,XI.",
"P N } <.<.A.A.9.8.E U F b 5 = X @ @ 1 7 < *.qXrXeX8X<X<X>X_.",
"C % a ~ / | A.l.%.H j h ; o . . @ X # 1 f *XtXtXqX8X4X,X>XXX",
"C   @ & 3 u A  .B m q - @ X X X @ @ X X L 1XtXeX0X6X4X>X>X%X",
"C X X X . O < 4 8 q q 8 ; @ X X X @ # $ P XX1X8X6X5X<X>X>X,X",
"C O O O @ O & , 3 5 8 q 0 3 % # @ % < 3 H ].%X<X5X5X<X,X<X>X",
"D 1 < < # O < & # ; 4 0 q h 0 5 ; 3 3 3 p V.#X&X4X4X2X>X<X<X",
"D z z z 1 @ & %   o & < 1 u i 8 5 ; 3 3 3 q.].%X4X5X4X>X<X<X",
"D z w 2 < # O # X     * & < 4 5 5 3 ; - @ R ~.+X,X4X4X4X<X<X",
"S u 2 1 & # @ O X   X X X % % ; 3 ; # X X C G.'.%X4X4X4X<X<X",
"> a V v v c a u * o X X X X # # # @ X X X d C.'.XX,X4X<X<X,X",
"X y ) ) A A D ^ f X X X X X X @ @ X X X   > n.H.'.,X<X4X<X X",
"o : o.O.) ) ) ) c X X X X @ # = @ X X X   * s.H.'.%X,X4X<X X",
"y @ D @.o.o.o.) S # X X X X # = # X X X X @ q.H.~.+X,X5X5X9X",
"D O C :.O.@.$.o.^ < X X X X @ = @ X X X @ * R F.~.oX>X4X5XqX"
};
