/* XPM */
static char *kaikyaku10[] = {
/* columns rows colors chars-per-pixel */
"30 40 207 2 ",
"   c #1C1617",
".  c #1C1919",
"X  c #251619",
"o  c #2C171B",
"O  c #23191A",
"+  c #2B191C",
"@  c #32191D",
"#  c #3B1A1D",
"$  c #31201F",
"%  c #2E1921",
"&  c #331A23",
"*  c #3D1A22",
"=  c #341A2C",
"-  c #2F2421",
";  c #3D2325",
":  c #382425",
">  c #3A352A",
",  c #44191D",
"<  c #431B23",
"1  c #4B1C24",
"2  c #4D1B2A",
"3  c #531B23",
"4  c #5B1A24",
"5  c #591D2A",
"6  c #5C1E30",
"7  c #621A25",
"8  c #691A26",
"9  c #721B2A",
"0  c #7B1B2D",
"q  c #48262B",
"w  c #542528",
"e  c #5B222C",
"r  c #46342D",
"t  c #57382D",
"y  c #492A30",
"u  c #582B35",
"i  c #5A3937",
"p  c #65262D",
"a  c #66332D",
"s  c #7E342F",
"d  c #622532",
"f  c #692B35",
"g  c #722934",
"h  c #63333B",
"j  c #693A3A",
"k  c #7A3635",
"l  c #743A32",
"z  c #773838",
"x  c #5C4535",
"c  c #694535",
"v  c #73433B",
"b  c #764538",
"n  c #784C3D",
"m  c #7C523E",
"M  c #653E44",
"N  c #753B41",
"B  c #5F5247",
"V  c #6C4644",
"C  c #744B46",
"Z  c #6A564A",
"A  c #775549",
"S  c #6B5B58",
"D  c #795A54",
"F  c #696048",
"G  c #776A4A",
"H  c #7D6258",
"J  c #767257",
"K  c #853732",
"L  c #854D3D",
"P  c #924A3B",
"I  c #86543D",
"U  c #93523C",
"Y  c #97543C",
"T  c #853B43",
"R  c #8C4846",
"E  c #914749",
"W  c #865746",
"Q  c #9D5B40",
"!  c #965649",
"~  c #925451",
"^  c #A65854",
"/  c #886849",
"(  c #956644",
")  c #936948",
"_  c #9A6948",
"`  c #88724E",
"'  c #9E724E",
"]  c #836356",
"[  c #856A5C",
"{  c #9F685A",
"}  c #847858",
"|  c #977855",
" . c #A66847",
".. c #A36B4A",
"X. c #AD7246",
"o. c #A5744D",
"O. c #AD784C",
"+. c #B17A4C",
"@. c #A46755",
"#. c #A87957",
"$. c #B17C54",
"%. c #896F61",
"&. c #8B7563",
"*. c #887864",
"=. c #987F6A",
"-. c #8D7F75",
";. c #AA7362",
":. c #B37664",
">. c #8B835B",
",. c #968558",
"<. c #9A8C5C",
"1. c #9E925E",
"2. c #A9845A",
"3. c #B28A56",
"4. c #B88758",
"5. c #A6965E",
"6. c #8D8767",
"7. c #968866",
"8. c #93846C",
"9. c #938A6D",
"0. c #9B9465",
"q. c #978A70",
"w. c #998E72",
"e. c #979573",
"r. c #9B9374",
"t. c #9E9978",
"y. c #A98964",
"u. c #B78867",
"i. c #A89766",
"p. c #A29A63",
"a. c #B79268",
"s. c #A99B73",
"d. c #A09F7B",
"f. c #B89B74",
"g. c #ACA566",
"h. c #A7A56A",
"j. c #ACAB69",
"k. c #B2A56D",
"l. c #B0AA6B",
"z. c #B1B26D",
"x. c #A4A578",
"c. c #A3A37D",
"v. c #B7A878",
"b. c #B5B778",
"n. c #BAB47C",
"m. c #C1955B",
"M. c #C1916B",
"N. c #C59574",
"B. c #C6A877",
"V. c #BAC57A",
"C. c #A7AC82",
"Z. c #A8AC82",
"A. c #BBAD84",
"S. c #AAB384",
"D. c #AEBB8A",
"F. c #B9B886",
"G. c #B2ACA6",
"H. c #B4B0A8",
"J. c #C7B78A",
"K. c #CCB38E",
"L. c #D9B889",
"P. c #C6B995",
"I. c #B2C28B",
"U. c #BAC78B",
"Y. c #B5C790",
"T. c #B9CC91",
"R. c #BCD395",
"E. c #BFD897",
"W. c #C3C888",
"Q. c #C6D287",
"!. c #C7DC85",
"~. c #CBDC8A",
"^. c #C9C393",
"/. c #C9C596",
"(. c #CED49B",
"). c #D2DD94",
"_. c #CCE28C",
"`. c #C6E09F",
"'. c #D3E395",
"]. c #D7E399",
"[. c #DDE59B",
"{. c #E0E59E",
"}. c #DACAA5",
"|. c #D1CEA8",
" X c #CBDAA3",
".X c #D7D8A8",
"XX c #DCDAB5",
"oX c #E0DEA9",
"OX c #E1DDBC",
"+X c #CAE1A2",
"@X c #D4E4A7",
"#X c #DDE4A4",
"$X c #DEE4AB",
"%X c #DDE4B6",
"&X c #E2E4A3",
"*X c #E4E8A7",
"=X c #E3E6AC",
"-X c #E4E6B3",
";X c #E5E6BC",
":X c #D7D7C5",
">X c #E0DFDB",
",X c #E5E6C4",
"<X c #E5E6CC",
"1X c #E5E5D4",
"2X c #E5E6DC",
"3X c #E6E6E5",
"4X c #E9E9E8",
/* pixels */
"=X&X{.{.{.{.[.[.[.).).[.*X=X=X-X-X;X,X<X1X2X4X3X3X3X3X3X3X3X",
"=X&X{.&X{.{.{.'.7.B Z >.F.#X=X-X-X;X,X<X<X2X3X4X3X3X3X3X3X3X",
"=X&X&X{.[.{.{.p.q X + + q 7.#X=X-X;X,X<X<X<X2X4X3X3X3X3X3X3X",
"&X{.{.{.[.[.7.q & & + % & = 6..X-X;X,X,X<X<X2X4X3X3X3X3X3X3X",
"$.4.4.4.a.| ; @ @ & & & & + ; d.=XoX-X-X,X,X<X2X3X4X3X2X3X3X",
"o.o.o.o. .a + + + + + X O X X w  .$.4.u.M.N.B.J.K.L.}.}.XXXX",
"v.v.v.F.n./ , # , # O O O O X @ L o.o.O.3.+.3.O.X.+.+.m.m.m.",
"Q Q  . .o.Q K 8 9 7 @ O O O o o } /././.^.^.P.J.P.P.G.K.A.f.",
"A.v.k.i.2.2.R K 0 9 , X O @ , X J B.$.u.a.N.B.K.L.}.}.XXOXOX",
"o.@.#.2.y.i.W 5 7 8 , @ @ 4 4 r x.(.a.2.4.O.O.X. .X.X.O.$.m.",
"2.#._ ! U P @.A 3 , 8 8 # 9 g 6.E.@X@X.X/././.P.F.A.f.s.y.y.",
";.y.i.f.x.n.A.8.9 4 0 9 # w [ Z.R.`.@X-X/.a.u.u.N.A.K.K./.|.",
"l K K K Y k.W W C 5 4 8 , w 8.Z.Y.R.E.`.+XW.#.....Y Y Y ! a.",
"/ 1.5.5.i.i.C j h e 4 < , Z d.D.R.T.T.E.`.+X X/.^.^.J.A.f.v.",
"x. X'._.!.,.z h 6 2 2 < i 8.x.S.I.T.T.T.Y.E. Xa.X.$.4.a.B.B.",
"XX.XQ.'.Q.) u f d 6 @ < h &.d.C.Z.S.x.S.Y.R.R.v.( W U U Y ( ",
"Q.z.b._.V./ e g R T w + u %.r.c.Z.Z.c.t.S.D.I.Y.b.h.0.i.| ` ",
"z.g.V._.z.W z @.@.^ N & w [ r.d.d.c.e.w.d.c.e.D.+X@X@X>X:XU.",
"z.g.W.'.h.A f E ^ M.N.j < ] 8.w.r.c.S.D.t.%.9.9.Y..X1X4X2X=X",
"l.l..X%Xi.n e f :.L.L.{ 1 C 8.q.r.C.S.9.i i j Z e. X3X3X<X=X",
"g.l.OX.Xp.v 5 3 ;.L.L.:.e V %.8.q.r.8.Z % & * u %.:X4X3X,X=X",
"g.k.,X.X<.v 5 5 E :.:.E e C *.-.8.w.C.Z @ & @ @ -.2X3X2X;X-X",
"g.n.;X|.<.v p T E g d 6 < V ] %.8.d.8.; o % @ * G.4X3X1X-X=X",
"g.b.;X|.<.z g E ~ N u * & C &.&.8.w.Z + X o @ S >X3X4X<X-X-X",
"g.l.(.^.,.v p T R S D M u V q.t.w.*.i X O o : G.4X3X3X;X-X=X",
"j.p.<.,.` n 2 u M %.=.%.H H ] [ %.D y O O X S >X3X3X1X-X-X-X",
"j.,.x x A c & = = ] N.y.*.[ &.%.] Z ; O O - H.4X3X3X1X;X-X=X",
"j.,.+ . . O . X % V :.;.D D D [ D M % . . B 1X3X3X3X,X;X-X-X",
"j.,.$   . . O O - N @.u.W f j N M q @ X   J %X,X2X1X,X;X-X-X",
"j.1.: O O O O O . t ~ ! ! z 1 q 1 o O X O F ].*X;X,X;X-X-X-X",
"j.0.t , # + O O .   @ w K ! t X   . . O + r W.&X=X;X;X;X-X-X",
"j.h.m p a w + O .       * k z * O . . O X & h.[.*X;X;X;X;X;X",
"h.p.G b b b # . . . . . . @ , , * & O O + + >._.&X-X;X;X;X;X",
"1.1.W b b s 3 . . . . . . . + # < < * + + o F !.'.=X;X,X;X;X",
"5.` t U I L l ; . . . . O . . + # < < < @ o x Q.'.*X-X;X;X;X",
",.r - I ( ( ( c . O + + O O . . O @ * # @ X > V.~.].=X;X;X;X",
"m $ O b ( ( _ c O + + $ O O O . . . @ @ X O - j.~.'.$X-X;X;X",
"L w O t _ _ ' m + O O O O O . . . . . . O + - 1._._.#X-X;X;X",
"P I ; ; ) ' 2.( $ . O O O O O . . . . O + * * >.!._.].-X;X,X",
"_ o.c + G 3.5./ + . O . . O . . . . . + & * < G !.!.'.$X;X,X"
};
