/* XPM */
static char *kaikyaku14[] = {
/* columns rows colors chars-per-pixel */
"30 40 216 2 ",
"   c #1E1617",
".  c #1B1719",
"X  c #1C1919",
"o  c #241719",
"O  c #29171C",
"+  c #23191A",
"@  c #2B191C",
"#  c #31171D",
"$  c #34191D",
"%  c #3B1A1D",
"&  c #2D1A21",
"*  c #341A23",
"=  c #3C1B22",
"-  c #3D1E2D",
";  c #342321",
":  c #3D2121",
">  c #362D26",
",  c #392828",
"<  c #43191D",
"1  c #4B191E",
"2  c #53191E",
"3  c #441A22",
"4  c #4B1C23",
"5  c #411D2B",
"6  c #4D1C2A",
"7  c #531B23",
"8  c #531C2A",
"9  c #5C1D2A",
"0  c #5D1D30",
"q  c #631A23",
"w  c #6B1C27",
"e  c #781A2A",
"r  c #611F33",
"t  c #791E31",
"y  c #442225",
"u  c #48272A",
"i  c #572629",
"p  c #52212C",
"a  c #4A352C",
"s  c #53362C",
"d  c #452635",
"f  c #5B2432",
"g  c #552833",
"h  c #5C2B34",
"j  c #5E2E39",
"k  c #543737",
"l  c #652929",
"z  c #65312D",
"x  c #642936",
"c  c #722934",
"v  c #653938",
"b  c #753636",
"n  c #5A4637",
"m  c #674238",
"M  c #764539",
"N  c #6E573E",
"B  c #74523C",
"V  c #7B533E",
"C  c #523141",
"Z  c #643C41",
"A  c #683E43",
"S  c #5A5242",
"D  c #6A4345",
"F  c #6B4C46",
"G  c #694948",
"H  c #774C48",
"J  c #635545",
"K  c #74524B",
"L  c #7A5A53",
"P  c #76644A",
"I  c #7A6256",
"U  c #7E7959",
"Y  c #853739",
"T  c #8A463B",
"R  c #944335",
"E  c #944B3A",
"W  c #994A38",
"Q  c #83553E",
"!  c #9C533B",
"~  c #96583E",
"^  c #A25B3D",
"/  c #8D3F44",
"(  c #874F4B",
")  c #98474D",
"_  c #875844",
"`  c #8A5B42",
"'  c #925D41",
"]  c #9D5B41",
"[  c #985845",
"{  c #965A55",
"}  c #A15D43",
"|  c #A65857",
" . c #89674A",
".. c #936343",
"X. c #996649",
"o. c #966B4B",
"O. c #9B6B4A",
"+. c #9C744E",
"@. c #9B7B4F",
"#. c #856356",
"$. c #816B5B",
"%. c #936C54",
"&. c #857158",
"*. c #9D7351",
"=. c #917D57",
"-. c #9E7A52",
";. c #A46444",
":. c #A86B49",
">. c #A3734B",
",. c #A9784E",
"<. c #B3774A",
"1. c #A6645D",
"2. c #A07651",
"3. c #A57656",
"4. c #856E60",
"5. c #867362",
"6. c #887463",
"7. c #8A7C65",
"8. c #997762",
"9. c #927E71",
"0. c #AA6D60",
"q. c #B26661",
"w. c #B66D65",
"e. c #B77568",
"r. c #C07B6D",
"t. c #9D8456",
"y. c #968459",
"u. c #99855B",
"i. c #968B5D",
"p. c #9B8C5D",
"a. c #9F935F",
"s. c #A48255",
"d. c #A78A5B",
"f. c #BB8A56",
"g. c #B98858",
"h. c #A3925F",
"j. c #AB915D",
"k. c #8F866A",
"l. c #978B64",
"z. c #938B6C",
"x. c #9B9265",
"c. c #9C9A6A",
"v. c #928470",
"b. c #9A9776",
"n. c #A98965",
"m. c #B48768",
"M. c #A29461",
"N. c #AE9465",
"B. c #A49B64",
"V. c #AA9867",
"C. c #A29E6A",
"Z. c #B29668",
"A. c #B89570",
"S. c #9FA479",
"D. c #ABA466",
"F. c #A6A368",
"G. c #A5A36B",
"H. c #A9A569",
"J. c #ACAC6C",
"K. c #B7A366",
"L. c #B0AF6C",
"P. c #AEB26F",
"I. c #B1B26F",
"U. c #A4A573",
"Y. c #AAAB72",
"T. c #B6AB7B",
"R. c #AEB372",
"E. c #ADB678",
"W. c #B2B572",
"Q. c #B2BB76",
"!. c #BBB27E",
"~. c #B3BD79",
"^. c #C88F71",
"/. c #CC9579",
"(. c #CBA274",
"). c #CFA37D",
"_. c #B5C37B",
"`. c #B9C77D",
"'. c #A79B88",
"]. c #B3AB82",
"[. c #AAB984",
"{. c #BCB582",
"}. c #B8B684",
"|. c #BDB797",
" X c #C2AE8F",
".X c #BAC886",
"XX c #BCD693",
"oX c #C1C587",
"OX c #C7D988",
"+X c #C5C897",
"@X c #C6D596",
"#X c #D5DB9C",
"$X c #C7E18A",
"%X c #C9E28B",
"&X c #CEE394",
"*X c #D2E394",
"=X c #D5E49D",
"-X c #CCCFA3",
";X c #C9C9A7",
":X c #CDD6A7",
">X c #D3D7AC",
",X c #C9C6B7",
"<X c #D9DCB2",
"1X c #DAE5A3",
"2X c #DCE5A7",
"3X c #DFE1BD",
"4X c #E1E6AC",
"5X c #E3E6B3",
"6X c #E5E6BC",
"7X c #D8D6CD",
"8X c #E5E6C2",
"9X c #E5E6CA",
"0X c #E3E4D5",
"qX c #E5E6DC",
"wX c #E6E6E5",
"eX c #E7E8E7",
/* pixels */
",.:.;.;.^ ^ ^ ! ! ! R R R R E W T b b T ] :.<.<.g.<.<.<.f.f.",
">.>.>.>.2.2.+.*.3.3.+.*.*.+.*._ y $ * - u x H s.N.s.d.N.m.N.",
" X!.!.!.{.!.!.!.{.~.!.{.{.|.T.k & + & & # * d v.-X>X<X3X3X5X",
"^ ! ] } ] ;.;.~ ~ ! E T W E g & & & + O * * * d _ g.^.f.^.(.",
"Z.Z.V.N.d.u.3.-.-.*.o.X.O.V * * & & & & @ @ @ & y ..,.>.>.>.",
"A.A.N.n.n.V.].:X>X@X}.T..XJ # $ & & & O O O + X @ b.-X+X@X.X",
"O.] E X.m. X:X:X@X.X%.X.S.u O + O & O & * O + X + K m.m.m.A.",
"!.T.Y.!.@XoX`._._._.M.z.k.u @ O   + + O O + X X X m >.X.[ [ ",
"b Y +.p.F.R.Q._._._.B.l.I h % + + + o o + X X X + z.-X+X+X+X",
"i M y.p.J.R.Q._._.R.u.6.F x q % @ @ O o + X X X > [.oXs.g.m.",
"7.|.>XJ.J.P.Q._.`._.l.I Z f t w q 1 1 < @ + X o S XXXX=.E ~ ",
"6X<XoXH.H.R.R.Q._..Xc.K j 4 9 e e e w q % + @ $ U XXXX.Xx.|.",
"OXW.B.h.F.J.R.E.~._.c.K g 6 3 7 q q q 2 $ + % y U .X.XXX:XqX",
"W.H.M.M.G.F.Y.E.E.E.7.H h = 3 w 7 1 i 2 < O $ u k.'.[.XX0XwX",
"J.D.M.p.F.G.Y.Y.E.U.4.K j 3 = 9 q 7 1 2 4 * * J k.[.[.:XwXwX",
"H.D.M.d.C.G.G.U.U.U.5.D h = - * < i i i z 5 g I k.b.[.0XwXeX",
"J.D.M.p.C.G.C.F.G.7.K x 6 * d ; O = 6 8 4 6 G 5.v.k.;XwXwXwX",
"J.D.d.y.c.C.c.x.x.7.7.I Z * - * o O 3 6 8 j D K G 9.0XeXwX0X",
"J.D.M.u.x.x.x.x.z.z.b.v.G * * + + + % 6 f x Z A L ,XeXwXwX9X",
"J.D.M.y.p.x.l.u.5.L b.5.L y + + O + + = 8 g D L '.wXeXeXwX8X",
"L.D.j.p.u.x.l.&.C C 7.7.I C & + O + X @ @ k A L 7XwXwXwX0X8X",
"L.D.D.t.=.p.&.a * d I 4.6.I u X O O + + O Z G '.0XwXwXwX9X8X",
"L.J.H.u. .P , O & - Z #.6.5.G & + + O + & F L ].6X8X0X0X9X6X",
"L.L.J.i.n , . . * u 6 L 5.6.6.L s ; @ + , { 1.T.2X2X8X9X8X6X",
"W.L.L.i.; X + y v 0 * k I 4.4.{ ) { H A 0.e.q.n.#X4X5X8X8X6X",
"L.W.J.F.> X @ g x r 8 = Z #.{ q.q.| q.r./.e.0.8.oX1X5X8X8X8X",
"W.I.I.J.n   y l r r f f g A | w.w.q.e.r.q.| w.8.I.=X5X6X8X8X",
"W.L.L.J.P : u l 7 8 9 q c ( w././.e.) ) / | { H n.OX=X5X8X8X",
"W.P.J.F.p.B ; l l 2 2 7 c 3.).).e.) c c Y ) c 0  .OX=X4X6X8X",
"W.P.F.h.u.Q : i w 2 < $ 4 b ^.).w.b < < 2 y 3 3 n OX*X=X5X6X",
"J.J.F.i.n i 7 = 7 1 % X . = b { Y 2 O o X + @ @ , E.*X=X5X5X",
"J.F.a.N + s ..Q M l i O . . + y 1 O . o X X + + + c.&X*X2X6X",
"F.F.y.B o ; ..O.' ' ..> X X X X + X X X X X X + O U $X%X1X3X",
"C.a.....n + B +.O.O...: X X X X X X X X X + + + $ P %X%X=X5X",
"F.@.~ O. .; a t.s.s.>.a X X X X X X X X X + $ @ 3 J OX%X&X1X",
"d.@.+.-.s.m @  .D.K.j.n X X X X X X X X X X @ $ = v `.OX%X1X",
"z M Q O.@.Q : n j.K.K.n X X + % % # o X   * u % $ a Q.$X$X&X",
"2 2 l Q @.@.V :  .-.s.B   X u M z i < o . , x u # 4 J.$X$X&X",
"2 2 M @.s.t.t.B Q ....V , > S M M M z 3 = g Z v i M P.$X$X%X",
"2 l ..f.N.j.t...` ....` I I $.M b _ _ z 7 6 v P ~ o.J.$X$X$X"
};
