/* XPM */
static char *kaikyaku29[] = {
/* columns rows colors chars-per-pixel */
"30 40 219 2 ",
"   c #191717",
".  c #1B1718",
"X  c #1C1919",
"o  c #231618",
"O  c #23191A",
"+  c #2B1A1D",
"@  c #34171C",
"#  c #341A1E",
"$  c #3B191D",
"%  c #231B21",
"&  c #2D1A22",
"*  c #301720",
"=  c #331A24",
"-  c #3B1B23",
";  c #361A28",
":  c #3A1A2C",
">  c #3F1A30",
",  c #2C2428",
"<  c #322323",
"1  c #332B25",
"2  c #3A2629",
"3  c #2D2936",
"4  c #3C2738",
"5  c #383332",
"6  c #40191E",
"7  c #431C23",
"8  c #4B1B23",
"9  c #471D29",
"0  c #521C24",
"q  c #531D29",
"w  c #441C34",
"e  c #452226",
"r  c #4C2927",
"t  c #45242A",
"y  c #422B2C",
"u  c #4C2C2C",
"i  c #55272A",
"p  c #54242E",
"a  c #47342D",
"s  c #57332E",
"d  c #442F32",
"f  c #4C2830",
"g  c #5A2933",
"h  c #453232",
"j  c #4B3A37",
"k  c #553233",
"l  c #5E3331",
"z  c #57393A",
"x  c #62222D",
"c  c #642C2D",
"v  c #652832",
"b  c #762834",
"n  c #643435",
"m  c #6A3C36",
"M  c #663A39",
"N  c #74343D",
"B  c #763939",
"V  c #4C4535",
"C  c #5A4837",
"Z  c #624137",
"A  c #6C433B",
"S  c #72453C",
"D  c #74493B",
"F  c #60503F",
"G  c #77523F",
"H  c #3C2C41",
"J  c #383A43",
"K  c #463A49",
"L  c #573B48",
"P  c #683D43",
"I  c #334455",
"U  c #594443",
"Y  c #5E5645",
"T  c #4A4957",
"R  c #4A5356",
"E  c #644243",
"W  c #6D4547",
"Q  c #674A48",
"!  c #784845",
"~  c #6E554A",
"^  c #765442",
"/  c #7C5B44",
"(  c #785A49",
")  c #6E5251",
"_  c #7A5952",
"`  c #76634E",
"'  c #7D6349",
"]  c #7D6557",
"[  c #7B7658",
"{  c #585464",
"}  c #636B71",
"|  c #727473",
" . c #81393D",
".. c #834234",
"X. c #8A4939",
"o. c #8C4D3C",
"O. c #904F39",
"+. c #8D553C",
"@. c #8F3C46",
"#. c #834D42",
"$. c #884A48",
"%. c #964A49",
"&. c #875847",
"*. c #895B44",
"=. c #975849",
"-. c #825A52",
";. c #915F53",
":. c #9B5C53",
">. c #A95358",
",. c #A65D59",
"<. c #826449",
"1. c #876749",
"2. c #8D634B",
"3. c #836B4E",
"4. c #906146",
"5. c #93654A",
"6. c #936B4B",
"7. c #876954",
"8. c #966853",
"9. c #8A7453",
"0. c #897657",
"q. c #957552",
"w. c #9A7D55",
"e. c #A2684D",
"r. c #A5695B",
"t. c #A97555",
"y. c #8A7666",
"u. c #977D65",
"i. c #A87763",
"p. c #B87768",
"a. c #C67D72",
"s. c #92855B",
"d. c #9A8759",
"f. c #948A5E",
"g. c #9D915D",
"h. c #A2885A",
"j. c #B4855F",
"k. c #A2945F",
"l. c #88826B",
"z. c #978969",
"x. c #979062",
"c. c #9A9363",
"v. c #9C9966",
"b. c #9E9B69",
"n. c #898677",
"m. c #97887A",
"M. c #9B9979",
"N. c #A38A6A",
"B. c #B68866",
"V. c #A59463",
"C. c #A49C64",
"Z. c #A99D63",
"A. c #A19F6B",
"S. c #AD986E",
"D. c #BA946A",
"F. c #A69779",
"G. c #B59277",
"H. c #A7A467",
"J. c #A3A26C",
"K. c #A9A66A",
"L. c #A6AA6E",
"P. c #A7A874",
"I. c #B1A974",
"U. c #AFB979",
"Y. c #B2B57A",
"T. c #B4BE79",
"R. c #CB8B76",
"E. c #C89D77",
"W. c #CDA37A",
"Q. c #B4C37B",
"!. c #BACD7F",
"~. c #A6A985",
"^. c #B0A782",
"/. c #A9B78A",
"(. c #B9B389",
"). c #B9B888",
"_. c #B9AB92",
"`. c #BAB698",
"'. c #D1A681",
"]. c #C1B996",
"[. c #C0BA9D",
"{. c #C2B7A8",
"}. c #B6C384",
"|. c #BAC582",
" X c #BACB82",
".X c #BECA88",
"XX c #BDD088",
"oX c #BBC595",
"OX c #BCD99E",
"+X c #C1CE88",
"@X c #C1D68A",
"#X c #C2C59B",
"$X c #C8D995",
"%X c #CCDD9A",
"&X c #D3DD9F",
"*X c #C9E396",
"=X c #CAE497",
"-X c #D4E49D",
";X c #C7C7A4",
":X c #CBD7A7",
">X c #D3D8A7",
",X c #CCCDB3",
"<X c #CDD9B5",
"1X c #C6E2A7",
"2X c #D5E2A4",
"3X c #D5E3AB",
"4X c #DBE5AB",
"5X c #DDE5B9",
"6X c #E1E5B9",
"7X c #D6D4C7",
"8X c #DEDFD6",
"9X c #DDE3C5",
"0X c #DCE0D1",
"qX c #E4E6C3",
"wX c #E2E5CB",
"eX c #E4E5D2",
"rX c #E4E5DB",
"tX c #E6E6E5",
"yX c #E7E8E6",
/* pixels */
"h.w.w.w.w.q.&.g.H.0.7.! t P 9.9.6.' -.2.8.8.5.5.;.*.=.4.+.i ",
"S.I.].>X:X`.9.<.F h z._ q P =.9.~ d y._.].].`.[.[.].].].m.+ ",
"G.].#X}.U.P.( 2 3 K b i x @.v w 3 J u X.%.O.=.=.=.8.e.r.*.1 ",
"I.F.v.c.b.b.0.K I T S s 8 8 - 3 J R z X.+.X.O.O.%.X.X.X.O.9.",
"s.f.f.v.J.v.0.R 3 3 ` ` 8 6 - 3 J 3 j F.F.^.Y.].`.).(.I.P.J.",
"s.f.c.b.A.c.5   X   e c p 7 o O X % 2 $.=.=.=.e.t.t.j.j.D.V.",
"s.f.c.v.b.c.C X X O d E q $ o X O O 1 2.o.D  . ...X.O.O.X.w.",
"s.f.g.v.v.H.[ O X O 2 z E 9 = X X O 5 /.F.9.9.d.9.1.<.<.G s.",
"s.f.f.c.x.J.L.1 X O X C ) L - X X X , M.1XoX,X8X;X).T.J.P.L.",
"f.f.c.f.3.x.Q.V   X X j ) W M o X O % [ OX1X9XtXrX5X2X=X-X X",
"f.x.x.9.D [ Q.Q X X O 1 ) W u.h X X O Y /.OX5XtXyX9X-X*X*XQ.",
"x.x.f.' A G A.C X X X X U P u.j X X X 5 l.oX<XyXyXwX*X*X*XU.",
"c.c.f./ A m ( u %   X X 5 P 7.t X X X 1 Q ~.<XyXtXrX*X@XXXL.",
"c.c.0.^ m c g f %     X , P W y   X X O U P.<XrXtXtX1XXX!.v.",
"v.c.3.D n c Q W h k M y O j k u X & < + U (.>XrXtXtX<X}.Q.g.",
"f.f.^ A g g ( ~ i.'.p.%.& 2 L L O ! r.i.G.(.#XrXtXyX9XQ.L.s.",
"f.9.A n g p ) -.,.p.p.:.* X , % < b %.a.R.N.`.8XtXtXrX).v.9.",
"f.' A n q 9 t f p  .@.B + X X X 2 $.>.>.>.-.~.8XtXtXtX`.s.3.",
"f.G M i * 9 > % 9 @ 2 7 + O 7 + o t n N P ! y.0XtXtXtX7X0.' ",
"f.A i # o : L T H % + & O + b 7 % & % l -.-.y.0XtXtXtX7X] ' ",
"f.l + X % K } } K & & + O + v - * & ; W -.-.n.8XtXtXyX8X] ^ ",
"f., X X 4 { } } > = = O X = x e % = : P ! ! | 7XtXtXtXtX~.P ",
"v.1 X O K { { K : ; & o X - v 9 = ; ; g P P P 7XyXtXtXyX{.! ",
"L.V o e P ) L : = = = O X 7 q * ; : ; - 9 q z [.wXeXrXtX7Xy.",
"L.` i  .=.8.$.p - * * o X 9 9 * ; : = + + 7 t b.>X4X6XqXwX^.",
"J.s.o.j.D.D.E.p.P 9 & . O + + = : : = + o $ $ [ %X-X2X6XwX;X",
"v.7.! B.D.E.W.E.=.9 + X o * & ; : : * O + $ + j Y.-X4X4X6X7X",
"f.A i #.B.p.B.B.r.k + X O % = ; ; ; & o o $ + d V.).&X4X6XqX",
"3.p 7 $ 7.:.8.,.r.%.f O % & : > : ; o O o # * Q Z.T.+X>X6XqX",
"A 8 6 o u ! n $.P $.p + & ; > w w = o X O y z ` C.I.+X%X4XqX",
"l 7 $ @ O n t k n p w & = : > w > & O X   d l.z.C.I.+X.X>X6X",
"m 7 @ + O * 7 + 7 ; & & & : : : ; & O X X + Y 0.C.K.|.XX$X4X",
"5.o.s # o O O O O + + O + 2 : ; + + X X X # 6 D k.H.!.@XoX3X",
"h.h.2.Z O o O O O O O O O + = & + O X X X + $ a k.Z.U.XX@X%X",
"&.h.q.q.V o O o o X X X X O O O O X X X O s r 1 k.H.U.!.XX$X",
"m 2.1.q.1.< O o X X X X O O O O O X X X V q.s 1 h.k.H.!..X@X",
"*.q.w.w.6.e o o O X O X X X X X X X   O G ' O a k.Z.H.!.!. X",
"6.w.N.Z.q.c $ o O O O O O O O X X   o r *.a + G k.Z.Z.Q.!. X",
"6.w.V.V.q.D i 6 # + + o + O o O . o @ m Z + Z 5.k.Z.H.Q.!. X",
"+.6.h.h.d.+.B 0 0 6 $ # # 7 - = @ @ $ A r # S *.h.k.Z.Q. X!."
};
