/* XPM */
static char *kaikyaku25[] = {
/* columns rows colors chars-per-pixel */
"30 40 219 2 ",
"   c #241619",
".  c #29171C",
"X  c #25191B",
"o  c #2A191D",
"O  c #331A1D",
"+  c #3A191E",
"@  c #2E1722",
"#  c #2D1922",
"$  c #331A24",
"%  c #3B1B23",
"&  c #371729",
"*  c #361929",
"=  c #3B1A2C",
"-  c #3E1A31",
";  c #382526",
":  c #3C232A",
">  c #382B2E",
",  c #43191F",
"<  c #531A1F",
"1  c #441A23",
"2  c #4D1A24",
"3  c #431A2A",
"4  c #4B1C28",
"5  c #531A24",
"6  c #5C1A25",
"7  c #521F2D",
"8  c #421B33",
"9  c #4B1C37",
"0  c #631B27",
"q  c #452626",
"w  c #442329",
"e  c #4B242C",
"r  c #4C2D2A",
"t  c #57272A",
"y  c #5B242B",
"u  c #47322C",
"i  c #472735",
"p  c #4A2A33",
"a  c #572434",
"s  c #522D34",
"d  c #5A2A39",
"f  c #4A3537",
"g  c #573635",
"h  c #55363A",
"j  c #65222B",
"k  c #6D292D",
"l  c #682A32",
"z  c #702931",
"x  c #63343D",
"c  c #673838",
"v  c #783839",
"b  c #5A443B",
"n  c #6A483C",
"m  c #734B3C",
"M  c #7A493B",
"N  c #6B503B",
"B  c #78523F",
"V  c #3B3A41",
"C  c #453743",
"Z  c #593941",
"A  c #673C41",
"S  c #753642",
"D  c #3A4855",
"F  c #48484E",
"G  c #564945",
"H  c #56585D",
"J  c #674446",
"K  c #694442",
"L  c #784846",
"P  c #6B554B",
"I  c #785549",
"U  c #714F52",
"Y  c #7A5A53",
"T  c #696459",
"R  c #736755",
"E  c #796954",
"W  c #4E5F65",
"Q  c #756A65",
"!  c #7F7966",
"~  c #883831",
"^  c #904A37",
"/  c #87563F",
"(  c #98593D",
")  c #A2593F",
"_  c #A7603F",
"`  c #873D45",
"'  c #8D464B",
"]  c #98494C",
"[  c #855645",
"{  c #855B43",
"}  c #995842",
"|  c #9F4A52",
" . c #845A52",
".. c #965654",
"X. c #866748",
"o. c #986647",
"O. c #8A734E",
"+. c #97734D",
"@. c #836557",
"#. c #956558",
"$. c #897656",
"%. c #987755",
"&. c #A86846",
"*. c #A96C4C",
"=. c #AA784B",
"-. c #B37649",
";. c #AA7D57",
":. c #867661",
">. c #8C7561",
",. c #957B66",
"<. c #907F73",
"1. c #B56E63",
"2. c #A97665",
"3. c #B8776A",
"4. c #8D855D",
"5. c #988357",
"6. c #A38357",
"7. c #A98457",
"8. c #AB8B5A",
"9. c #A8925E",
"0. c #B3935C",
"q. c #988A64",
"w. c #9A9466",
"e. c #8D8873",
"r. c #9A8B71",
"t. c #979472",
"y. c #A4866B",
"u. c #B58A66",
"i. c #AB9C62",
"p. c #A89966",
"a. c #B39C62",
"s. c #BD9B62",
"d. c #A08D73",
"f. c #BA8A75",
"g. c #A49478",
"h. c #B99874",
"j. c #9CA17A",
"k. c #A8A76B",
"l. c #B4A46A",
"z. c #B6A869",
"x. c #AEB36F",
"c. c #B4B36E",
"v. c #A8A973",
"b. c #B7AA78",
"n. c #ADB273",
"m. c #AFB878",
"M. c #B3B573",
"N. c #B6B876",
"B. c #B3BC74",
"V. c #B3BD7A",
"C. c #C78773",
"Z. c #C89D75",
"A. c #C59B79",
"S. c #C9AF71",
"D. c #B5C47B",
"F. c #B9C378",
"G. c #B7C97C",
"H. c #BACC7D",
"J. c #BDD17E",
"K. c #C3CC7D",
"L. c #C3D67F",
"P. c #C7D87F",
"I. c #AF9988",
"U. c #96AA93",
"Y. c #AEA285",
"T. c #B9A98B",
"R. c #AAB984",
"E. c #BCB58A",
"W. c #B3A891",
"Q. c #B8B893",
"!. c #B9A9A2",
"~. c #D6AA87",
"^. c #C5B887",
"/. c #D2BA90",
"(. c #D6BA93",
"). c #C1BAAB",
"_. c #BCCB83",
"`. c #B9C48A",
"'. c #BED381",
"]. c #B8C3A9",
"[. c #B4D4AD",
"{. c #C2CA84",
"}. c #C7C389",
"|. c #C6DB83",
" X c #CADD84",
".X c #C6D789",
"XX c #D9D28D",
"oX c #CCC496",
"OX c #D5CB97",
"+X c #CCDB94",
"@X c #D1DC9B",
"#X c #D9D99A",
"$X c #E0D19B",
"%X c #CEE285",
"&X c #CDE389",
"*X c #D1E385",
"=X c #D3E58B",
"-X c #D6E497",
";X c #D5E29B",
":X c #E2E19C",
">X c #C9C8A7",
",X c #D2D9A6",
"<X c #CECFB1",
"1X c #D5D9B9",
"2X c #CBE3AE",
"3X c #D8E3A6",
"4X c #D3E4B4",
"5X c #E3E4A5",
"6X c #E5E6AC",
"7X c #E4E7B9",
"8X c #D6D7C6",
"9X c #DCDCD5",
"0X c #DCE5C6",
"qX c #E3E6C3",
"wX c #E5E6C8",
"eX c #E4E5D5",
"rX c #E3E5DD",
"tX c #E6E6E5",
"yX c #E7E8E7",
/* pixels */
"-.-.-.-.-.-.&._ ) &.l.H.@X#X&.S 9 8 d b._.k.p.a.s.S.S.S.z.>.",
"S.l.0.0.0.0.0.7.;.7.5.k..X{.[ A Z 9 d q.V.$.O.%.=.=.=.&.q.^.",
"^.^.}.}.,X1X1X,X}.^.E.q.4.G f S ' 2...Z f > Q Q.Q.Q.W.d.>XqX",
"&.;.T.<XqX4X@XN.} ( ' G C F = ] I.~.3.S D W >.f.f.f.I.u.XXqX",
"^.,X4X;X.XH.G.n.%.o.M C D V % S | ..L h V C d ^ &.} ( ( s.XX",
"_.F.J.L.J.G.D.m.b.b.b @ . . % 5 a 0 % @ & & f Y.E.Q.E.g.u.l.",
"'.F.J.J.J.G.D.p.^ ~ t # @ $ 2 6 ' ` % $ & & h u.h.A.A.A.h.u.",
"0X,XH.'.'.G.D.k.+./ r @ = 8 7 1 j y o @ & & s } ( &.( } o.*.",
"qX@XH.J.'.G.D.`._.x.n # = : Z 4 j l O @ $ @ b 4.5.O.I B M [ ",
"=X|.H.J.G.D.D.'.3XM.g X # # G A x j % # $ o e.<X<XQ.g.g.p.w.",
" XL.J.J.G.D.`.+X-X$.w X X # h U a 4 % $ $ # e.0XyXyXwX+X`.@X",
" XL.J.J._.D.D.'.{.I : X # # G t.y.L * # $ # e.4XtXtX9Xw.X.q.",
"%XP.'.'.G.D.m._.q.x %   X   G `./.Y $ . $ . Q 4XtXtXtXr.m X.",
"%X X'.'.D.V.m.k.I d * u K s f Q.Y.G $ O o   T 2XrXyXyXI.c m ",
"%XP.|.H.D.m.v.t.t.>.,.(.(.2.p j.:.d $ #.E g T ,XrXtXyX<XK c ",
"P. XJ.G.m.v.w.$.$.,.Z.~.~.u.; R U w q #.~.OX^.,XrXtXtX9X@.l ",
"*X XJ.D.n.v.$.n A c v ] C.#.o P b X s 1.~.~.^.`.0XtXtXtX<.l ",
"*X%XG.B.v.w.I O e K g 1 c s X ; X   p #.3.3.2.j.1XtXtXyX).v ",
"=X*XD.m.v.4.r . ; J p * $ # $  .#.= $ $ w I ,.>.!.yXyXyX8XY ",
"=X*XD.k.4.u ; G H i = = $ X 1 3.f.e * = a e.d.$.U.yXyXyXrXI.",
"=X=XN.4.> O Q U.T - = * o o e ` S 3 = - h ,.d.e.].tXtXtXtX!.",
"=X=Xp.u   R -X5XoXY.Q h : o L | d = 8 8 i L  .e.[.tXtXtXtX9X",
"&X&Xw.  ; o.XX5X6X7X/.#.s X x l = 3 8 = = 4 a U U.rXtXtXyXyX",
"&X&Xk.; d t q.:X5X6XOXP X $ e % = = 8 = & $ 2 a Q 9XtXtXtXyX",
"&X|.D.n y + u ^.S.,X6XoXh $ = 8 8 8 8 = $ O 4 3 C 8XyXyXtXtX",
"|.'.V.m 4 * @ %.@.h.$X(.h 8 8 9 9 9 8 = $ O 1 3 > Q.qXeXeXyX",
"'.G.w.t 1 @ $ g s s  .J 8 8 8 9 9 8 - = $ o 1 1 ; m.4X7XwXeX",
"J.D.R < % o $ @ @ - - = 8 9 i 9 9 8 8 = o o 1 O # m.-X7XqXwX",
"F.B.B < % @ $ o # * * * - 8 i 9 8 8 - & X o % * i M.|.3X7XwX",
"D.k.N + O . o O o # # # # * - - - - = @ X X w 3 n K. X-X3XwX",
"x.k.o.O   . o X X X X X # $ $ $ $ # @ X   o P ! $.{. X+X3X7X",
"k.7.7.b   o o o o o o # X # X # # @ @ X   O h R.R.H.%X+X3X3X",
"9.7.0.+.q X X X X X X o o o X X X X X X X 1 5 P q.F.P.%X;X3X",
"l.0.z.a.X.O O o X X X X X X X X X X X X o < < y m B.=X X;X3X",
"o.5.l.z.z.N , , O O X X o X X X X X   o 5 6 < 5 q n.*X X-X3X",
"0 M 6.9.i.8.u t k < O , O O o X X X X 5 k o.+.m ; k.%X X+X;X",
"j { i.k.i.6.n < k l 1 % , , r r % o % 0 { z.z.b ; k.*XP.&X;X",
"z 5.z.c.B.i./ k 0 6 5 % , O O ; o w 0 v 7.a.O.; u x.P.P.&X;X",
"o.8.z.F.K.a.+.o.v j 6 t f i : p r y 6 v 7.6.r ; +.B.P.P.|.-X",
"0.0.9.c.F.z.8.+.o./ v 6 x J J Z t 6 < / +.m O B 8.c.P.P.|.-X"
};
