/* XPM */
static char *kaikyaku07[] = {
/* columns rows colors chars-per-pixel */
"30 40 222 2 ",
"   c #1C1718",
".  c #1C1919",
"X  c #221719",
"o  c #23191A",
"O  c #2C191C",
"+  c #3D171E",
"@  c #33191C",
"#  c #3C191D",
"$  c #2B221F",
"%  c #2C1A21",
"&  c #341A23",
"*  c #3C1A21",
"=  c #3B1A28",
"-  c #3B1C31",
";  c #352321",
":  c #3C2424",
">  c #3A2B27",
",  c #31272C",
"<  c #44171E",
"1  c #441A1F",
"2  c #4A191D",
"3  c #53191E",
"4  c #431B22",
"5  c #4B1A23",
"6  c #471A29",
"7  c #4B1D2A",
"8  c #541A23",
"9  c #5B1B24",
"0  c #551D2A",
"q  c #5D1E2A",
"w  c #661C2B",
"e  c #751D2E",
"r  c #761D30",
"t  c #4A2629",
"y  c #57242B",
"u  c #47332C",
"i  c #58352C",
"p  c #482535",
"a  c #582533",
"s  c #443F30",
"d  c #5D3F35",
"f  c #62242C",
"g  c #6C232B",
"h  c #692B2C",
"j  c #762A2D",
"k  c #67342E",
"l  c #75332E",
"z  c #652C34",
"x  c #692936",
"c  c #732A34",
"v  c #6C3936",
"b  c #6B3738",
"n  c #643839",
"m  c #69393D",
"M  c #773738",
"N  c #5C523D",
"B  c #6C443A",
"V  c #7D4336",
"C  c #76453B",
"Z  c #72513C",
"A  c #45314A",
"S  c #5C3A42",
"D  c #693C41",
"F  c #594C4E",
"G  c #574656",
"H  c #6B4445",
"J  c #6A4A46",
"K  c #7A4744",
"L  c #714C4C",
"P  c #7A5646",
"I  c #71514C",
"U  c #665251",
"Y  c #64535C",
"T  c #775751",
"R  c #795C55",
"E  c #796B4B",
"W  c #72724C",
"Q  c #7C665B",
"!  c #7E7157",
"~  c #5F5D66",
"^  c #615863",
"/  c #68666B",
"(  c #6A7576",
")  c #88283A",
"_  c #843538",
"`  c #884639",
"'  c #954F3D",
"]  c #97553D",
"[  c #8E2940",
"{  c #8D3543",
"}  c #864B4A",
"|  c #964748",
" . c #8A5949",
".. c #945544",
"X. c #935C42",
"o. c #9B5D41",
"O. c #885B53",
"+. c #9E5852",
"@. c #A75254",
"#. c #A65957",
"$. c #896B4B",
"%. c #966545",
"&. c #95644A",
"*. c #996849",
"=. c #83714F",
"-. c #9F754D",
";. c #816359",
":. c #826B5C",
">. c #996755",
",. c #8B7354",
"<. c #8B7557",
"1. c #927C55",
"2. c #97795A",
"3. c #A26444",
"4. c #A26A49",
"5. c #A2744D",
"6. c #A77A4E",
"7. c #B1675E",
"8. c #A57B55",
"9. c #846E60",
"0. c #867463",
"q. c #8A7965",
"w. c #8C7C65",
"e. c #967965",
"r. c #AC6A61",
"t. c #B36860",
"y. c #AA7E6C",
"u. c #B87466",
"i. c #B57B6A",
"p. c #74827C",
"a. c #89885B",
"s. c #958258",
"d. c #9A8659",
"f. c #998B5C",
"g. c #AB8151",
"h. c #AB8757",
"j. c #A4835C",
"k. c #8B8269",
"l. c #968765",
"z. c #92896E",
"x. c #9B9161",
"c. c #9B926E",
"v. c #958E71",
"b. c #999575",
"n. c #A38C62",
"m. c #A78967",
"M. c #A19363",
"N. c #A79A6B",
"B. c #B5976A",
"V. c #A48C70",
"C. c #A79E77",
"Z. c #9EA37B",
"A. c #A8A66A",
"S. c #A8A776",
"D. c #B1AA76",
"F. c #ABB477",
"G. c #B1B674",
"H. c #C48D74",
"J. c #CD9278",
"K. c #D29C7C",
"L. c #C8A26E",
"P. c #C8A874",
"I. c #BAC97C",
"U. c #778C82",
"Y. c #7B9285",
"T. c #AF9D92",
"R. c #A7A384",
"E. c #A8B684",
"W. c #B9B983",
"Q. c #BBAB91",
"!. c #BBB59B",
"~. c #BAACA2",
"^. c #BAB2A3",
"/. c #DAAB84",
"(. c #B7C484",
"). c #B5CC8C",
"_. c #BAD68E",
"`. c #B9D590",
"'. c #BDDA93",
"]. c #C2C689",
"[. c #D1CC8A",
"{. c #C2D685",
"}. c #C3DA86",
"|. c #C4DA88",
" X c #D1D68A",
".X c #C5C796",
"XX c #C6DA94",
"oX c #D1D79A",
"OX c #C8E18B",
"+X c #CDE192",
"@X c #C5E59D",
"#X c #D4E593",
"$X c #DBE695",
"%X c #D6E894",
"&X c #D5E49C",
"*X c #DDE69B",
"=X c #E0E69F",
"-X c #C6CDA9",
";X c #CCCAAB",
":X c #D5DAA8",
">X c #D4D4B4",
",X c #CAE4A8",
"<X c #DBE5A4",
"1X c #D0E5AC",
"2X c #DDE4AB",
"3X c #D8E4B4",
"4X c #E2E5A0",
"5X c #E2E5AC",
"6X c #E4E6B4",
"7X c #E4E6BA",
"8X c #E5E8B9",
"9X c #DBD8CF",
"0X c #DEDCD5",
"qX c #E0DFD8",
"wX c #E5E6C3",
"eX c #E5E6CC",
"rX c #E5E5D4",
"tX c #E7E8D5",
"yX c #E5E5DB",
"uX c #E6E6E5",
"iX c #E8E9E6",
"pX c #E8E9E8",
/* pixels */
"4X*X$X$X#X#X%XA.6 6 x i.r.S S .XwXwXeXeXtXuXuXuXuXuXuXuXuXuX",
"=X*X$X$X#X#X#X! = w [ i.H.{ 7 q.6XwXwXeXtXyXuXuXuXuXuXuXuXuX",
"=X*X$X$X#X#X#XE 5 r ) | } { { O.6X8XwXeXrXrXtXyXuXuXuXuXuXuX",
"=X*X=X$X#X#X+Xa.8 r r 5 6 D i.O.:X8X3X1X,X1X3X3XwXrXuXuXuXuX",
"[.[.[. X X X#XG.t 2 # 4 x c #.} C.-XE.E.`.,X,X,X3X3XrXuXuXuX",
"] 3.3.3.*.4.5.4.i * 2 g { w x } Z.b.Q k.E.'.,X,X,X1X6XwXyXyX",
"h.n.j.8.*.*.*.o.' y 9 8 5 f x L ^.0.H 0.E.'.@X@X@XXX].P.P.P.",
"m.B.B.B.D.D.D.D.D.l.y < 2 g | R E.R I q.Z.).'.'._.(.D.j.8.-.",
"o.o.] ] ] ] ] ..' ..K 7 4 0 D L 9.L Q v.E.).).).).XX:X>X>X;X",
"D.A.N.N.n.m.j.-.-.X.O.D D n m D D T v.).'.'.).F.c.<.8.B.L.P.",
"` ` ' ..X.>.m.W.W.;.m a a a 6 * 6 L c.S.Z.Z.b.k.I a k ` X.X.",
"m.n.2.&.X.>.B.2.<.n t y 7 * O % p ! w.Q Q ! T S p O F C.!.^.",
"..X.*.2.B.F.,.k T J # t a y = > q.b.z.v.z.0.H 6 % . * } y.uX",
"V ` ` _ j.M.P f D I 5 # 4 0 H w.Z.v.v.Z.S.k.T p o . O b  ./.",
"N.A.A.A.A.d.C f y R H < * S b.C.e.q.e.c.V.e.} a @ X : <.C.9.",
"3XXXOX|.A.s.C f q T 0.R ! v.v.q.O.>.i.J.K.J.r._ * O < ` ..d ",
"W.G.OX}.N.,.v f y K v.v.b.w.9.Q O.t./././.J.t.l 1 8 m P C b ",
"f.A.}.I.M.,.b y q x :.0.9.T L z D @.t.t.7.@.) w 2 M !.-Xc.Z ",
"d.G.}.G.f.,.b w 9 9 n T L D a 8 r [ @.t.#.| ) e < Q qXuX:X,.",
"d.].#XG.s.1.v q 8 9 q x x 0 * * w [ @.t.u.t.+.g t ~.uXyX:X,.",
"M.:X2XD.s.<.n q q 9 9 9 0 < O 4 w r [ | | #.| y R yXpXeX5X<.",
"n.oX1XA.s.=.z q 8 8 9 3 8 # @ 5 < 5 f g g j _ g ~.iXuXwX5XV.",
"M.:X:XN.s. .f q 5 5 8 3 < = 6 6 + % + + 2 g _ >.qXuXyX7X5XQ.",
"S.6X6XM.1.P f 0 & # 3 3 p G p 4 + X + + 4 q h ~.pXuXtX6X5XoX",
"R.wX6XA.1.Z y 5 X @ 2 p ^ Y 0 * # O @ + 5 5 T 0XuXuXeX6X5X5X",
"N..X].f.1.P 7 # O O p ^ ( Y 6 # 4 @ O # 4 0 T.iXuXuX7X6X5X5X",
"d.1.,.$.1.B @ @ = % ^ U.Y.U 4 @ # @ O @ + L 9XiXuXyX7X5X4X5X",
"=.u t B Z > . o % , ( Y.p.S * @ @ @ X X 4 T.iXuXuXrX6X6X2X5X",
"=.o   . . . . O & A / U./ p # @ @ @ O X u ;XtXiXyXwX8X5X2X5X",
"=.$ . . . . @ # = A G ~ F 6 # O O O o X u (.4X7XeX7X8X6X5X5X",
"a.; X X X X # 2 5 - p p p 6 * @ O O o X ; S.&X<X8X7X6X6X6X5X",
"s.i # # @ X # 3 8 4 & % * 5 5 * @ o o X O E oX*X6X6X8X5X6X6X",
"x.Z h h 3 # @ 9 9 2 O X O O @ ; * @ o . . N (.$X5X6X8X8X6X6X",
"x.Z h j h 2 @ 3 3 1 @ . . . X . o o o o . u G.+X<X6X6X8X6X6X",
"f.E V l h 2 O 2 3 1 : . . . . . . . . . . $ A.|.&X5X6X8X6X6X",
"E B ] o.X.V k k l P U $ . . . X o . . . . . a.|.XX<X5X6X8X6X",
": ; o.6.g.5.%.%.%.;.Z @ . . X o % % o . . . W I.}.&X5X6X8X6X",
"@ o Z g.g.g.-.4.-.%.V t X . o % % $ . . . . N I.|.#X<X8X8X8X",
"i o N g.g.g.6.-.-.-.%.v $ . o o . . . . . . s I.{.+X<X6X8X7X",
"%.: # 6.g.h.g.g.5.-.%.v O . . . . . . . . . > G.{.OX&X6X8X7X"
};
