/* XPM */
static char *kaikyaku03[] = {
/* columns rows colors chars-per-pixel */
"30 40 203 2 ",
"   c #1B1919",
".  c #2C161B",
"X  c #23191A",
"o  c #2B191C",
"O  c #33191C",
"+  c #3B191D",
"@  c #2F201F",
"#  c #31201F",
"$  c #2E1A24",
"%  c #331A21",
"&  c #3C1A22",
"*  c #341A2A",
"=  c #2D2022",
"-  c #3C2726",
";  c #3B2C27",
":  c #44191D",
">  c #4B191D",
",  c #52191D",
"<  c #441C24",
"1  c #4C1C23",
"2  c #441D2A",
"3  c #4B1B2C",
"4  c #531B23",
"5  c #5B1B24",
"6  c #541D2B",
"7  c #5D1D2A",
"8  c #551D31",
"9  c #5F1F34",
"0  c #621A26",
"q  c #6C1A25",
"w  c #691D29",
"e  c #761B2D",
"r  c #611F34",
"t  c #7D1B30",
"y  c #432125",
"u  c #4A2827",
"i  c #45232B",
"p  c #4A242B",
"a  c #542427",
"s  c #5C242B",
"d  c #47362D",
"f  c #50312A",
"g  c #4E2332",
"h  c #542C35",
"j  c #5B2836",
"k  c #4F3035",
"l  c #583738",
"z  c #5C333C",
"x  c #66252A",
"c  c #752A2E",
"v  c #62322D",
"b  c #68302F",
"n  c #652234",
"m  c #652A34",
"M  c #6B2934",
"N  c #762833",
"B  c #6B3633",
"V  c #693B38",
"C  c #7B3535",
"Z  c #7A3737",
"A  c #4D4435",
"S  c #5B4D3B",
"D  c #734439",
"F  c #7E413A",
"G  c #78503F",
"H  c #653742",
"J  c #7B3C43",
"K  c #684145",
"L  c #664844",
"P  c #6D4A4A",
"I  c #794E47",
"U  c #6E5043",
"Y  c #7D5946",
"T  c #73534C",
"R  c #735251",
"E  c #7A5A53",
"W  c #7E684B",
"Q  c #7B645A",
"!  c #84312F",
"~  c #822336",
"^  c #872939",
"/  c #832C3B",
"(  c #833532",
")  c #843B35",
"_  c #833D3B",
"`  c #883939",
"'  c #854239",
"]  c #8A473E",
"[  c #924E3D",
"{  c #9B563E",
"}  c #8B3844",
"|  c #943746",
" . c #854B41",
".. c #8B4844",
"X. c #98474B",
"o. c #855546",
"O. c #855C4B",
"+. c #8B5D4C",
"@. c #965547",
"#. c #8A6546",
"$. c #826548",
"%. c #866849",
"&. c #8D6B4B",
"*. c #96634B",
"=. c #8E704E",
"-. c #97714E",
";. c #886854",
":. c #956954",
">. c #877658",
",. c #937357",
"<. c #927A55",
"1. c #94735A",
"2. c #99785C",
"3. c #A66859",
"4. c #A87857",
"5. c #B47E5C",
"6. c #806D60",
"7. c #847362",
"8. c #8C7A66",
"9. c #96865C",
"0. c #938C5E",
"q. c #9C915E",
"w. c #A6855A",
"e. c #8A8563",
"r. c #8D846A",
"t. c #988767",
"y. c #9B9765",
"u. c #9B9B66",
"i. c #948870",
"p. c #979775",
"a. c #A08D69",
"s. c #B78369",
"d. c #A59466",
"f. c #A29A66",
"g. c #B9926B",
"h. c #A48B72",
"j. c #A99876",
"k. c #9AA26B",
"l. c #9DA27B",
"z. c #A4A26C",
"x. c #A7A96D",
"c. c #ABAC6C",
"v. c #AEB26E",
"b. c #A7A979",
"n. c #B5A270",
"m. c #ADB471",
"M. c #AFBB73",
"N. c #ACB47B",
"B. c #B1BA77",
"V. c #C19374",
"C. c #C4A979",
"Z. c #B3C376",
"A. c #B5C57A",
"S. c #B9C67A",
"D. c #BBCC7C",
"F. c #A69782",
"G. c #A7A982",
"H. c #B3A883",
"J. c #A8B483",
"K. c #ADBB86",
"L. c #BBB293",
"P. c #C6A982",
"I. c #C9B88B",
"U. c #C6BC97",
"Y. c #BBCD82",
"T. c #B7C488",
"R. c #BDD384",
"E. c #BFD884",
"W. c #BBD18B",
"Q. c #BFD989",
"!. c #B5C890",
"~. c #C5CB8A",
"^. c #C2D784",
"/. c #C1D985",
"(. c #C3DD8A",
"). c #D5D497",
"_. c #C6E18C",
"`. c #C9E48E",
"'. c #CCE492",
"]. c #C6E398",
"[. c #D3E597",
"{. c #D3E59A",
"}. c #DCE59E",
"|. c #DAEA9A",
" X c #CDCBA8",
".X c #D8D8B1",
"XX c #E0DCA8",
"oX c #D6E5A0",
"OX c #DCE5A3",
"+X c #DEE6AB",
"@X c #E2E5A5",
"#X c #E2E8A1",
"$X c #E3E5AB",
"%X c #E4E6B4",
"&X c #E4E6BC",
"*X c #DEDFC7",
"=X c #E5E6C3",
"-X c #E6E8C3",
";X c #E5E6CB",
":X c #E6E8CB",
">X c #E5E6D3",
",X c #E6E6DC",
"<X c #E6E6E5",
/* pixels */
"$X{.`.E.D.Z.M.v.c.c.v.M.S.D.R.(.`.{.OX$X&X-X;X,X<X<X<X<X<X<X",
"$X{.`.E.D.Z.Z.v.v.m.M.Z.S.D.R._.'.{.OX$X%X-X;X,X<X<X<X<X<X<X",
"OX{.`.E.D.Z.Z.M.M.Z.Z.Z.S.Y.E.(.'.{.OX$X%X-X;X>X<X<X<X<X<X<X",
"OX{._.E.D.Z.Z.Z.A.A.A.A.D.R.E._.'.{.OX$X%X&X:X>X,X<X<X<X<X<X",
"|.'.`./.D.D.Z.Z.S.S.S.S.S.R./._.'.[.OX$X%X&X=X>X,X<X<X<X<X<X",
"|.`.`.D.D.D.D.D.S.S.S.D.D.D.^._.'.{.}.$X%X%X-X:X>X,X<X<X<X<X",
"'.'._./.D.D.D.D.S.S.v.u.k.A./._.'.[.#X$X$X&X&X:X;X,X,X<X<X<X",
"'.`._././.D.D.Z.D.0.d O $ A k._.'.[.}.@X$X%X&X-X;X>X,X<X<X<X",
"'.`._.D.^.D.D.D.y.u X + & o - k.`.[.#X#X$X%X%X=X=X;X>X,X,X<X",
"(.(././.^.D.D.A.S O > / } < . S ^.{.#X#X$X%X%X&X=X;X>X>X>X,X",
"[ { *.-.4.w.d.d.u , q ^ X.n o & n.|.#X#X@X$X&X&X=X=X;X;X>X>X",
"O.[ [ ' ) ! ! ! u 0 q s s M m 7 G n.C.I.).).XXXX&X=X=X:X:X;X",
":.:.,.2.2.2.1.,.G + + O > Z | M D I :.4.w.4.4.4.s.V.V.P.I.I.",
"] ) ( ! ( ) ` ] F & + 7 5 7 N m F.r.i.b.G.!.n.@.[ [ [ @.{ @.",
"2.2.,.,.:.+.o.] ' B 1 : > : 5 m F.Q R Q Q l.!.T.I.L.P.H.H.h.",
"Z Z c c Z Z ] +.1.h.Y O : 5 7 H i.R H H T 8.p.T.g.4.5.V.V.P.",
"1.:.:.%.o. .Z  .+.O.E 2 + 4 g z R z j g z P 7.G.J.*._ ) ) ) ",
"0 x b Z J o.1.D s s H j < O & s g $ o $ i z R 8.G.!.H.j.j.h.",
"4 B D Z Z Z o.5 : < 8 8 3 & s < . . X   X g P Q p.J.p.` 3.*X",
"v %.q.q.q.<.D 4 : + 3 3 3 & & o o $ O o X * z E r.l.K.;.O. X",
"G n.Y.x.m.<.b , : O & 3 3 < X X o 3 1 O X X i P Q e.p.G.y.H.",
"~.~.f.f.x.O.s 1 : O O < 2 & . O 4 M N 4 X X o - l K Q r. .&.",
"z.<.=.f.t.V 7 4 : O O O % & < 7 w w / M o + X & l R >.r.R D ",
"-.#.9.f.V 8 n n 9 6 3 2 < < 6 ~ } ^ | / 7 6 X i E Q L.U.8.W ",
"&.#.B.G.p 4 8 n n n M J m & + q ~ ~ ~ ^ a O = K R G.-X%XT.>.",
"&.=.!.~.S . & < 6 < } s.s.I o 4 c c e e + < h P 8..X=X+XD.W ",
"#.&.T.K.B + . . + O x 3.V.3.h : w N t 0 < g H P L.;X&X'.Q.%.",
"#.9.W.N.b > O O O X % / } / y o 5 e 5 y l K z 7.&X;X+X_./.>.",
"#.y.].m.B > O o X X O 1 5 4 < < O O o k P K T U.;X&XoX(.Q.0.",
"%.f.W.x.V 4 O X     o O > e N 5 O : p h P K i.&X:X+X].(.Q.x.",
"#.W Y G D 1 o X X X X X o , 0 5 4 N N g i U  X=X&XoX_.Q.W.A.",
"%.V a x B 1 X X $ * X     . + 4 5 X./ 7 + i.&X:X&X{.(.Q.R.R.",
"$.; X o + o   X @ o X     X   o o.X./ 0 L .X=X&X+X].(.W.R.R.",
"$.;             X o           y ..3.@.i e.+X%X%X{.`.(.R.R.D.",
"W ;             X             y Z Z +.o.e.Y.).OX{._.Q.W.R.R.",
"Y ;         X X X             = a 1 x  .<.B.R.`.]._.Q.R.E.R.",
"$.f O @ o   X X X                     O S c.A.(._._.Q.E.Q.E.",
"#.f , , : X X O o                     X u 0.Z.(._._.Q.E.Q.E.",
"o.v , , , O X : O o X                   o >.m.D.`._.(._.Q.E.",
"G B > : : O X + : : X                   @ W z.D._._._.Q.(._."
};
