/* XPM */
static char *kaikyaku15[] = {
/* columns rows colors chars-per-pixel */
"30 40 215 2 ",
"   c #191617",
".  c #1D1718",
"X  c #1C1919",
"o  c #231719",
"O  c #2C1719",
"+  c #23191A",
"@  c #2A191D",
"#  c #331619",
"$  c #331A1D",
"%  c #3A191D",
"&  c #34201F",
"*  c #2E1A20",
"=  c #331722",
"-  c #341A23",
";  c #3B1B23",
":  c #3C1A2A",
">  c #342322",
",  c #3C2424",
"<  c #3C2A28",
"1  c #42191D",
"2  c #441A23",
"3  c #4A1A25",
"4  c #451B2C",
"5  c #4D1A29",
"6  c #541A23",
"7  c #5B1A24",
"8  c #541B2A",
"9  c #631A24",
"0  c #691A28",
"q  c #741A2A",
"w  c #462829",
"e  c #542124",
"r  c #58252E",
"t  c #4A342F",
"y  c #59342C",
"u  c #4B2432",
"i  c #552231",
"p  c #5B2633",
"a  c #592A36",
"s  c #5B3834",
"d  c #68272C",
"f  c #652B2B",
"g  c #67342E",
"h  c #632E38",
"j  c #7C2E36",
"k  c #683737",
"l  c #753A36",
"z  c #7A3A34",
"x  c #4D4234",
"c  c #5C453D",
"v  c #664438",
"b  c #764438",
"n  c #69553E",
"m  c #693D42",
"M  c #763340",
"N  c #6B4445",
"B  c #6A4D45",
"V  c #6B4948",
"C  c #734746",
"Z  c #6C564A",
"A  c #7A5846",
"S  c #795B52",
"D  c #756D51",
"F  c #7D6759",
"G  c #844C3C",
"H  c #85523E",
"J  c #8C3A43",
"K  c #954D49",
"L  c #825440",
"P  c #875A45",
"I  c #955745",
"U  c #9B5852",
"Y  c #8D6246",
"T  c #896349",
"R  c #956746",
"E  c #9C6546",
"W  c #9A6C4B",
"Q  c #83734F",
"!  c #96704D",
"~  c #9B724D",
"^  c #826D59",
"/  c #9C6B58",
"(  c #8C7650",
")  c #87745E",
"_  c #9D7350",
"`  c #A56144",
"'  c #A96A46",
"]  c #A36C49",
"[  c #AB7147",
"{  c #A5734B",
"}  c #A8764D",
"|  c #B6774E",
" . c #A76855",
".. c #A47C53",
"X. c #AD7C53",
"o. c #AA7358",
"O. c #AD7B59",
"+. c #B27B51",
"@. c #B17D5A",
"#. c #827B62",
"$. c #8B7B63",
"%. c #AB7563",
"&. c #B07B66",
"*. c #8C885A",
"=. c #9E8456",
"-. c #98875C",
";. c #9C915F",
":. c #A28455",
">. c #AC855A",
",. c #A48C5A",
"<. c #AB8C5C",
"1. c #BA8352",
"2. c #B5835D",
"3. c #B88959",
"4. c #BD8B5C",
"5. c #AA935D",
"6. c #B8905C",
"7. c #968B64",
"8. c #92856B",
"9. c #9C9463",
"0. c #999569",
"q. c #9E9969",
"w. c #978874",
"e. c #989676",
"r. c #AD8B63",
"t. c #B38D63",
"y. c #BB8F65",
"u. c #B48C69",
"i. c #A09661",
"p. c #A49B64",
"a. c #A79A66",
"s. c #B29363",
"d. c #B49B64",
"f. c #B89867",
"g. c #B79E7D",
"h. c #9FA26B",
"j. c #9CA179",
"k. c #A7A166",
"l. c #A4A36B",
"z. c #A9A669",
"x. c #ADAC6B",
"c. c #BAA96E",
"v. c #B1B36E",
"b. c #A5A877",
"n. c #AAAD72",
"m. c #B8A977",
"M. c #ADB373",
"N. c #AFB678",
"B. c #B3BB74",
"V. c #B9B47D",
"C. c #B8B978",
"Z. c #C08E5E",
"A. c #C1945D",
"S. c #C4995C",
"D. c #C39A62",
"F. c #C98B76",
"G. c #C99776",
"H. c #C2AA73",
"J. c #C6A975",
"K. c #B6C47B",
"L. c #B8C67D",
"P. c #BACC7E",
"I. c #BDA881",
"U. c #AAB685",
"Y. c #B8BA86",
"T. c #BDB898",
"R. c #BDBBA6",
"E. c #D3AF89",
"W. c #C3B888",
"Q. c #C5B791",
"!. c #C1BCAD",
"~. c #AFC288",
"^. c #BEC486",
"/. c #BACE85",
"(. c #BDD282",
"). c #BFDD9A",
"_. c #C1C58C",
"`. c #C4CA8A",
"'. c #C0D684",
"]. c #C2D986",
"[. c #C8D98A",
"{. c #D0D08B",
"}. c #C7CB97",
"|. c #D2DA97",
" X c #CEE38E",
".X c #C9E49A",
"XX c #D2E594",
"oX c #D7E69C",
"OX c #DBE69B",
"+X c #C8CAA1",
"@X c #CFD5A9",
"#X c #D4D4A4",
"$X c #D5D7AB",
"%X c #D5DAAB",
"&X c #D8DAA8",
"*X c #D5D7B4",
"=X c #D6D9B3",
"-X c #DCDBB6",
";X c #C6E5A3",
":X c #CBE5A8",
">X c #DCE5A4",
",X c #D5E5AC",
"<X c #D9E5B6",
"1X c #E0E6A2",
"2X c #E1E6AA",
"3X c #E3E6B3",
"4X c #E4E5BA",
"5X c #E6E8B8",
"6X c #DDDDD2",
"7X c #DEE3D2",
"8X c #E5E5C3",
"9X c #E5E6CB",
"0X c #E5E6D3",
"qX c #E5E5DB",
"wX c #E6E6E5",
/* pixels */
"J.J.D.D.f.f.3.X.{ ' ] ` ` ` ` ' ' [ | | 1.3.Z.+.1.1.3.3.A.S.",
"' [ [ [ [ ] ] ] ] ] ] ] { ..O.:.>.r.f.f.f.c.H.m.J.W.Q.Q.Q.Q.",
"m.V.V.Y.C.^.`.`.`.}.}.}.}.#X#X#X#X&X*X=X-X-X-X4X-X8X8X8X8X8X",
"u.s.y.y.2.2.>.>.X.O.O.r.&. .o.O.@.@.@.3.3.4.Z.4.S.Z.Z.A.S.D.",
"[ } { } } { { ] E E ] I z d g z z H E r.f.d.c.<.5.s.<.>.>.<.",
"W.Y.V.V.Y.`.}.+X_.Y.N.s = - : : 4 i F .X$X$X*X*X-X*X*X*X*X*X",
"I ` o.g.#X8X<X.Xf.I v * * * * - 4 : u V  .y.y.2.2.@.O.O.@.@.",
"a.I.@X%X.X[.].].a.b ; - * @ * ; ; = - = g <.s.r.t.<.r.......",
"c.l.K.P.P.(.].(.^.Z - - * @ - - - * + * < U.<X%X&X&X&X#X#X#X",
"=.9.B.L.P.(.].].Y.t * * * * * * * + X + @ e.<X#X2.| +.} 1.3.",
"^.z.M.L./.(.(./.0., + @ @ @ @ @ * + X X o #.:X:XY.=.~ r.g._ ",
"%XM.B.K.(.(.(.M.F , @ + + + @ O + X X + * D ;X:X.X/.^.6XwX+X",
"x.l.N.K.P.(.(.7.Z a % + + o o o X X X X < j.).;X;X:X0XwXwX9X",
"k.l.B.K.L.L.K.8.V i 6 % % $ % # @ + + O c U.~.)..X,XwXwXqX8X",
"k.p.N.B.K.K.N.$.V i 0 q 0 9 0 9 % + $ 1 Z e.U.)..X7XwXwX0X8X",
"a.9.x.M.M.N.N.#.m i 4 9 q q q 9 1 @ % 2 F e.U.U.:XwXwXwX9X8X",
"k.;.n.M.M.n.n.) C i % 2 0 7 7 7 6 2 3 r ^ e.U.T.6XwXwXqX9X8X",
"5.;.l.n.b.n.l.$.S a 2 ; 6 6 7 3 e f 8 s #.w.$.R.wXwXwXqX8X8X",
"5.;.l.n.l.l.q.8.F h 2 $ - $ $ @ 3 8 8 k S S $.6XwXwXwX9X9X8X",
"z.;.q.l.q.0.0.8.) s 2 $ - + + + - 3 8 k C P !.wXwXwXwX7X9X8X",
"z.;.;.z.q.9.7.$.C p 4 ; = + + + + $ 3 r k w.qXwXwXwXqX9X8X8X",
"z.;.-.h.0.Q B F V a 2 = + + + + + + @ ; h !.qXwXwXwXqX9X9X8X",
"x.p.*.;.D w u S C p 2 O X X X X + + + + i Y.8X9XqXwX0X0X8X8X",
"x.a.T A > X * V V a : o X X X X + + X + w g.3X4X8X0X0X9X9X8X",
"v.k.x & . + & v m h * o + + X   X * X w K %.&X5X8X9X0X0X8X8X",
"v.x.x   + # l b h i * o + + X   X X t &.F.G.{.2X8X9X0X9X9X9X",
"K.v.n + + g K j h M : X + X + * *   c E.G.G.J.1X5X9X0X0X9X0X",
"B.B.*.& & b  .K U J ; o X X + * * + > / &.P ( OX2X4X9X0X0X0X",
"B.K.k.b & b o. .K j % X X X X + X + X , w ; N |.1X5X9X9X0X0X",
"B.v.x...y w K ` K s o X X X X X o X X X O 2 s `.OX2X4X9X0X0X",
"v.x.9.n g # f z e 1 + X X X X X + X X X @ 5 r n.OX1X5X9X0X0X",
"x.k.n , z g g f 6 7 = X X X X X + X X X = 8 8 7.OXOX3X8X0XqX",
"x.*.$ @ b [ ~ H G j 1 X X X X X X + X X * 5 5 A |.OX2X4X0X0X",
"5.~ y + v :.R Y R H w . X X X X X X + X = 5 5 v [.OX>X4X9XqX",
"~ E Y > > ~ { ~ ~ { v + X X X X X X X X - 5 5 a C.oXXX3X9XqX",
"~ W <.A # n ,.,.5.5.n O X + & + + + X + 2 5 2 2 h.XXXX>X8X0X",
":.:.5.5.y < ,.v.v.C.Q X X & g g e 2 + ; 5 3 ; O *.XX X>X4X0X",
"H R :.5.P 1 v ,.6.d.( @ . < Y H L l % 6 8 2 ; # D XXXXoX<X0X",
"7 z ~ :.=.A y ! ~ ~ T t < B T R ~ T e 9 0 8 3 g =. XXXXX>X9X",
"d R ,.:.,.=.Y R R R T *.F #.T T ~ ~ g 8 9 6 8 L a. X X X>X8X"
};
