/* XPM */
static char *kaikyaku28[] = {
/* columns rows colors chars-per-pixel */
"30 40 218 2 ",
"   c #1D1718",
".  c #1D1919",
"X  c #24171B",
"o  c #23191A",
"O  c #2B191D",
"+  c #31171D",
"@  c #331A1D",
"#  c #3B1A1D",
"$  c #2B201E",
"%  c #2D1A21",
"&  c #281C27",
"*  c #331B23",
"=  c #3B1B23",
"-  c #341A28",
";  c #3A1B2B",
":  c #3E1A30",
">  c #2B2622",
",  c #332223",
"<  c #3B2324",
"1  c #3D2629",
"2  c #33292B",
"3  c #392B2B",
"4  c #3C352E",
"5  c #332B35",
"6  c #382834",
"7  c #421A1E",
"8  c #4B191E",
"9  c #54191E",
"0  c #431C23",
"q  c #4D1A23",
"w  c #441C29",
"e  c #4D1C2A",
"r  c #551D26",
"t  c #411A32",
"y  c #521E30",
"u  c #432426",
"i  c #452727",
"p  c #4A232D",
"a  c #422B2B",
"s  c #55232D",
"d  c #59262B",
"f  c #49342D",
"g  c #44382C",
"h  c #4A2A32",
"j  c #592933",
"k  c #4B3432",
"l  c #4A3C36",
"z  c #533336",
"x  c #593B3A",
"c  c #6A272F",
"v  c #6E342F",
"b  c #622E32",
"n  c #672B35",
"m  c #782D39",
"M  c #683636",
"N  c #6A3B35",
"B  c #6A3D3B",
"V  c #5B4238",
"C  c #65463A",
"Z  c #6C443B",
"A  c #77463A",
"S  c #2F3644",
"D  c #383E41",
"F  c #442A41",
"G  c #493848",
"H  c #623E42",
"J  c #763D42",
"K  c #384853",
"L  c #5A4843",
"P  c #4F4B51",
"I  c #50485A",
"U  c #6D4746",
"Y  c #734442",
"T  c #734E42",
"R  c #784A48",
"E  c #695745",
"W  c #6C5445",
"Q  c #7A5442",
"!  c #7D504D",
"~  c #75584A",
"^  c #7A5B49",
"/  c #6F4F52",
"(  c #7B5C55",
")  c #7C634A",
"_  c #786856",
"`  c #7B7150",
"'  c #5A5866",
"]  c #5D606C",
"[  c #61676D",
"{  c #8E3E33",
"}  c #894738",
"|  c #93483A",
" . c #83523E",
".. c #8D533D",
"X. c #8A3843",
"o. c #864447",
"O. c #99494A",
"+. c #865544",
"@. c #8C5F49",
"#. c #965A44",
"$. c #885350",
"%. c #9A5753",
"&. c #85674C",
"*. c #8C624B",
"=. c #916445",
"-. c #93644A",
";. c #936D4D",
":. c #8E714F",
">. c #95714E",
",. c #9B764E",
"<. c #846156",
"1. c #866B55",
"2. c #976A5B",
"3. c #877252",
"4. c #897553",
"5. c #8A7659",
"6. c #8C7E5B",
"7. c #947354",
"8. c #9A7951",
"9. c #94775C",
"0. c #A2654C",
"q. c #A2675C",
"w. c #B07F57",
"e. c #806B60",
"r. c #8E7A66",
"t. c #9B7E6A",
"y. c #B36661",
"u. c #A87B67",
"i. c #BB766A",
"p. c #C2796E",
"a. c #8F815B",
"s. c #93845B",
"d. c #9A875B",
"f. c #958C5E",
"g. c #A4895A",
"h. c #A2905F",
"j. c #888669",
"k. c #968D61",
"l. c #9A8D62",
"z. c #96886C",
"x. c #979061",
"c. c #9A9364",
"v. c #9D9A66",
"b. c #9B9D69",
"n. c #978F71",
"m. c #AC8668",
"M. c #A69665",
"N. c #A69A62",
"B. c #B7906E",
"V. c #A98D75",
"C. c #A79679",
"Z. c #BA9976",
"A. c #ABA465",
"S. c #A6A36B",
"D. c #A5A96D",
"F. c #ADAA6A",
"G. c #B0AA6C",
"H. c #AAAB74",
"J. c #B1AD76",
"K. c #ACB273",
"L. c #AEB578",
"P. c #B2B678",
"I. c #B3BD7A",
"U. c #C09B7B",
"Y. c #CAA57D",
"T. c #B5C27D",
"R. c #AC9988",
"E. c #9FB084",
"W. c #B7A687",
"Q. c #ADB889",
"!. c #B9B788",
"~. c #BDBB91",
"^. c #BCB299",
"/. c #B5B0A3",
"(. c #D4AD83",
"). c #C5BB87",
"_. c #C3BC98",
"`. c #C4BDA5",
"'. c #BBC583",
"]. c #BAC885",
"[. c #BCCB84",
"{. c #BDD288",
"}. c #B8CB9B",
"|. c #BDDB9F",
" X c #BDC7B1",
".X c #C5C68B",
"XX c #C2CD8B",
"oX c #D9C68D",
"OX c #C1D88C",
"+X c #C5C898",
"@X c #C8D997",
"#X c #E1CE92",
"$X c #E2DA99",
"%X c #CAE396",
"&X c #D2E49D",
"*X c #E4E29E",
"=X c #C9D7A8",
"-X c #D1D8A7",
";X c #C8CAB7",
":X c #D4D6B7",
">X c #CAE1A5",
",X c #D3E3A3",
"<X c #D8E3A6",
"1X c #D9E3AB",
"2X c #D3E1B3",
"3X c #DEE5B7",
"4X c #E0E5BC",
"5X c #D1CCC0",
"6X c #D7DBC6",
"7X c #DEDFD6",
"8X c #DFE2D5",
"9X c #E3E6C4",
"0X c #E2E5CC",
"qX c #E4E5D2",
"wX c #E4E5DC",
"eX c #E6E6E5",
"rX c #E7E8E7",
"tX c #E8E8E5",
/* pixels */
"J.J.J.!.!.!.H.&.3.` L ^ u y J 2.d.s.E r.t.t.9.2.-.:.;.-.-.@.",
"2.Z.`.-X+XQ.m.A k 4 G z e X.i.2.C l G V.R.W._._._.^.`._.`.^.",
"_.~.J.b.c.c.&.c 6 K P # c O.q.M & S ' | | { { | { | O.#.0.W.",
"N.c.f.f.k.c.c.) K S 2 * = e 0 + 5 D P Z @.@.@.-.$.#.+.....d.",
"x.f.f.f.c.c.*.a o   . * @ 0 B @ . o X l R.J.!.!.!.~.).!.!.S.",
"f.f.f.f.c.c.+.e . o % = e q d O . o % u o.{ | | #.0.0.g.w.g.",
"x.f.x.x.c.x.6.C X X % , 0 # + + . o % 1 +. .} A } } } } } >.",
"x.f.f.x.x.a.T.b.> o O O z 0 0 @ . o X l n.d.f.C.l.4.&.&.&.6.",
"x.x.f.c.s.Q L.T.4 . . o H k = + o o o 4 }.=X=XwX7X+X.XL.L.H.",
"x.f.c.k.4.Z D.D.2   o o a H z = o . o , E.>X2XwXrX0X&X%X,X].",
"l.k.f.k.) B v.f.@ . o o 2 / t.! , o o o j.|.2XeXeXqX,X%X%XT.",
"c.k.c.6.Z N s.~ @ . . . & H n.( O   o o P Q.|.wXeXeX>X%XOXK.",
"N.c.x.` N N T j = .       k r.U o . . o < n.}.wXtXtX2X{.{.D.",
"c.c.a.A N b s p = 4 Y R 2 3 ( U , o > o 2 j.+X8XeXtX6X{.[.v.",
"c.c.4.Z b d b / T B.(.i.J % h p o 1 %.2.2.C.+X0XeXeX7X].T.x.",
"k.k.1.N b s j U $.O.y.i.Y X * , O d o.p.(.U.Q.6XeXeXeX{.D.s.",
"f.k.&.M s 0 * p p r n O.z o . . . M O.y.i.q.z.7XrXeXeX;Xx.a.",
"k.f.&.b 0 O o O p = + < + o , % . 1 M J X.! _ 5XrXeXeX6Xa.4.",
"k.6.<.u + O & 5 F - O O o o R o.O O O = ! <.(  XrXeXrX7Xa.4.",
"f.1.l o . , I [ G - * O o o J X.* % - h <.e._  XrXeXeXeXC.3.",
"x.k . . & G ] [ 6 % * % o O d s O % * p ! $._  XrXeXeXrX/.3.",
"v.> . . 6 I ' G = * * X . @ m M % - - w M J / /.rXeXeXeX5Xr.",
"D.g . o : G F ; * % % O   * n = % ; ; * - e y R.wXrXrXtX7XC.",
"L.E . @ e j ^ x a a * X . = e + - ; ; O X = w r.-X9XqXqXwX^.",
"K.a.* u Z u.#XoX.X).C.1.C % O % * - * O o # = E XX<X<X4XqX:X",
"K.c.Z b J U.oX#X$X*XV.C , O % - - ; * O o # # l I.&X-X1X4X9X",
"D.a.B s 8 C U.Y.$X$X).1.k - - : t ; + o O @ + 4 N..X3X<X4X9X",
"x.U r e @ $ =.Y.(.#XJ.9.u.z ; t t ; O o o + % x S.P.XX<X4X9X",
") 0 8 7 O o , B.Y.Y.Z.E * ; : : t * O X . O < ( G.J.XX@X<X4X",
"=.f @ # @ o o 4.1.m.1.B.k - : : ; % X   . 3 _ 5.F.J.'.XX-X4X",
"#.A $ , < X   W E E 9.T $.* ; - - % o .   3 j.6.A.G..XXX@X1X",
"-.d.V o o o X f U O <.a * X % % % o . . . + x ^ A.F.I.XXOX&X",
"8.g.=.i o . o o o . $ o . o o o o o . . . @ 7 C A.A.T.T.XX@X",
"=.g.;.A $ o o . . o . o o o . o . . . . . # @ g N.A.T.{.XX@X",
"A :.>.;.Z # X o o o o o o o . . . . .   V &.i 4 A.A.F.T.[.OX",
"=.>.7.8.=.d 7 O o o . o o . o . . . . > :.&.o V N.A.F.T.XXOX",
"7.d.g.h.;.v d 9 7 @ O o o o o o . . o b &.V . A N.A.A.T.T.T.",
">.d.M.M.>. .v r 9 9 7 + @ # a @ O o 7 v V o V ;.A.A.N.I.[.T.",
"=.8.g.h.8.=. .v r 8 7 7 * % , @ @ @ # A , <  .;.N.A.A.I.[.T.",
"..=.,.8.,.,.=. .A b 8 7 7 # = = # # 7 A f 7 v +.N.A.A.I.{.T."
};
