/* XPM */
static char *kaikyaku12[] = {
/* columns rows colors chars-per-pixel */
"30 40 212 2 ",
"   c #1A1718",
".  c #1C1919",
"X  c #25171A",
"o  c #2B171B",
"O  c #23191A",
"+  c #2C191C",
"@  c #33191C",
"#  c #3B1A1D",
"$  c #2B211F",
"%  c #2D1A20",
"&  c #341A22",
"*  c #3C1A22",
"=  c #391928",
"-  c #3C1C30",
";  c #342324",
":  c #3B2323",
">  c #392727",
",  c #342924",
"<  c #3A2A25",
"1  c #44191D",
"2  c #4B191E",
"3  c #50191F",
"4  c #431B23",
"5  c #4B1C24",
"6  c #451E29",
"7  c #4A1C29",
"8  c #5A1B25",
"9  c #531E2B",
"0  c #631A23",
"q  c #641B26",
"w  c #701925",
"e  c #442624",
"r  c #4D2125",
"t  c #432429",
"y  c #4C242A",
"u  c #4B2B2B",
"i  c #532629",
"p  c #5A2529",
"a  c #48332A",
"s  c #492133",
"d  c #492C33",
"f  c #572835",
"g  c #5D2A36",
"h  c #543132",
"j  c #5A3638",
"k  c #5D3A3C",
"l  c #65272A",
"z  c #6D372F",
"x  c #622935",
"c  c #642D39",
"v  c #772134",
"b  c #6B3837",
"n  c #64343D",
"m  c #65393F",
"M  c #793738",
"N  c #4B4237",
"B  c #5A4638",
"V  c #684939",
"C  c #744336",
"Z  c #7F533E",
"A  c #543843",
"S  c #643740",
"D  c #643A41",
"F  c #6A3C43",
"G  c #7C3D41",
"H  c #664345",
"J  c #6A4447",
"K  c #6B4B42",
"L  c #6C4649",
"P  c #6D4B4B",
"I  c #714D4C",
"U  c #794A4B",
"Y  c #695744",
"T  c #6F514C",
"R  c #745445",
"E  c #78584A",
"W  c #644D50",
"Q  c #725551",
"!  c #775B53",
"~  c #785D55",
"^  c #78644A",
"/  c #7F6857",
"(  c #7D665A",
")  c #77755A",
"_  c #853B30",
"`  c #8A3C31",
"'  c #884838",
"]  c #904637",
"[  c #924A37",
"{  c #924C3A",
"}  c #89543C",
"|  c #93533D",
" . c #98573D",
".. c #9B5B3E",
"X. c #A05F3C",
"o. c #8B3A40",
"O. c #874845",
"+. c #875943",
"@. c #925B42",
"#. c #995B48",
"$. c #825954",
"%. c #A45A56",
"&. c #856B4C",
"*. c #926245",
"=. c #95694A",
"-. c #97724D",
";. c #836B54",
":. c #856B56",
">. c #986D57",
",. c #857455",
"<. c #8B7555",
"1. c #8E7A55",
"2. c #8D7B5A",
"3. c #937551",
"4. c #967755",
"5. c #9B7D54",
"6. c #9C7E5B",
"7. c #A66943",
"8. c #AD7449",
"9. c #A26657",
"0. c #AB765A",
"q. c #857562",
"w. c #8A7664",
"e. c #897A65",
"r. c #957A65",
"t. c #8B855C",
"y. c #998257",
"u. c #93845C",
"i. c #9E825C",
"p. c #958B5D",
"a. c #9D8B5E",
"s. c #9D915F",
"d. c #A58859",
"f. c #8E8267",
"g. c #968A66",
"h. c #999261",
"j. c #9A9969",
"k. c #978373",
"l. c #969372",
"z. c #9B9B74",
"x. c #9B9C77",
"c. c #A38A65",
"v. c #A88865",
"b. c #B68F6A",
"n. c #A69969",
"m. c #AB9974",
"M. c #B49B79",
"N. c #9FA068",
"B. c #A2A26C",
"V. c #A8A46D",
"C. c #AAA571",
"Z. c #A8A777",
"A. c #ADAC79",
"S. c #B6A67C",
"D. c #ACB274",
"F. c #AAB37B",
"G. c #B3B97E",
"H. c #C1986F",
"J. c #C29D76",
"K. c #B6C37B",
"L. c #B9CC7D",
"P. c #CBC67F",
"I. c #C6C97E",
"U. c #B69C82",
"Y. c #B9A788",
"T. c #ABB886",
"R. c #B9B888",
"E. c #BEB9A3",
"W. c #C6A784",
"Q. c #CCB38C",
"!. c #CAB599",
"~. c #D2BE93",
"^. c #C5BFAB",
"/. c #B7C787",
"(. c #BDD282",
"). c #BBD693",
"_. c #C1CC8B",
"`. c #C5D181",
"'. c #C9D78B",
"]. c #C3DA8B",
"[. c #C8CA94",
"{. c #D3CA9A",
"}. c #C8D298",
"|. c #D4DC99",
" X c #C7E08F",
".X c #CDE58D",
"XX c #D4E58E",
"oX c #CCE394",
"OX c #CEE299",
"+X c #D3E692",
"@X c #DAE695",
"#X c #DBE896",
"$X c #D4E49D",
"%X c #D9CDA2",
"&X c #D6D6A8",
"*X c #CDCCB4",
"=X c #D5DCB7",
"-X c #D7E4A3",
";X c #D9E5A5",
":X c #DCE5AB",
">X c #DEE6B1",
",X c #E1E5AD",
"<X c #E3E8AD",
"1X c #E3E6B3",
"2X c #E5E6BB",
"3X c #DEE1D1",
"4X c #E5E6C3",
"5X c #E5E6CC",
"6X c #E4E5D5",
"7X c #E6E6DC",
"8X c #E6E6E4",
"9X c #E7E8E6",
/* pixels */
"#X@XXXXX.X.X.X.X.X+X+X$X$X;X;X,X1X2X2X4X5X5X5X7X7X9X8X8X8X8X",
"@X@X+X+X.X+X.X.XoX+X+X$X$X;X,X<X<X2X2X2X4X4X5X7X7X7X8X8X8X8X",
"P.I.I.I.I.`.I.I.`.'.'.'.|.|._.R.{.,X2X2X4X4X4X5X6X7X7X7X9X9X",
" ... .........*. . ...#.*.V : > j E >.v.b.H.J.S.J.Q.Q.~.!.!.",
"i.d.y.0.4.-.-.-.=.#.@.' r + O X O o * i @.7.7.....7.7.7.8.8.",
"v.v.n.n.V.V.C.A.A.A.Z.B + + O O X @ + = H m.U.S.Y.Y.U.M.M.b.",
"| | { | { { [ [ ] ' C @ + O O + + @ + % & w.W.Q.~.{.%X%X&X=X",
"C.B.n.h.a.i.i.0.3.=.a X O X + O O O O . O e | X.X.X.7.7.8.8.",
"' O.+.>.S.}.&X}./.l.; O O O O + O O . . O ; l.m.n.v.v.r.6.>.",
"6.v.M.~.}./.G.F.x.,.t O       O O O . . . & r.U.U.U.Y.Y.!.*X",
"c.D.R.D.V.B.Z.Z.q.P i @ X O   X . . . . . , =.{ ] ` ` ` O.!.",
"3.t.s.n.N.B.F.l.! f 9 0 3 # @ o O . . . . N /.R.Y.S.n.v.r.Z.",
"B.p.h.j.n.Z.z.q.J 7 # q w 0 0 3 + . . . O ) ).).b.v.b.M.S.n.",
"&Xj.a.h.B.x.q.Q S 7 @ # 0 0 0 0 @ . O @ > x./.).6._ _ ` ] =.",
"V.u.p.h.x.f.~ S f 7 : r 8 1 3 1 @ O # 1 j x.T./.F.1.2.r.Z &.",
"3.1.u.p.q.( H s 4 K g.;.8 1 1 3 2 O # 4 T z.x.T./._.=X3XR.n.",
"3.1.u.u.! H H k K B.D.B.j 2 5 5 u u # j ( l.x.T.T.*X8X7X>XL.",
"3.<.u.u./ L S m T j.B.x.Y @ i g g r i P e.x.l.x.T.3X8X6X:X/.",
"4.1.u.u.2./ ~ Q Q f.f.W A % * 9 5 y L ~ e.e.f.g.*X9X8X4X;X/.",
"3.<.2.u.2./ I Q ( T A - - & & 7 7 x J I ( ( ( k.3X3X6X>X;X[.",
"4.<.2.1.<.^ F J P j = & % O + * 9 c n F I ~ ( E.8X8X5X>X;X|.",
"5.<.2.,.;.E L L S g 4 % O O O O 6 g J U I I k.6X8X7X4X:X;X;X",
"y.<.,.,.;.J s A F U S > X O . . d F F m m U ^.8X8X6X2X;X;X;X",
"y.<.,.:.U s S O.%.>.( L d % O . A I m n c k.6X8X8X5X1X:X;X;X",
"a.&.Z V t 6 G %.%.$.I L I A d - H L n g U *X8X8X7X4X,X:X-X;X",
"h.+.p $ & g #.0.9.$.S S F U P F P F n c w.5X7X8X5X2X,X:X;X;X",
"h.B O . 4 b =.0.0.9.G v c L L L S D g f r.-X>X4X5X2X,X,X:X;X",
"c.B . O 4 8 O.%.=.%.o.v q g S S m g S f R '.$X:X2X1X,X:X:X;X",
"N.V . O 5 2 p M M l 4 q q 4 7 f f f i 6 , A.$X-X1X1X2X:X:X:X",
"s.^ + + 8 5 # o + .   o + O O + * * & O O t.'.;X:X1X1X:X:X>X",
"p.<.h + p l 2 X . . . . . . . O O O . O @ ^ (.|.;X1X1X>X>X>X",
"y.t.M @ e z 3 O   . . . . . . . + @ + + + B G.'.-X,X>X>X>X>X",
"t.&.C r o 2 1 O     . . . . . . O + # @ O < D.(.oX:X>X>X>X>X",
"&.B e C e 1 2 @ . . . . . . . . . . + @ O $ N.(. X-X>X1X>X>X",
"V O : ' } C z i .   . . . . . . . . O + O O t.(.].OX:X1X1X>X",
"z $ . V } } } V $   . . . . . . . . . . . O V L.(.oX;X1X1X2X",
"' i O a @.*.*.} $ . . . . . . . . . O + o X B K.(. X-X1X1X2X",
"} Z : $ +.*.-.=.< . . . . . . . . . % @ @ @ a K.(.(.$X>X1X2X",
"*.*.C X V y.d.y.a   . . . . . . . . O # # @ e N.L.(. X>X2X2X",
"-.y.-.a , -.d.d.a   . O O O . . . O u h 1 @ < p.K.(. X-X1X2X"
};
