/* XPM */
static char *kaikyaku27[] = {
/* columns rows colors chars-per-pixel */
"30 40 217 2 ",
"   c #1D1718",
".  c #1E1819",
"X  c #281719",
"o  c #24191B",
"O  c #2A191D",
"+  c #37171C",
"@  c #341A1D",
"#  c #3B191E",
"$  c #32201F",
"%  c #2C1721",
"&  c #2D1921",
"*  c #351726",
"=  c #331A25",
"-  c #3C1B23",
";  c #351A29",
":  c #3B1A2B",
">  c #3F1A30",
",  c #3B2325",
"<  c #382228",
"1  c #392735",
"2  c #48191E",
"3  c #52191E",
"4  c #431B24",
"5  c #4C1A23",
"6  c #431B2A",
"7  c #4A1D2D",
"8  c #521A24",
"9  c #5D1A24",
"0  c #571B29",
"q  c #431B34",
"w  c #4C1C35",
"e  c #4B1E38",
"r  c #521C31",
"t  c #641E2A",
"y  c #691E2E",
"u  c #422425",
"i  c #472826",
"p  c #43222B",
"a  c #4C232D",
"s  c #4B2B2B",
"d  c #5A242C",
"f  c #542A2C",
"g  c #4A322A",
"h  c #5A312D",
"j  c #492535",
"k  c #572A35",
"l  c #512239",
"z  c #47363A",
"x  c #593737",
"c  c #66272A",
"v  c #6B2C2D",
"b  c #69322D",
"n  c #662933",
"m  c #742A38",
"M  c #653A37",
"N  c #753A3A",
"B  c #5A423A",
"V  c #6E4336",
"C  c #78483D",
"Z  c #73523F",
"A  c #3A3943",
"S  c #4E3343",
"D  c #4A3944",
"F  c #593B45",
"G  c #623A42",
"H  c #783D41",
"J  c #3F5360",
"K  c #574649",
"L  c #584B56",
"P  c #58505B",
"I  c #674847",
"U  c #774846",
"Y  c #6A524F",
"T  c #7B5A43",
"R  c #76554A",
"E  c #775652",
"W  c #7B624A",
"Q  c #7F665A",
"!  c #7E715A",
"~  c #515B65",
"^  c #4A666E",
"/  c #6F746F",
"(  c #854638",
")  c #85533E",
"_  c #95583E",
"`  c #A25C3D",
"'  c #853744",
"]  c #8A4B4C",
"[  c #875742",
"{  c #93504A",
"}  c #885A57",
"|  c #965853",
" . c #A15054",
".. c #87694C",
"X. c #95694A",
"o. c #99744E",
"O. c #886958",
"+. c #986557",
"@. c #857353",
"#. c #887658",
"$. c #947855",
"%. c #9B7C53",
"&. c #A66844",
"*. c #A9784E",
"=. c #A5685D",
"-. c #B3645F",
";. c #A87A59",
":. c #B27E57",
">. c #847965",
",. c #997467",
"<. c #B17569",
"1. c #B67768",
"2. c #C07D6D",
"3. c #70847F",
"4. c #9A8458",
"5. c #958A5E",
"6. c #9B925F",
"7. c #A58A5B",
"8. c #B58758",
"9. c #A3925D",
"0. c #AB935D",
"q. c #B2925B",
"w. c #96876C",
"e. c #9D9664",
"r. c #8A8772",
"t. c #9C8C72",
"y. c #999877",
"u. c #AB8A66",
"i. c #A79963",
"p. c #B29D63",
"a. c #B69866",
"s. c #A69576",
"d. c #B79478",
"f. c #ACA366",
"g. c #A7A36B",
"h. c #A6AB6E",
"j. c #ABAB6C",
"k. c #B5A366",
"l. c #B3A969",
"z. c #BAA868",
"x. c #AEB26F",
"c. c #B6B36E",
"v. c #AAA978",
"b. c #B2AB7A",
"n. c #AEB373",
"m. c #AFBB77",
"M. c #B5B973",
"N. c #B4BC75",
"B. c #C89A7B",
"V. c #D1997D",
"C. c #C2B373",
"Z. c #B4C275",
"A. c #BAC277",
"S. c #B4C47B",
"D. c #B7C87D",
"F. c #BACB7C",
"G. c #BDD17E",
"H. c #C6C177",
"J. c #C1D47F",
"K. c #758F86",
"L. c #819585",
"P. c #9CAA85",
"I. c #8DB79A",
"U. c #ACA381",
"Y. c #BBA584",
"T. c #AAB88A",
"R. c #C99C80",
"E. c #CEAF8D",
"W. c #C6B389",
"Q. c #C7B795",
"!. c #E0BE91",
"~. c #CDBBA0",
"^. c #BBC886",
"/. c #BED282",
"(. c #B7C893",
"). c #BAD792",
"_. c #A0DDB2",
"`. c #CDC389",
"'. c #C1D582",
"]. c #C4DB84",
"[. c #C7D98A",
"{. c #CBCD91",
"}. c #CAC698",
"|. c #D8C396",
" X c #C9D998",
".X c #D7D69C",
"XX c #E1CA95",
"oX c #E0D69C",
"OX c #CDE286",
"+X c #CBE28A",
"@X c #D3E486",
"#X c #D5E58C",
"$X c #D8E58F",
"%X c #CCE190",
"&X c #D6E591",
"*X c #DBE692",
"=X c #DAE59B",
"-X c #CDC7A2",
";X c #D2CDA6",
":X c #C9D8A9",
">X c #D6D7A8",
",X c #DBDAAB",
"<X c #D9DFB5",
"1X c #E2DDA9",
"2X c #E0DFBB",
"3X c #CCE4AA",
"4X c #D4E2AD",
"5X c #D8E5B7",
"6X c #E2E3A9",
"7X c #E3E5B4",
"8X c #E7E9B5",
"9X c #E5E6BC",
"0X c #E0DFD1",
"qX c #DCE6C3",
"wX c #E4E5C9",
"eX c #E6E6D5",
"rX c #E7E7E1",
/* pixels */
",X,X.X.X.X}.{. X:X:X>X-X^.g.j.x.e.>.G G G } l.N.5.e.v.s.U.b.",
"8.8.:.:.:.a.Q.<XeXqX4X^.u.+.Y K K x n ' =.=.M z K U.E.Q.~.-X",
"C.d.a.p.`.,X9X4X%X/.D.g.[ ( L ^ ~ p m -.2.] 1 J / $.&.` ` &.",
"E.W.W.{.[./.].G.S.S.S.D.b.#.D A 1 - n ' N 6 1 A A K $.w.7.u.",
"( ( _ i.N.S.G.D.S.S.Z.9.X.b & X o O # 5 4 O O & = F U.Q.-X;X",
"v T u.}.>X{.G.F.S.S.Z.5.( d = = * - 8 t y + O ; ; a { &.&.*.",
"O.Q.qXrXwX=XG.F.S.S.S.x.4.M = : : 6 8 2 2 O X & ; k X.$.o.X.",
"0XrXeX5X&XG.G.F.S.S.^.%X'.@.= = ; j a 2 3 # O & & Y (.m.h.g.",
"eX9X=X$XOXG.G.D.S.Z.Z.%X'.W = O % z F 5 5 4 O O & K :X0X5X<X",
"6X*X#X@XOX].G.D.S.m.h./.h.h O O % ; G x 4 4 = & % z T.qXqXwX",
"*X$X$X@XOXG.G.D.S.h.e.N.5.f O O O % I s.O.n % & % 1 y.5X5XwX",
"*X$X#X@X@X]./.D.m.6.@.6.W a O X O % F U.s.k O O = ; ! 3X5XqX",
"*X#X#X@X@XOX/.D.h.@.T R M p O , s = z t.O.: O X o & I (.3X5X",
"$X$X#X@XOXG.G.S.e.T Z R R I #.B.R.| a R Y a O x x < Y (.5X5X",
"$X$X$X#X@X/.G.m.e.T R #.w.d.E.XX|.1.6 j k 6 - { d.W.W. X7X7X",
"$X$X#X#X#XOXD.m.5.Z M U E }  .2.V.=., * - O a { 1.!..X{. X3X",
"$X*X$X#X$X].S.n.4.M - 4 l k 0 n | N O o     k -.1.R.V.s.T.).",
"*X*X*X$X$X'.m.h.W 5 + X h M 4 * - = & h s @ - x U { +.>.y.^.",
"*X*X*X$X$XG.h.@.i # ; A L F > * : & p <.d.r = ; * I ,.w.! ! ",
"*X*X*X*X*XF.@., o = P K.K.S > 6 ; & - ] | w ; > e Q t.y.L.I.",
"*X*X*X*X*Xn.i   O D / K./ q - : * & w ' m : > > e E w.t.P._.",
"*X*X*X*X=Xm.g o = L r.}.-XY.t.E , O n  .' : q q q l I } r.I.",
"*X=X*X*X&X/.B X d E d..X8X8X9X7Xs.s n m q : q q q - 7 k E 3.",
"*X*X*X*X&X].T 4 H U m ;.oX8X8X9XwXW.<.U p q q q > = - l l P ",
"*X*X*X&X+X+Xe.V H d 6 , O.Y.1X1X2XoX,X-X} q q q : = * 7 q S ",
"*X*X$X#X+X'.w.N n 5 % * : s O.|.!.Q.d.,.U w e q : ; - w q S ",
"*X*X#XOX].n.U c 0 - = = ; : 6 I ,.U } l w l e > ; & ; 7 ; z ",
"*X$X[.J.F.@.d 0 5 @ = * * : q q q q q e l e q : & & * : & I ",
"$XOXJ.G.c.C @ f b @ @ = ; ; > > q q e e j q q ; O o O i S ! ",
"#XOXJ.Z.p.*.i i C # O & & & = = : ; q e e q > ; X o O i $.b.",
"+XOXJ.l.8.z...+ n , O O & O O & & & ; : : : ; & o   < 3.y.x.",
"+X].A.k.k.C.q.h s h O o X O o O & & & = = = & X     z T.v.g.",
"+XG.9.9.k.H.C.o.i M @ o X o X X O O o o O O O o o . < ! #.9.",
"+Xe.v b ..f.l.l.T h V @ X o O X O O & o o o o . o . @ M Z 6.",
"A.U t v o.f.f.k.9.V N d @ X o o O X o o o o o .   u h h g 9.",
"..9 9 [ f.c.M.c.0.) c c 9 3 , @ O O X o o o o . g %.7.M i 6.",
"c 9 b 7.l.Z.F.A.q.o.) c 9 t 9 # - 4 4 < O X X u %.c.$.$ i i.",
"3 9 _ q.q.c.A.A.k.7.o.) c 9 0 4 - - p x u @ + b 7.%.g O Z j.",
"3 c *.q.q.q.l.c.z.k.7.o.[ v 9 0 7 p < , , - 5 N o.h @ V 9.M.",
"3 ( 7.8.q.q.0.f.z.z.k.0.%.X.C v d k F F k 5 2 C V + V o.0.Z."
};
