/* XPM */
static char *kaikyaku00[] = {
/* columns rows colors chars-per-pixel */
"30 40 200 2 ",
"   c #1D1617",
".  c #1C1919",
"X  c #221618",
"o  c #28171C",
"O  c #23191A",
"+  c #2C191C",
"@  c #33191C",
"#  c #3C191D",
"$  c #2B201E",
"%  c #351C22",
"&  c #3B1A22",
"*  c #372525",
"=  c #44191D",
"-  c #4B191E",
";  c #521A1F",
":  c #431A23",
">  c #4C1A24",
",  c #451D2A",
"<  c #4B1B2A",
"1  c #531B24",
"2  c #5B1B24",
"3  c #521C2B",
"4  c #5C1E2B",
"5  c #571E30",
"6  c #5B1D33",
"7  c #641925",
"8  c #641C2A",
"9  c #6D1D2B",
"0  c #741B2D",
"q  c #791B2C",
"w  c #791F32",
"e  c #452527",
"r  c #4B232A",
"t  c #51232C",
"y  c #592629",
"u  c #4A312E",
"i  c #5F322E",
"p  c #4A2531",
"a  c #5A2434",
"s  c #592D38",
"d  c #4B3D34",
"f  c #533438",
"g  c #5B343B",
"h  c #63272B",
"j  c #762A2E",
"k  c #632C31",
"l  c #6D2831",
"z  c #762231",
"x  c #7C2335",
"c  c #752933",
"v  c #643231",
"b  c #683937",
"n  c #6C3C3A",
"m  c #7C3534",
"M  c #7A3A34",
"N  c #78383A",
"B  c #4B4239",
"V  c #5B453A",
"C  c #584A3C",
"Z  c #5D503D",
"A  c #67493D",
"S  c #78463C",
"D  c #65533F",
"F  c #77513E",
"G  c #663A41",
"H  c #5D4645",
"J  c #6A4144",
"K  c #6B474A",
"L  c #6D4A4C",
"P  c #764946",
"I  c #704F4F",
"U  c #735242",
"Y  c #785945",
"T  c #7A5A4A",
"R  c #745651",
"E  c #755B54",
"W  c #785E57",
"Q  c #7A635A",
"!  c #7A6558",
"~  c #7B7754",
"^  c #842639",
"/  c #86243A",
"(  c #812B3B",
")  c #813B39",
"_  c #8A4136",
"`  c #84423B",
"'  c #8B443A",
"]  c #8C4A3B",
"[  c #8D503F",
"{  c #833E42",
"}  c #854C42",
"|  c #954848",
" . c #8C5645",
".. c #8A544B",
"X. c #8B5B4C",
"o. c #925448",
"O. c #9C4E50",
"+. c #985C54",
"@. c #A85B5A",
"#. c #86674D",
"$. c #8A6A4A",
"%. c #9C664C",
"&. c #8F724E",
"*. c #866755",
"=. c #8A6A53",
"-. c #816C5F",
";. c #956C55",
":. c #8C7553",
">. c #897A57",
",. c #95745B",
"<. c #9A755A",
"1. c #A66548",
"2. c #A9694C",
"3. c #A77655",
"4. c #AD705B",
"5. c #847363",
"6. c #8A7965",
"7. c #997E61",
"8. c #AF7364",
"9. c #938B5E",
"0. c #A98A5C",
"q. c #8C8568",
"w. c #8D856B",
"e. c #9B8464",
"r. c #9C8965",
"t. c #968B6D",
"y. c #9D9663",
"u. c #9A8774",
"i. c #9B9B76",
"p. c #9A9778",
"a. c #A28866",
"s. c #B58766",
"d. c #A89767",
"f. c #BD8A71",
"g. c #A39273",
"h. c #A69A75",
"j. c #B99677",
"k. c #9EA172",
"l. c #A5A66D",
"z. c #B2A569",
"x. c #A6A979",
"c. c #AEB674",
"v. c #ADB07E",
"b. c #B3B878",
"n. c #B5C577",
"m. c #B4C47A",
"M. c #BACC7C",
"N. c #BDD27E",
"B. c #A59F86",
"V. c #A99E86",
"C. c #B39A80",
"Z. c #A3AE80",
"A. c #ACBB88",
"S. c #B9BB85",
"D. c #C0BB8D",
"F. c #C2B99B",
"G. c #BACC84",
"H. c #B3C189",
"J. c #BDD483",
"K. c #B9C492",
"L. c #BDD090",
"P. c #C3C98D",
"I. c #C0D784",
"U. c #C1DB85",
"Y. c #C3DC8B",
"T. c #D3C79E",
"R. c #D5CF9E",
"E. c #C8D895",
"W. c #CED09B",
"Q. c #C4E087",
"!. c #C5E28A",
"~. c #CAE48E",
"^. c #C4E393",
"/. c #CBE494",
"(. c #CCE499",
"). c #D2E59C",
"_. c #C9C5A6",
"`. c #D3CCA6",
"'. c #C7DFA4",
"]. c #D1D0A1",
"[. c #D4DCA0",
"{. c #DAD4B7",
"}. c #D6E5A2",
"|. c #DAE5A4",
" X c #DDE5AA",
".X c #DAE7B2",
"XX c #E2E6AC",
"oX c #E6E8AE",
"OX c #E4E6B4",
"+X c #E5E6BB",
"@X c #DBDAC9",
"#X c #E1DDC5",
"$X c #E5E6C3",
"%X c #E6E8C3",
"&X c #E5E6CC",
"*X c #E6E8CD",
"=X c #E5E6D3",
"-X c #E7E8D7",
";X c #E5E6DB",
":X c #E6E6E5",
/* pixels */
"XX).~.Q.I.N.n.n.c.n.N.U.!.!./.).|.oX+X$X&X;X:X:X:X:X:X:X:X:X",
"oX).~.Y.U.N.M.n.M.N.J.J.!.^./.).|.oX+X$X&X;X:X:X:X:X:X:X:X:X",
"XX)./.!.U.N.N.M.N.J.J.U.!.!./.).|.oXOX$X&X=X:X:X:X:X:X:X:X:X",
" X).~.!.U.I.N.I.J.U.J.I.J././.).|. X+X+X$X&X:X:X:X:X:X:X:X:X",
"|.).~.!.Q.U.U.I.J.G.~ C C ~ G.).|. XOX+X$X&X;X:X:X:X:X:X:X:X",
"|.).~.!.Q.U.U.U.G.>.% O   X d v.|.XXOX+X$X&X-X:X:X:X:X:X:X:X",
").).~.!.!.Q.Q.I.>.& + + + + o d P.XXoX+X$X&X-X:X:X:X:X:X:X:X",
")./.~.!.!.Q.U.c.u o % > > % O o q.XXXXOX+X$X=X-X:X:X:X:X:X:X",
")./.~.~.!.!.Y.l.# = ; q q > X X V [.oXOX+X$X&X=X:X:X:X:X:X:X",
"/./.~.~.~.U.Q.b.i 7 9 ^ ^ 2 o o r D.oXOX+X+X&X=X-X;X:X:X:X:X",
"3.0.0.d.z.z.z.b.S 7 7 ; y 1 : = 2 t.oXoX+X+X$X*X-X-X;X:X:X:X",
"[ [ ] ] ] _ ' ' h # # @ # 8 z 3 N ! W.R.R.T.`.{.{.#X#X=X=X=X",
"0.e.r.r.r.e.7.<.Y e # 2 1 9 z 1 u.B.p.i.A.S.s.2.4.4.s.s.f.j.",
"` _ _ _ ] o.o.o.o.l - 2 - = 2 1 g.6.W 5.B.H.K.d.3.3.%.1.%.%.",
"a.r.e.,.;.X.X. .' ' t # - - # f u.I K W -.w.A.'.`.`.R.`._.F.",
") M ) ) } ..X.<.g.! u # - 2 = g ! g K g I ! i.H.b.1.1.3.3.s.",
",.,.#.X.} N } 3.g.K , < # # + * % % p p s L 5.p.A.g.<.=. .} ",
"j m S  .X.7.=.n G a : , & # o + O O O o p s G 6.B.K.h.j.F._.",
"v S M M m #.b 1 a < : : & + o + o o o O % < G ! w.A.=.( C.;X",
"F 9.y.y.r.=.y 1 , : & & % O O o + o O o o & G E w.x.A.t.u.@X",
"r.P.n.m.x.Y 2 1 : : & % + O O & : & O O   + g E 5.w.Z.A.;.F.",
"E.b.l.m.y.n > > : & + @ @ & : 8 2 2 X   . o s ! w.p.x.i.N e.",
"y.&.d.l.#.6 3 > : & + & > 9 7 7 x w % @ % . % f L -.Z.u.E T ",
"$.:.y.U 6 3 > < < 3 3 3 > x / ^ { ^ 2 3 + O f L I V.&X`.t.U ",
"&.r.h., 3 4 3 : : 3 6 < + 2 ^ w x / 4 % * H Q Q w.@X-X Xh.A ",
"$.l.K.f < 6 6 a n g 6 : X # z z 0 x G E Q Q E 5._.-X$X|.c.b ",
"#.v..X6.> 3 < k 8.s...< @ @ 7 q 0 P 5.5.Q E E u.-X-X.X(.L.J ",
"#.S.}.*.1 & + > O.f.8.k & @ : 2 G I K I I G G _.-X$X|./.L.U ",
">.L.(.$.1 @ @ + v 4.O.4 @ @ + % R R a 5 p < u.=X=X+X(.(.!.>.",
">.L.E.$.y @ + X # y 1 8 3 # & t | +.p O . d {.;X&X.X(.^.^.l.",
"#.>.&.F y @ X X O   @ ; 1 @ @ l O.@.t % + Z.-X=X+X}.(.^.E.b.",
"Y b v b h + X o O .   o = @ X 6 w x m z Q +X-X&X.X(.(.^.^.Y.",
"C + @ e = . . O . . . . . . . - z c } P F.&X&X+X|.(./.Y.^.^.",
"V . . . . . . . . . . . . . . * ) ` +.a.c.[.OXOX}.(.^.^.^.^.",
"C . . . . . . . . . . . . . . O v N m X.c.G.).|.}.(.^.^.^.^.",
"V . . . . . O X . . . . . . . . o @ # # ,.J.Y.(.(.(.^.^.^.^.",
"D # + + O   X X + . . . . . . . . . . . D c.Y./.}.(.^.^.^.^.",
"F ; ; ; # O @ @ + . . . . . . . . . . . d l.G.~.(.(.^.^.^.^.",
"F ; ; 7 - O # = @ . . . . . . . . . . . * y.n.!.(.(.(.(.(.(.",
"F y ; ; - O @ = + . . . . . . . . . . . $ 9.c.N././././.^.(."
};
