/* XPM */
static char *kaikyaku16[] = {
/* columns rows colors chars-per-pixel */
"30 40 213 2 ",
"   c #1D1718",
".  c #1C1919",
"X  c #231719",
"o  c #2D171A",
"O  c #23191A",
"+  c #2B191D",
"@  c #30171F",
"#  c #331A1D",
"$  c #3C1A1D",
"%  c #2E201F",
"&  c #34201E",
"*  c #2D1A21",
"=  c #331A22",
"-  c #3D1B22",
";  c #3A1929",
":  c #2E2324",
">  c #322322",
",  c #382224",
"<  c #3A2925",
"1  c #3D2729",
"2  c #41191D",
"3  c #4C191E",
"4  c #51191F",
"5  c #431B23",
"6  c #4B1B24",
"7  c #491C29",
"8  c #551A22",
"9  c #5B1A22",
"0  c #521C2B",
"q  c #641A24",
"w  c #671B29",
"e  c #771A29",
"r  c #4C2224",
"t  c #422925",
"y  c #44262C",
"u  c #4D2229",
"i  c #4C2A2C",
"p  c #53242B",
"a  c #5B242B",
"s  c #55292B",
"d  c #45332C",
"f  c #4C322B",
"g  c #58392F",
"h  c #4D2A33",
"j  c #542433",
"k  c #5B2A35",
"l  c #5A2836",
"z  c #4A3636",
"x  c #543232",
"c  c #593737",
"v  c #682A33",
"b  c #632D39",
"n  c #6A3030",
"m  c #683435",
"M  c #62333C",
"N  c #713936",
"B  c #4F4233",
"V  c #5B4339",
"C  c #6A443D",
"Z  c #674838",
"A  c #734335",
"S  c #7A4739",
"D  c #7A4B3A",
"F  c #6C533F",
"G  c #663D43",
"H  c #6A3E43",
"J  c #674344",
"K  c #6B4444",
"L  c #6C4A48",
"P  c #714F4B",
"I  c #6D5747",
"U  c #7A5646",
"Y  c #74524D",
"T  c #715852",
"R  c #7A634A",
"E  c #7A6A4D",
"W  c #7D6457",
"Q  c #7D7460",
"!  c #883939",
"~  c #874A39",
"^  c #904436",
"/  c #964D39",
"(  c #8C553C",
")  c #9A573C",
"_  c #A05C3E",
"`  c #875C46",
"'  c #8E5C42",
"]  c #89544F",
"[  c #945A49",
"{  c #A55D40",
"}  c #8B6648",
"|  c #9A6445",
" . c #936946",
".. c #996947",
"X. c #966A4A",
"o. c #93724E",
"O. c #9D734D",
"+. c #846A58",
"@. c #9C6651",
"#. c #8B7758",
"$. c #9B7452",
"%. c #9C7B53",
"&. c #A86444",
"*. c #AC6D4C",
"=. c #A5724E",
"-. c #B1734D",
";. c #A76C55",
":. c #AC7153",
">. c #A37C52",
",. c #A67258",
"<. c #B27F5A",
"1. c #BA7968",
"2. c #96845A",
"3. c #93895F",
"4. c #A28658",
"5. c #A4835C",
"6. c #AA8C5C",
"7. c #B88558",
"8. c #A5925E",
"9. c #BE915D",
"0. c #8A856B",
"q. c #928361",
"w. c #968C61",
"e. c #958C6C",
"r. c #9B9463",
"t. c #9E9B65",
"y. c #989569",
"u. c #948F71",
"i. c #999876",
"p. c #A58D63",
"a. c #AA8E64",
"s. c #B98768",
"d. c #A69261",
"f. c #AB9362",
"g. c #A49D66",
"h. c #A5946C",
"j. c #AD956C",
"k. c #A29E6B",
"l. c #AA9A6B",
"z. c #A59676",
"x. c #AC9B75",
"c. c #B39577",
"v. c #A6A163",
"b. c #A3A46C",
"n. c #A9AD6C",
"m. c #ACB26E",
"M. c #A9A474",
"N. c #AAAF71",
"B. c #BAAB76",
"V. c #B6A87C",
"C. c #ADB473",
"Z. c #AEB877",
"A. c #B2BB75",
"S. c #B3BE78",
"D. c #C39A66",
"F. c #B5C47A",
"G. c #B8C57A",
"H. c #B7C97C",
"J. c #B9C97D",
"K. c #A79888",
"L. c #A6AD82",
"P. c #BAA883",
"I. c #ACB888",
"U. c #BAB988",
"Y. c #B4A398",
"T. c #BCB999",
"R. c #C9AE87",
"E. c #C2AD8B",
"W. c #C6BA97",
"Q. c #C1BFA1",
"!. c #BAC689",
"~. c #BDD187",
"^. c #BBD696",
"/. c #C5CD8C",
"(. c #C4D488",
"). c #C9DC8C",
"_. c #C8C598",
"`. c #CCC99B",
"'. c #CBE18D",
"]. c #CCE291",
"[. c #C2E29B",
"{. c #D3E294",
"}. c #D3E399",
"|. c #D9E49B",
" X c #C5C4A1",
".X c #CCC3A4",
"XX c #CCCBA8",
"oX c #D2CAA8",
"OX c #C9DDA1",
"+X c #D4DAAA",
"@X c #CDCABD",
"#X c #D6DBB5",
"$X c #DDDBBC",
"%X c #C6E5A3",
"&X c #CCE6A8",
"*X c #D7E4A2",
"=X c #D6E3A4",
"-X c #DCE5AB",
";X c #D8E5B6",
":X c #E1E6AE",
">X c #E3E6B4",
",X c #E1E8B4",
"<X c #E5E6BC",
"1X c #DEDDC2",
"2X c #D6D4CA",
"3X c #DBD9D1",
"4X c #E5E6C4",
"5X c #E5E6CB",
"6X c #E5E5D3",
"7X c #E7E8D6",
"8X c #E5E6DB",
"9X c #E6E6E4",
"0X c #E7E8E6",
/* pixels */
"6.8.f.l.l.l.l.l.l.h.h.h.h.h.h.z.j.c.x.x.x.x.x.V.c.c.c.x.p.p.",
"B.B.B.B.B.B.B.V.B.E.E.E.E.W.W.W.W.W.Q.oXoXoX#X$X$X4X1X4X1X$X",
"_ ) _ ) _ / / / / ^ ! ! ! / ) &.&.&.-.-.-.-.7.7.7.9.9.D.D.D.",
"f.f.d.p.p.a.5.2.A s u p a a N >.a.f.s.6.6.4.>.>.>.=.....| ~ ",
"p.j.W.+X#XOXU.2.1 + * * * = ; T T..XQ.Q..XoXXX.X X X XW.W.z.",
"P._.OXOX(.~.o.6 * * O * = ; ; ; s [ *.:.:.*.:.;.;.,.,.c.3X2X",
"/./.F.F.H.H.R ; = * + + = = * * # g 5.6.5.>.=.=.@.[ ( ..XX9X",
"n.m.F.F.H.A.V = = = * = # + O O X > L.+X`._.`.`.`._._.T./.3X",
"n.A.A.G.!.m.< O + + * * = * O O . . 0.;X_.s.*.*.-.:.<.a.A.+X",
"m.A.S.F.H.M.< O O O O + + o O . . . I %X&X!.%. .| ,.;.) v.J.",
"n.C.A.S.H.Z.V + O O O O O X . . . . I ^.%X%X^.C.I.3X2Xq.8.G.",
"n.N.A.S.Z.e.Y 5 # # + + # O .   . : u.!.^.%X%X%X5X9X8XXXF.F.",
"N.N.C.Z.b.W c w q 6 8 4 9 2 X X = y i.I.!.^.[.#X9X9X7X,XJ.m.",
"b.n.N.C.e.P l 0 q ! e e q 9 o o 6 x u.L.I.!.%X8X9X9X4X>X~.n.",
"b.b.b.b.q.J l 6 3 9 q q q 4 $ o 6 x 0.z.L.I.$X9X9X8X<X<X!.v.",
"g.b.b.k.q.c 0 6 3 8 q 4 4 9 4 0 7 c +.u.u.I.8X9X9X6X<X<X/.8.",
"t.t.t.t.w.J 0 5 # 2 8 4 8 8 a a 7 M W +.+.@X0X9X9X5X<X<X`.g.",
"t.t.y.r.q.Y j 6 # + # $ 5 = 5 8 8 b H K K.9X9X9X8X4X<X<X+Xd.",
"w.y.w.w.q.Y l 7 = X + O O . # 2 0 l b ] 2X9X9X9X5X4X<X>X-Xl.",
"3.r.w.q.#.J j 6 + + + + O O O + - 7 b Y.9X9X9X9X5X4X<X<X>XM.",
"2.3.3.E K M j - O + O + O O O O X o f oX7X9X9X8X5X4X<X<X<XV.",
"#.2.R < z J j ; o O O O O O O O X   d `.,X4X8X7X5X4X<X<X<XP.",
"R I >   z W K y O . . . . . . o + ; = M.:X>X4X5X5X4X<X<X4XU.",
"d + . X d T H y O O . . . . X + v N - W |.>X4X4X5X4X<X4X4X_.",
"B . . o g P M u O + + O . . O i 1.1.x V /.:X<X4X5X5X4X4X4X+X",
"E O X r S U L h O O O . . .   J R.1.n i B.|.>X4X5X5X4X4X5X+X",
"r.t O N ~ K J 1 . O . . * * O U 1.! 0 j w.|.:X<X4X5X5X5X5X;X",
"v.F t f S l G 1 O . . . O + * z v 6 0 p +.{.|.>X4X5X5X5X5X;X",
"v.2.D # a l K , X X . . . . . .   O 5 j K (.|.:X<X5X5X5X5X-X",
"8.I N 2 6 m c , X . . . . O . . . . 1 G M U.|.|.,X4X6X5X5XT.",
"F % m A N [ v $ . . . . . O O . . . h l l r.{.*X-X4X6X5X6X3X",
"< . g X.X.$.[ D : . . . . . . . . * j j 8 #.{.}.-X4X5X6X8X9X",
"D O > } ..@.@.' i . . . . X o + O z M 0 6 I ).{.|.<X5X6X8X9X",
"X.Z X Z =.[ [ @.Z . . . . X m m c H 0 6 = c !.'.{.,X4X7X8X9X",
"=.4.f < o.[ [ $.} : . . O o w v H k 7 5 # t C.'.].-X4X6X8X9X",
"6.8.} # A [ ] 4.6.1 . . i p - 8 7 7 0 l - @ t.].].*X<X6X9X9X",
"4.8.4.Z & `  .%.8.V . . C D u $ $ 6 j c 6 $ 3.'.'.}.<X6X9X9X",
"' o.%.%.Z A D ' =.Y : : C  .} D r 7 l k s a 8.).'.].-X5X9X9X",
"..4.4.4. .( ( ( ( o.Q Q ` ' ..O.N 3 5 3 u C g.).'.[.*X5X8X9X",
"O.4.8.8. . .o.' ' #.i.i.` '  .X.D 4 6 p J U } ~.).'.*X4X9X9X"
};
