/* XPM */
static char *kaikyaku05[] = {
/* columns rows colors chars-per-pixel */
"30 40 209 2 ",
"   c #1C1919",
".  c #2A171B",
"X  c #23191A",
"o  c #2B191B",
"O  c #31171C",
"+  c #34191C",
"@  c #3C191D",
"#  c #331B22",
"$  c #3B1B22",
"%  c #3F1A29",
"&  c #392223",
"*  c #42191D",
"=  c #4B191E",
"-  c #53191F",
";  c #431A24",
":  c #4C1B23",
">  c #441B29",
",  c #4C1B2D",
"<  c #531B23",
"1  c #5B1B24",
"2  c #561C2B",
"3  c #4F1B30",
"4  c #541D30",
"5  c #651A25",
"6  c #6A1C26",
"7  c #651D2C",
"8  c #6C1C2B",
"9  c #721D2C",
"0  c #781B2C",
"q  c #4C2324",
"w  c #47282C",
"e  c #572326",
"r  c #552129",
"t  c #572728",
"y  c #5D242A",
"u  c #5B322E",
"i  c #4E2A33",
"p  c #582837",
"a  c #4A3631",
"s  c #5C333B",
"d  c #593439",
"f  c #62222C",
"g  c #6A222C",
"h  c #65292C",
"j  c #6C2C2C",
"k  c #72242B",
"l  c #732D2D",
"z  c #642434",
"x  c #6A2A35",
"c  c #6A2B35",
"v  c #772735",
"b  c #6C3335",
"n  c #60313D",
"m  c #6A3638",
"M  c #743432",
"N  c #783835",
"B  c #76323B",
"V  c #7D333D",
"C  c #5A4839",
"Z  c #6A4137",
"A  c #644038",
"S  c #6E453B",
"D  c #724136",
"F  c #74473C",
"G  c #66533F",
"H  c #79503E",
"J  c #643B42",
"K  c #694649",
"L  c #734846",
"P  c #714B4B",
"I  c #73524D",
"U  c #7B5748",
"Y  c #7C5451",
"T  c #765A55",
"R  c #785D56",
"E  c #7B664B",
"W  c #7C645A",
"Q  c #7F6A5E",
"!  c #822437",
"~  c #832A3A",
"^  c #8D293E",
"/  c #813433",
"(  c #843837",
")  c #8A333D",
"_  c #814536",
"`  c #85413B",
"'  c #93463A",
"]  c #934C3A",
"[  c #95523D",
"{  c #9B543C",
"}  c #9C593E",
"|  c #8D2F41",
" . c #883743",
".. c #953D47",
"X. c #8B4946",
"o. c #97444B",
"O. c #9B4A4D",
"+. c #885544",
"@. c #805C44",
"#. c #8B5C45",
"$. c #945444",
"%. c #945945",
"&. c #9B5C42",
"*. c #975A49",
"=. c #9F4E50",
"-. c #885A55",
";. c #9A5755",
":. c #9A5D52",
">. c #A04D4F",
",. c #A55B58",
"<. c #846147",
"1. c #84644A",
"2. c #89674A",
"3. c #8B6A4A",
"4. c #93634D",
"5. c #96684B",
"6. c #94744F",
"7. c #8A6C53",
"8. c #836A5A",
"9. c #966E52",
"0. c #996C51",
"q. c #9C6A59",
"w. c #997557",
"e. c #997D53",
"r. c #997B5C",
"t. c #A86549",
"y. c #A9695C",
"u. c #A27E5A",
"i. c #B07555",
"p. c #857463",
"a. c #897663",
"s. c #8B7C66",
"d. c #957E65",
"f. c #AF7266",
"g. c #8D875C",
"h. c #99845B",
"j. c #8E876D",
"k. c #92896D",
"l. c #9C9765",
"z. c #999876",
"x. c #A38A67",
"c. c #B98869",
"v. c #A4996A",
"b. c #B68D72",
"n. c #A89977",
"m. c #9FA172",
"M. c #A7A36A",
"N. c #B1AD6E",
"B. c #A0A57D",
"V. c #A8A878",
"C. c #B8AC7A",
"Z. c #AFB672",
"A. c #ABB37F",
"S. c #B2BB77",
"D. c #B5B976",
"F. c #B5B57D",
"G. c #C39271",
"H. c #CA9C7C",
"J. c #B5C47A",
"K. c #BCC87C",
"L. c #C0CA7C",
"P. c #A7A682",
"I. c #B9AA88",
"U. c #AAB887",
"Y. c #BDB48C",
"T. c #BBB993",
"R. c #CCB089",
"E. c #CBB08F",
"W. c #D0BC8F",
"Q. c #D2BDA2",
"!. c #AEC18C",
"~. c #B9C788",
"^. c #BED383",
"/. c #BBC793",
"(. c #C2DB85",
"). c #C4DD8A",
"_. c #C9DD8E",
"`. c #C2C495",
"'. c #C6C997",
"]. c #D3C893",
"[. c #C6D498",
"{. c #D5D797",
"}. c #C6E28A",
"|. c #CAE48C",
" X c #C6E494",
".X c #CCE594",
"XX c #CDE599",
"oX c #D2E595",
"OX c #D4E59B",
"+X c #DAE79C",
"@X c #C6CAA2",
"#X c #DFDCA3",
"$X c #D7DAB6",
"%X c #DCE5A2",
"&X c #D8E6A5",
"*X c #DDE5A9",
"=X c #E1E5A6",
"-X c #E2E5AB",
";X c #E4E6B3",
":X c #E5E6BC",
">X c #DEE1C4",
",X c #E5E6C4",
"<X c #E5E6CC",
"1X c #E6E8CE",
"2X c #E5E6D4",
"3X c #E6E8D4",
"4X c #E6E6DB",
"5X c #E7E8D9",
"6X c #E6E6E5",
/* pixels */
"-X%XoX|.).(.L.L.L.}.L.(.(.}..X.XoX&X-X;X:X,X1X3X6X6X6X6X6X6X",
"-X+XoX|.}.(.}.}.(.}.}.(.}.}. X.X+X&X-X;X:X,X1X3X6X6X6X6X6X6X",
"%X%X.X|.}.}.}.K.(.L.(.(.}.}. X.X+X+X=X;X:X:X,X1X5X6X6X6X6X6X",
"%X+X.X|.}.}.}.}.(.(.(.}.}.}.}. X+X+X=X;X;X:X,X1X5X6X6X6X6X6X",
"+X+XoX|.}.|.L.}.K.}.}.}.|.|.|.oX+X+X*X;X;X;X,X1X2X4X6X6X6X6X",
"+XoX|.|.|.|.|.L.^.J.l.g.m.K.|..X+X+X=X-X;X:X:X1X<X3X5X6X6X6X",
"XXoX|.|.|.|.|.}.S.C & o & G V.|.+X+X-X;X;X;X:X,X<X<X3X4X4X6X",
"N.D.J.K.L.L.L.L.E o X o + o a N.+X+X*X-X;X;X:X:X,X<X3X5X5X6X",
"[ ] ] [ [ } &.+.& o @ f v : . K L.].{.{.#X-X;X:X,X<X<X1X2X2X",
"v.v.h.r.w.0.4.u . @ 5 ^ ..v $ O l ) >.&.t.i.i.c.b.H.R.E.Q.Q.",
"%.%.*.0.w.u.x.A @ 5 0 ^ o.| : $ 6 [ %.$.*.&.5.} { { { &.t.t.",
"x.r.5.4.+.' ' j * 6 0 k f z v 8 v d./.'.`.`.Y.I.I.Y.I.n.b.b.",
"0.0.w.w.r.r.d.4.q = - @ * 5 ..~ -.a.z.P./.[.[.Y.c.G.H.R.W.Q.",
"0.#.` ( / ( ( X.L ; @ = 8 5 ! v d.B.Q p.z.z.U./.h.[ [ ' ] $.",
"4.9.r.r.r.w.9.x.V.S : 1 8 - < 7 p.z.T W 8.p.z.!.'.C.P.n.x.r.",
"- 6 k l V ( r.U 7.@.2 * * - 1 < a.p.T K K T j.z.~.V.;.q.f.I.",
"h F <.<.<.#.3.m 8.7.n O * < 7 > a & a p p K T s.P.U.4.( N 4.",
"F h.F.D.Z.M.@.M -.P p > = @ # o . . X X % 3 J W j.P.~.V.V.v.",
"F.{._.D.L.v.H b U J 3 3 > X . + # o o o o % n R g.B.A.4.$.:.",
"_.F.h.v.J.h.m b I s 3 > ; X   . X o o o X # i I Q k.B.s.l l ",
"v.e.6.M.Z.3.b h I z , > > X   X # ; # X X X & I a.k.B.@Xn.E ",
"h.6.h.K.D.@.h x L p > ; % X . @ 1 1 1 o . X # J a.z.@X1X;X`.",
"e.6.n.*XT.H h z P n , $ @ @ * 1 8 9 ~ : < # X ; s s.>X3X-X_.",
"6.6.v./.n.F f 2 J n z 4 , < 9 8 0 ! | 9 < O X $ I @X3X,X+X).",
"6.3.Z d m c x z z x J v x 2 k ! ^ ! ^ 9 ; + # d P.1X2X;XXX.X",
"6.3.q = 2 z z x B y.f.G.f.J = 5 v 8 9 < @ $ d j.$X5X<X*X.X.X",
"6.<.q * : , 4 2 v y.G.H.f.| $ * k 8 8 @ + i I T.1X2X:X&X.X.X",
"6.U + + @ @ * @ < | =.,...0 o ; 8 8 = # i K k.$X2X1X;XOX.X.X",
"3.H u q = = * + $ 7 V ! 0 8 b B - + o d W W T.1X2X,X*XXX X X",
"3.S q q e y + X # 2 7 9 ) =.O.l g < K W W n.,X3X<X;X&XXX X X",
"1.Z X   X X   X o $ = 8 ~  .) O.o.V K p.s.'.,X<X:X*X&XXX X.X",
"1.A           = @ X o = 8 ~ ) ..X.Y K d I U.{.;X:X*XOXXX X X",
"1.Z X       X @ o X   . * - 6 6 r L W I d l.^..X*X&XOXXX X X",
"1.Z @ X X X   X o X     X o + X f O.;.-.s W ^.).OX+XOX.X X X",
"<.D - * @ + X X + o X X       X k >.,.,.X.U D.).XXOXOXXX XXX",
"<.D t - - * o o * @ o         o k ) o.4.4.4.M.^..X+XOXXXXXXX",
"<.D e - = @ o X + o o           1 ( &.X.h t h.J.).OXOXOXXXXX",
"H b - - = = * o + @ o           o - 6 = X X g.J.^..XXXOXXXXX",
"D & * l l j j e e t w         X   X o     X 3.J.J.|.XXOXXXXX",
"t   & M _ _ M N D M e         X             G N.J.)..XOXOXXX"
};
