/* XPM */
static char *kaikyaku19[] = {
/* columns rows colors chars-per-pixel */
"30 40 217 2 ",
"   c #1A1718",
".  c #1B1919",
"X  c #29171B",
"o  c #23191A",
"O  c #2B191C",
"+  c #38171B",
"@  c #33191C",
"#  c #3D191C",
"$  c #2D1B21",
"%  c #321622",
"&  c #341B22",
"*  c #3C1B22",
"=  c #321832",
"-  c #352322",
";  c #3D2627",
":  c #37242E",
">  c #44191D",
",  c #4C191F",
"<  c #51191F",
"1  c #471626",
"2  c #421B24",
"3  c #4D1A22",
"4  c #451C29",
"5  c #4C1B2C",
"6  c #541C25",
"7  c #5C1A25",
"8  c #531E2B",
"9  c #521D32",
"0  c #601A25",
"q  c #6E1D25",
"w  c #651B29",
"e  c #6B1B2B",
"r  c #721E24",
"t  c #741C2D",
"y  c #751E32",
"u  c #442125",
"i  c #4B2125",
"p  c #42232B",
"a  c #4B222D",
"s  c #492928",
"d  c #532225",
"f  c #5B222D",
"g  c #55282A",
"h  c #5D2B2B",
"j  c #4D332C",
"k  c #48372D",
"l  c #532233",
"z  c #592836",
"x  c #5C2D3A",
"c  c #4D3130",
"v  c #563835",
"b  c #66292B",
"n  c #7F2D2A",
"m  c #67342D",
"M  c #682A33",
"N  c #792836",
"B  c #673739",
"V  c #763738",
"C  c #4D4033",
"Z  c #574238",
"A  c #664639",
"S  c #744439",
"D  c #774738",
"F  c #7B453C",
"G  c #7E4A3B",
"H  c #3F2745",
"J  c #49354A",
"K  c #593E41",
"L  c #643C43",
"P  c #783F43",
"I  c #574345",
"U  c #654343",
"Y  c #654746",
"T  c #6D4B4C",
"R  c #714241",
"E  c #7B4244",
"W  c #7C4C44",
"Q  c #704B4C",
"!  c #7C5342",
"~  c #7D5C45",
"^  c #72544D",
"/  c #775C4A",
"(  c #614851",
")  c #715351",
"_  c #755B52",
"`  c #795D55",
"'  c #765B58",
"]  c #736048",
"[  c #6C6056",
"{  c #7B6857",
"}  c #7C645B",
"|  c #545062",
" . c #655B63",
".. c #736A69",
"X. c #801E34",
"o. c #802C2B",
"O. c #80322D",
"+. c #842239",
"@. c #89283E",
"#. c #863A35",
"$. c #85473B",
"%. c #854B3B",
"&. c #87543E",
"*. c #8B543D",
"=. c #93573E",
"-. c #883742",
";. c #8B4C49",
":. c #944E47",
">. c #865946",
",. c #855D4B",
"<. c #955849",
"1. c #915B51",
"2. c #82644C",
"3. c #8A6549",
"4. c #89654D",
"5. c #966343",
"6. c #936C4D",
"7. c #98684A",
"8. c #98734E",
"9. c #836D53",
"0. c #896A56",
"q. c #806A5E",
"w. c #9B6A56",
"e. c #867154",
"r. c #8A7555",
"t. c #8D7A56",
"y. c #85755B",
"u. c #8D7C5A",
"i. c #967553",
"p. c #987855",
"a. c #927D5A",
"s. c #A26D59",
"d. c #A57A5C",
"f. c #8A6E62",
"g. c #847263",
"h. c #887C64",
"j. c #8B7D69",
"k. c #93845C",
"l. c #99825F",
"z. c #968A5D",
"x. c #988C5F",
"c. c #A48257",
"v. c #8D8368",
"b. c #9A8764",
"n. c #998E61",
"m. c #92856D",
"M. c #938D6D",
"N. c #9B9363",
"B. c #9E9966",
"V. c #98936D",
"C. c #9E9B6A",
"Z. c #999574",
"A. c #9A9B73",
"S. c #A8886A",
"D. c #B4866D",
"F. c #A19D69",
"G. c #AD8B74",
"H. c #A69C75",
"J. c #9EA175",
"K. c #A1A16A",
"L. c #A5A96F",
"P. c #A6A375",
"I. c #A2A975",
"U. c #A9AB73",
"Y. c #ADAB7C",
"T. c #ACB374",
"R. c #ABB57A",
"E. c #AFBC7A",
"W. c #B2B67A",
"Q. c #CB997B",
"!. c #C8A37D",
"~. c #B3C07E",
"^. c #AB9288",
"/. c #A7A482",
"(. c #B4A18D",
"). c #B4AD8C",
"_. c #ABB284",
"`. c #B6B786",
"'. c #BCB39C",
"]. c #D1B388",
"[. c #B7C184",
"{. c #B5CA84",
"}. c #B3C58D",
"|. c #BDD78C",
" X c #C2D38C",
".X c #C1DF8E",
"XX c #C5C997",
"oX c #C6DB93",
"OX c #CADB95",
"+X c #CDD79A",
"@X c #D8D296",
"#X c #C9E295",
"$X c #C9E397",
"%X c #D2E29E",
"&X c #C7C2AA",
"*X c #D4DBA5",
"=X c #CFCBB2",
"-X c #D4D1B6",
";X c #D5E3A4",
":X c #D7E4A8",
">X c #DBE3AB",
",X c #DDE5B1",
"<X c #DEE4BA",
"1X c #E1E6B4",
"2X c #E4E9B7",
"3X c #E3E6BD",
"4X c #E5E8BD",
"5X c #DCDBC4",
"6X c #DEE2CB",
"7X c #E4E6C3",
"8X c #E5E6CB",
"9X c #E5E6D3",
"0X c #E6E6DD",
"qX c #E7E8DB",
"wX c #E6E6E4",
"eX c #E7E8E4",
"rX c #E8E9E2",
/* pixels */
"a.0.0.3.3.0.0.4.>.,.2.~ v N @.X.X.X.X.0 @ o o B >.*.*.%.%.$.",
"i.i.l.Y.XXXXXXH.l.l.S.S.Y N -.+.-.X.X.e O . - Z.).).).).).).",
"<.D.].XX[.T.L.3.q r b t 3 f N +.X.y X.e X . O $.:.:.:.<.s.s.",
"`.W.I.C.B.F.F.i.W ;.F R c > > , 1 < 0 < o o @ V #.#.O.O.o.o.",
"r.x.x.N.B.K.K.k.i.a.P._._ f > > > 3 > 3 @ + A P.Y.Y.P.H.b.b.",
"t.z.N.B.B.K.F.G q 0./.A.A 7 e N 0 0 w w @ 3 q.w.7.s.d.d.S.G.",
"k.z.N.B.B.F.F.2.2.M.m.} x 6 7 N 7 0 t 7 @ a J.b.o.o.o.O.O.$.",
"t.z.x.N.B.F.F.B.Z.h.` L 5 # 3 < > 3 w , & c J.}.u.! G D D V ",
"t.k.z.x.N.C.K.U.Z.g.T x * 2 e 0 7 3 , u a L Z.}.`.I.B.N.k.{ ",
"t.z.k.z.N.B.C.J.{ } L z * 4 8 7 e 3 u L l Y /.8X6X%X$X#X|.{.",
"k.k.k.z.n.N.C.C.} L x l 2 * 2 f f 8 Y T z ) ).qX0X,X$X$X.X|.",
"r.k.k.k.b.n.C.N.q.T a 5 5 2 @ B V M l 9 K ' '.rXwX<X$X.X{.{.",
"r.k.k.t.k.k.n.v.q.T l * 4 * @ z V 2 5 z L ) &XeXwX7X$X|.~.~.",
"r.k.k.k.t.r.v.m.g.) x 5 * % @ a l 4 9 9 x Q =XeXwX7X$X{.E.R.",
"3.k.t.t.y.r.k.h.q.T 9 p # @ @ @ * 5 5 9 l Q -XeXwX7X+XJ.I.J.",
"e.k.t.e.e.{ y.} Q B * $ X X X O @ 2 5 9 * Y 5XeXeX8XoXy.A.A.",
"9.e.r.e.{ _ ` ' Q x a o . o o o X O 4 * X I 5XwXwX9X>X{ v.A.",
"e.9.y.9./ ( g.} T L ; o X X X O X @ X o * ,.9XwXwX0X1Xu.] M.",
"r.2.9.{ L K m.j.} L O O @ @ @ + a u @ 2 w f.qXwXwX0X1XZ.I u.",
"t.G ,.Z = K v.q.' U O @ # @ @ + P E # e X.G.qXeXwX0X4X_.Z [ ",
"k.A v O   I j.g...U @ @ O @ @ g D.d.m e +.^.wXeXwX0X3XXXJ : ",
"k.k . . . Z j.g.q.U @ X o O O W Q.@X!.M e (.eXwXwXrX7X*X .J ",
"x.C   . o B q.q.) p o X o o X 1.Q.].Q.a d '.eXwXwXrX8X>X..| ",
"x./ o . > V q...) $ o $ $ o o R Q.].#.% ; &XeXwXwXwX9X<X..| ",
"x.t.; o d V } } I o X o $ . . & ;.<.N # c -XwXwXwX0X8X1X' H ",
"k.k.D s - G } ' : . o X . . . $ b N ;.u I 5XrXwXwX0X7X1X[ = ",
"k.a.>.m O B E R $ . . . . . . o X z V 4 _ 6XrXwXwX0X8X3X[ % ",
"k.9.j < + a -.M . . . . . . X o . @ 2 O _ XX<X7X6X9X8X4Xq.4 ",
"r.k o h V m n & . . . .   o $ $ $ o . o v R.OX%X;X2X7X7Xm.1 ",
">.k . s *.=.m o . . . .   o o $ @ . . . & V. X XOX;X,X2X(.* ",
"%.D O o D *.m o . . . .   . o o o . . . & ^ `.OXoX%X>X2X=X^.",
"$.%.A o j 5.m . . . . . . . . o .     o * z x.~.OXoX;X:X7XwX",
"$.=.7.j O ~ A       . . . . . . . . . o @ # 9.L.~..X%X1X4XqX",
">.7.c.3.- k Z   . . . . . . . . . .   o O O A B.~..XOX;X2X9X",
"h D 6.8./ - - . . . . . . . . . . . . o O @ j F.T.W. X%X>X8X",
"d D 3.3.3.D i o . . . . . . . . . . . . + > d k.T.W. XoX:X4X",
"$.5.8.8.6.G b O . . . . . . . . . . . o > , , ] T.E.T. X%X>X",
"*.5.8.l.8.&.m o . . . . . . . . . . . O # , O C F.T.E.~.#X>X",
"=.5.8.8.6.&.m X . . . . . . . . . . . + # @   C N.T.T.~.oX;X",
"=.5.7.8.6.&.g   . . . . . . . . .   o O O   - A i.L.T.~. X%X"
};
