/* XPM */
static char *kaikyaku17[] = {
/* columns rows colors chars-per-pixel */
"30 40 217 2 ",
"   c #1B1718",
".  c #1C1919",
"X  c #241719",
"o  c #2D171A",
"O  c #24191A",
"+  c #2B191C",
"@  c #3E171D",
"#  c #341A1D",
"$  c #3B191E",
"%  c #2D1B23",
"&  c #291E2F",
"*  c #341B21",
"=  c #3C1B22",
"-  c #3A1A29",
";  c #3B1C32",
":  c #3D2223",
">  c #3C2A28",
",  c #3E2531",
"<  c #44171D",
"1  c #43191F",
"2  c #49191E",
"3  c #50191F",
"4  c #431A23",
"5  c #4B1A25",
"6  c #451C2A",
"7  c #4D1B2A",
"8  c #521A23",
"9  c #5C1A24",
"0  c #531C2C",
"q  c #4A1F32",
"w  c #571E31",
"e  c #631A24",
"r  c #6B1A27",
"t  c #641B29",
"y  c #6C1C2B",
"u  c #781A2B",
"i  c #7C1C31",
"p  c #452426",
"a  c #4B2D2C",
"s  c #532626",
"d  c #59262B",
"f  c #44322C",
"g  c #4C332D",
"h  c #56322C",
"j  c #4C2531",
"k  c #562332",
"l  c #5A2534",
"z  c #562C37",
"x  c #5D2935",
"c  c #5E2B39",
"v  c #4E3633",
"b  c #5C3434",
"n  c #5D333B",
"m  c #533B39",
"M  c #6A232B",
"N  c #692A2B",
"B  c #72222D",
"V  c #6B322E",
"C  c #672936",
"Z  c #622F34",
"A  c #6B3436",
"S  c #63363E",
"D  c #783936",
"F  c #733B3A",
"G  c #594235",
"H  c #67443B",
"J  c #6C433E",
"K  c #73433B",
"L  c #724B3D",
"P  c #7D523F",
"I  c #643742",
"U  c #663C42",
"Y  c #683E43",
"T  c #5C4240",
"R  c #664545",
"E  c #6B4446",
"W  c #6E4B4B",
"Q  c #734A48",
"!  c #6B5849",
"~  c #785341",
"^  c #73534D",
"/  c #6F5350",
"(  c #755751",
")  c #785A53",
"_  c #73654F",
"`  c #7C6455",
"'  c #7B6458",
"]  c #821D34",
"[  c #8B3A33",
"{  c #87473B",
"}  c #934734",
"|  c #934834",
" . c #8C543E",
".. c #96523C",
"X. c #9B573C",
"o. c #915B3F",
"O. c #9D5A3D",
"+. c #A05D3E",
"@. c #8D4E4A",
"#. c #835642",
"$. c #855A44",
"%. c #8B5A43",
"&. c #925C42",
"*. c #995842",
"=. c #975B52",
"-. c #84664A",
";. c #956547",
":. c #946A4A",
">. c #9B6B4B",
",. c #94734D",
"<. c #836A53",
"1. c #956453",
"2. c #887652",
"3. c #8D7C56",
"4. c #85725B",
"5. c #8C7B5C",
"6. c #9C7551",
"7. c #9D7B54",
"8. c #A46C47",
"9. c #A46D4B",
"0. c #A6754E",
"q. c #A37C52",
"w. c #A87458",
"e. c #836F60",
"r. c #897A63",
"t. c #A87562",
"y. c #B47564",
"u. c #B67D69",
"i. c #93845C",
"p. c #98865C",
"a. c #948A5D",
"s. c #998F5F",
"d. c #9A905F",
"f. c #A68254",
"g. c #A68859",
"h. c #AC8D5C",
"j. c #AE915D",
"k. c #B2935B",
"l. c #8C8168",
"z. c #968C60",
"x. c #9A8768",
"c. c #938B6C",
"v. c #9B9462",
"b. c #9E9964",
"n. c #9B9769",
"m. c #979574",
"M. c #A58C67",
"N. c #B9866C",
"B. c #A39463",
"V. c #A59867",
"C. c #B39C62",
"Z. c #AF8F7E",
"A. c #A59676",
"S. c #BB967A",
"D. c #9FA176",
"F. c #A4A26A",
"G. c #A7A86C",
"H. c #AAAD6E",
"J. c #B6A265",
"K. c #B9A968",
"L. c #AAAC72",
"P. c #ADA27C",
"I. c #A2AC7E",
"U. c #B1AB79",
"Y. c #ACB472",
"T. c #ADB877",
"R. c #B2B776",
"E. c #C08570",
"W. c #C58D73",
"Q. c #C89277",
"!. c #B8C67B",
"~. c #A89587",
"^. c #BC9C86",
"/. c #A9AE85",
"(. c #BDA487",
"). c #B2AB83",
"_. c #A8B684",
"`. c #B7B985",
"'. c #C1A98A",
"]. c #D6AA85",
"[. c #C3B689",
"{. c #C7B69A",
"}. c #B8C886",
"|. c #BFD482",
" X c #B6C993",
".X c #BAD695",
"XX c #C6C88E",
"oX c #C3DA86",
"OX c #C3D28B",
"+X c #C5DC89",
"@X c #CBDD8D",
"#X c #C4CB96",
"$X c #C7D895",
"%X c #D3DD96",
"&X c #E1C894",
"*X c #CAE298",
"=X c #D3E396",
"-X c #D3E39B",
";X c #D1DAA4",
":X c #CFD2B6",
">X c #D4DAB6",
",X c #C3E3A0",
"<X c #DBE4A5",
"1X c #DAE4A6",
"2X c #DEE3B1",
"3X c #E2E7A7",
"4X c #E1E5AB",
"5X c #E4E6B3",
"6X c #E5E6BB",
"7X c #DEDECE",
"8X c #E5E6C3",
"9X c #E5E6CC",
"0X c #E4E5D4",
"qX c #E5E6DB",
"wX c #E6E8DF",
"eX c #E6E6E4",
"rX c #E8E9E3",
/* pixels */
"O.+.O.O...D 2 $ @ 2 3 9 5 # O O O Z 8.9.0.9.+.+.O.O.O.X.X.X.",
"B.B.g.B.V.x.K 3 e r u u r $ O O O m ).).U.).).P.P.A.A.A.A.x.",
"w.M.).;X>X$X-.u u u i ] u 2 O O o G ).^.S.^.Q.'.'.^.'.'.{.7X",
"S.{.$X#X}.R.2.M u ] ] ] i 8 + o < (  XV.>.O.| } [ [ [ [ *.#X",
"`.!.Y.Y.Y.R.3.d e r 8 9 9 1 < 1 e r..X,X`.n.V.A.M.M.M.7.6.U.",
"d.G.H.Y.Y.Y.i.S 1 @ $ 2 5 t 9 2 0 `  X,X,X,X[.(.'.[.'.[.[.U.",
"d.G.H.Y.T.T.D.E 0 9 y t r i e @ z / /..X,X,XU...} | } ..O.f.",
"d.F.H.H.Y.T.l.U 0 e y 9 3 r 9 g W R m._..X$X$Xz.$.%.~.{.:.,.",
"b.F.G.H.Y.D.` z 7 4 3 3 3 8 < ^ ( U l.D.m._..XoXF.`.qXrX Xa.",
"d.b.F.G.L.n.W k 5 4 5 9 r 8 p 4.E R e.l.c.I. X.X1X0XeXqX2X}.",
"d.b.b.F.G.r.Y s 5 4 < 8 t C K n n I ^ ' m._._. X>XeXeX0X5XOX",
"d.n.b.b.n.4.c 7 4 @ # @ A @.F k I x R ' l.G.I. X0XeXeX8X5XOX",
"s.v.n.n.v.5.I 7 = # $ 4 Z @.C C x w I ( r.c.A.:XeXeXqX6X4X%X",
"z.v.v.v.v.5.E k 6 = = @ 4 s 0 C w w C Q ) r./.eXeXeX9X5X5X1X",
"a.v.v.z.a.5.W n k a S : = # = 7 0 w 6 l E 5.:XeXeXeX8X6X5X4X",
"i.s.a.i.l.2./ S w = , ; * # o # 4 8 = 6 Y Z.eXeXeXqX6X5X5X4X",
"3.z.a.i.5.4.E c 7 - % = 7 5 4 = # # o * Q 7XeXeXeX7X6X6X5X5X",
"3.z.i.3.5.) U l 0 6 = 7 0 5 5 5 6 $ o = ~.eXeXeXeX9X6X5X5X5X",
"3.i.i.i.<.^ U k w q 4 6 6 4 5 7 7 = o m :XeXeXeX0X8X6X6X5X5X",
"i.5.3.<.g R / E I 6 $ # < 4 7 5 6 # + H %X6X8XqX0X8X6X6X5X5X",
"p.-.-.> X T ) / c 6 * # = Y 8 o # # o v XX3X5X8X8X8X8X5X5X5X",
"i.H > . . m ( E c 6 + O U u.t.x 4 = + + c.3X3X6X8X8X6X6X5X6X",
"z.> . . X h ( W I - X a W.].&XN.l o + X ! %X3X5X8X8X6X6X6X6X",
"F.G   O $ K ( W n % % j y.Q.].W.1.p X   f R.1X5X8X8X8X8X8X6X",
"H._ O O N D K S j O . * =.E.W.y.N.t.b + > U.%X3X6X8X8X8X8X8X",
"H.a.h + s N F W z O O . Y t.y.t.N.W.1.C c V.%X=X5X6X8X8X8X8X",
"G.b.$.s $ K A ^ T % . . X + : h J =.Y C l 5.@X=X3X6X8X8X8X8X",
"V.j.~ V $ s M F E * . . . . . . . # 8 0 5 ^ }.=X%X5X8X8X8X8X",
"j.2.a N s p M 9 9 $   . . . . . . . O # 4 Z U.=X=X4X6X8X8X9X",
"a.f O V &.o.*.A 4 #   . . . . . . . . O 6 0 p.@X%X4X6X9X9X9X",
":.h . a ;.>.9. .A Z . . . .     O # + : 0 5 -.oX@X1X5X8X9X0X",
" .D # + P 9.0.q.&.{ # . . .   X k Y B k 0 8 L OX@X*X5X8X9X0X",
"{ P D + g f.f.h.>.[ 8 O . . . . 4 M r 8 5 @ g Y.oX@X1X6X9XqX",
"o.$.;.H # P C.J.j.{ B # . . O O   + @ + % * : V.+X+X-X6X9XqX",
"%.;.g.7.G f g.K.J.6.{ s . . : s # O + - j 6 # s.+X+X*X5X9XqX",
"9 P ,.7.,.h P j.h.f.7.K +   1 K d # * 4 0 0 2 3.+X+X*X2X8XwX",
"V :.f.g.j.f.:.&.;.>.6. .1 . % L #.d $ 4 4 @ s -.!.+X+X1X8XwX",
"o.q.k.J.K.f.f.:.o. .o. .d % & S #.V $ < 4 # @ L !.+X+X-X8XwX",
"8.f.k.K.K.j.k.j.q.>.;.%.~ ! _ ` #.C 2 1 4 $ $ L !.oX+X*X6XwX",
"8.f.k.J.J.j.J.J.h.0.>.:.,.c.m.c.~ y M 4 4 1 1 L !.+XoX@X6XrX"
};
