/* XPM */
static char *kaikyaku18[] = {
/* columns rows colors chars-per-pixel */
"30 40 209 2 ",
"   c #1A1718",
".  c #1C1919",
"X  c #221719",
"o  c #23191A",
"O  c #2B1A1D",
"+  c #34171A",
"@  c #331A1D",
"#  c #3C191E",
"$  c #37201F",
"%  c #271923",
"&  c #2D1A22",
"*  c #331B22",
"=  c #3C1B23",
"-  c #341A2A",
";  c #2C2120",
":  c #372525",
">  c #3D2425",
",  c #3C302E",
"<  c #262C39",
"1  c #45191E",
"2  c #4A191E",
"3  c #431B23",
"4  c #4B1B22",
"5  c #461C29",
"6  c #4C1B2C",
"7  c #531B23",
"8  c #5D1A25",
"9  c #521C2A",
"0  c #5B1D29",
"q  c #531C32",
"w  c #621A26",
"e  c #631D2A",
"r  c #6A1D2D",
"t  c #721B2C",
"y  c #6D1F30",
"u  c #7A1E32",
"i  c #4F2425",
"p  c #44232B",
"a  c #4B232C",
"s  c #432C2A",
"d  c #4B2B29",
"f  c #53222C",
"g  c #5D232B",
"h  c #582828",
"j  c #4C332C",
"k  c #56332C",
"l  c #432B31",
"z  c #542333",
"x  c #592934",
"c  c #5B2B3A",
"v  c #4D3434",
"b  c #4A3A33",
"n  c #553734",
"m  c #5D333C",
"M  c #64212B",
"N  c #632C2A",
"B  c #762E2E",
"V  c #7D2B2C",
"C  c #6A342E",
"Z  c #692431",
"A  c #612A34",
"S  c #752835",
"D  c #7C2D33",
"F  c #663836",
"G  c #61333E",
"H  c #773031",
"J  c #743C34",
"K  c #58473C",
"L  c #674438",
"P  c #764135",
"I  c #7B493B",
"U  c #75523F",
"Y  c #2C3C51",
"T  c #583C47",
"R  c #643B42",
"E  c #5B4B46",
"W  c #6A4D44",
"Q  c #684748",
"!  c #764848",
"~  c #6B5746",
"^  c #775646",
"/  c #72524D",
"(  c #604E54",
")  c #735551",
"_  c #755A53",
"`  c #795C52",
"'  c #79654A",
"]  c #7D6354",
"[  c #786757",
"{  c #7F705E",
"}  c #675D63",
"|  c #812C2A",
" . c #84322E",
".. c #872238",
"X. c #86223A",
"o. c #853835",
"O. c #8B4535",
"+. c #82453C",
"@. c #884639",
"#. c #844B3C",
"$. c #914A3C",
"%. c #85533E",
"&. c #8E523C",
"*. c #93593E",
"=. c #903444",
"-. c #894746",
";. c #865547",
":. c #845D43",
">. c #8A5D43",
",. c #925C49",
"<. c #8C6246",
"1. c #84664D",
"2. c #866B4F",
"3. c #8C6B4D",
"4. c #936445",
"5. c #946B4C",
"6. c #99724D",
"7. c #836C53",
"8. c #85695A",
"9. c #847254",
"0. c #8B7553",
"q. c #8D7C56",
"w. c #82765E",
"e. c #8C7558",
"r. c #8D7C5A",
"t. c #937C57",
"y. c #9C7B54",
"u. c #A4695A",
"i. c #A37859",
"p. c #846D61",
"a. c #857463",
"s. c #897A66",
"d. c #997668",
"f. c #AB7762",
"g. c #B57D6B",
"h. c #8D8359",
"j. c #93845C",
"k. c #9D855C",
"l. c #96895E",
"z. c #998C5F",
"x. c #8B8464",
"c. c #8D826B",
"v. c #8F886D",
"b. c #968766",
"n. c #988562",
"m. c #9A8C63",
"M. c #9B8D69",
"N. c #9B9363",
"B. c #9E9A67",
"V. c #97946C",
"C. c #9F9C68",
"Z. c #958472",
"A. c #9A9B75",
"S. c #AB8969",
"D. c #B7896C",
"F. c #AA936D",
"G. c #A09E69",
"H. c #A5986D",
"J. c #A49D76",
"K. c #B29576",
"L. c #9FA67A",
"P. c #A4A56D",
"I. c #A5A877",
"U. c #ABA47D",
"Y. c #B5A77A",
"T. c #ACB574",
"R. c #ADB879",
"E. c #CA9F7D",
"W. c #B3C37C",
"Q. c #A79984",
"!. c #AAAA83",
"~. c #BAA78D",
"^. c #AABA8A",
"/. c #B8B888",
"(. c #D3B386",
"). c #C4B8A6",
"_. c #B4C585",
"`. c #BBD385",
"'. c #BCD689",
"]. c #BFDC8D",
"[. c #B7CA95",
"{. c #C2D48C",
"}. c #C1DB8D",
"|. c #C3C995",
" X c #CAD899",
".X c #E1D398",
"XX c #C6E394",
"oX c #CAE395",
"OX c #CDE49A",
"+X c #D2E49D",
"@X c #C9CAA8",
"#X c #CFD0AB",
"$X c #D6D8A9",
"%X c #DADBB9",
"&X c #D4E4A2",
"*X c #DCE5AA",
"=X c #DDE6B2",
"-X c #E2E6B4",
";X c #E1E8B3",
":X c #E4E6BB",
">X c #DBDBC5",
",X c #E5E6C2",
"<X c #E6E8C6",
"1X c #E4E5CA",
"2X c #E5E5D2",
"3X c #E6E6DB",
"4X c #E8E9D9",
"5X c #E6E6E4",
"6X c #E8E8E5",
/* pixels */
"5.<.;.>.#.#.-.+.I +.h 4 4 8 y r 0 & X * I &.&.&.@.@.@.O.@.O.",
"S.n.l.n.I./././.H.M.K r u u X...u = X % V.U.!.U.U.U.U.U.J.J.",
"V -.f.~.|.|.R.H.I V f S ....=.=.X.3 . o ^ u.u.f.S.g.S.D.K.K.",
"H././.T.P.C.C.N.I B f 9 t u r y S 3 X O N O.@. .V | V V  .| ",
"0.h.N.N.N.B.B.N.b.n.L = + # + 3 3 4 O # [ m.n.n.m.H.m.m.t.e.",
"2.h.j.z.B.B.G.j.V H F n 4 f 7 e r r 1 c ^._.F.F.S.F.F.Y.Y./.",
"0.h.l.z.N.B.B.j.J 8./ 9 7 S r w t w = T A.[.A.o.| | |  .o.$.",
"h.h.l.z.N.B.B.N.l.a.Q x 2 2 2 2 w 7 v / c.^.[.m.I P P J J J ",
"0.h.k.k.z.N.B.P.L.[ R a = 4 8 7 4 3 _ Q { A.!.!.G.N.x.h.0.' ",
"0.h.j.j.l.z.B.C.s./ R = = 4 8 r # ( a.Q [ a.{ !.>X1XOX].'._.",
"0.h.j.j.j.b.N.V.] c z 5 = 5 3 9 f W Q R ) _ s.[.4X3X=XXXXX'.",
"0.h.l.j.j.n.m.b._ c 5 5 @ O f A g p R R R ) c.@X3X3X:XXX]._.",
"0.k.l.j.r.r.l.r.) c 5 = = O 6 H f 6 R c G / p.@X5X5X:XoX`._.",
"0.h.j.r.q.q.r.a.) R q > = O # x z 6 x z z T ] %X5X5X,X^.L.R.",
"3.q.j.q.9.9.s.a.! c a W 5 & @ 5 6 6 q q = a 8.>X5X5X<X_.' L.",
"0.0.q.e.8.9.] / c 5 > ) d * @ = 5 6 6 = o p p.1X6X3X<X XK x.",
"e.7.q.9.7.7._ ) m 5 p Q : O O = ! ` 5 O X 5 d.2X5X5X<X&X~ [ ",
"t.1.9.7.] ] v.s.Q p O - O + # F (.(.n.> * 3 Z.5X5X5X1X*Xw.8.",
"j.1.7.1.^ W c.s.[ v % - = 5 9 ! E..X(.x 0 w Q.5X5X5X2X=XA.{ ",
"l.:.:.^ s b v.v.a.E - & & @ - A g.(.D.F Z r ~.5X5X5X2X=X!.E ",
"z.^ L s   , a.Z.p.T & & - & o 3 F u.f.! g g ).5X5X5X3X=X_.T ",
"N.U O   . : [ s.p.l X & * O . o = =.f.d.p j #X5X5X5X3X:X|.} ",
"z.' . . o = ` c.p.> X o % o . * q g ,.D.d K >X5X5X5X3X:X@X} ",
"z.9.; . @ M ;.p.p.l X o o . . o = @ a -.g _ 2X5X5X5X3X<X X( ",
"z.j.j X 1 8 D -.-.: o o o X . o O o O > = d.3X5X5X5X2X,X$XE ",
"z.z.^ h O M o.=.A o o o o X . o & & * o % Q.3X6X5X5X2X,X$XE ",
"k.l.1.J @ 4 D g @ . o o X . . o o & % o o !.2X3X5X5X2X,X$XK ",
"j.q.L h # + w Z * . o o . . . . o o o . o v.*X;X,X,X,X,X$XQ ",
"h.^ : i C k N 8 o . . o . . . . X o o .   ' '.oX+X*X-X:X$XW ",
"2.k   > #.*.&.C o . . . . . . . . . . . . K /.].oX+X*X;X%X~ ",
"%.J O o P *.&.C o . . . . . . . . . . . . ; j.{.OXoX&X=X-X!.",
"O.#.L X d *.*.C . . . . . . . . . . . . . . ~ T.{.oX$X*X-X1X",
"+.;.4.h O U 6.I     . . . . . . .   . . .   K P.W.].oX&X;X<X",
">.5.i.:.@ j k.:..   . . . . . .   . .   .   : l.W.W.XX+X;X:X",
"N I y.y.U : ' 3.;     . . . . . . . . . . . ; ' W.W.}.oX*X;X",
"4 P <.<.3.L L 4.d   . . . . . . . . . . . . O U T.W.W.].+X;X",
"J 4.6.6.4.%.P P k . . . . . .   . . . . . o 1 k B.W.T.W.oX*X",
"&.5.6.k.6.%.O.U C ; o o .   . .   . . . . O # : h.T.W.W.XX+X",
"*.4.y.k.y.*.:.>.%.n < < < . . . . . . . . o O o { T.T.T.}.+X",
"*.4.6.k.k.>.%.>.%.E Y Y < ; o . . . . . . o . s 3.P.T.W.W.+X"
};
