/* XPM */
static char *kaikyaku01[] = {
/* columns rows colors chars-per-pixel */
"30 40 219 2 ",
"   c #1A1617",
".  c #1C1919",
"X  c #2D171B",
"o  c #24191A",
"O  c #2C191C",
"+  c #33171C",
"@  c #34191C",
"#  c #3B191D",
"$  c #2B1922",
"%  c #341C25",
"&  c #3C1B22",
"*  c #3A1B31",
"=  c #2F2120",
"-  c #342322",
";  c #3B2225",
":  c #4C171E",
">  c #421A1E",
",  c #4B191E",
"<  c #53191E",
"1  c #441B24",
"2  c #4B1B23",
"3  c #441C29",
"4  c #4B1D2C",
"5  c #541B24",
"6  c #5A1A24",
"7  c #541C2B",
"8  c #4E1C30",
"9  c #591E33",
"0  c #661C27",
"q  c #6B1B27",
"w  c #651D2B",
"e  c #452227",
"r  c #492529",
"t  c #532325",
"y  c #5A2427",
"u  c #53232B",
"i  c #5D232D",
"p  c #5D2D2C",
"a  c #4D2A33",
"s  c #552335",
"d  c #5C2734",
"f  c #4F3639",
"g  c #583739",
"h  c #5D353F",
"j  c #66272C",
"k  c #6A212D",
"l  c #762C2D",
"z  c #78282C",
"x  c #64312E",
"c  c #642332",
"v  c #652835",
"b  c #6C2A34",
"n  c #642B39",
"m  c #762736",
"M  c #7C2535",
"N  c #7C2B34",
"B  c #683736",
"V  c #6D3E3B",
"C  c #7A3433",
"Z  c #773D38",
"A  c #534136",
"S  c #63493E",
"D  c #714539",
"F  c #7F473D",
"G  c #744C3D",
"H  c #71523F",
"J  c #5E3B41",
"K  c #603740",
"L  c #623B42",
"P  c #753F44",
"I  c #6B4345",
"U  c #684A47",
"Y  c #6D4C4C",
"T  c #6E5543",
"R  c #765344",
"E  c #795747",
"W  c #7A5B45",
"Q  c #725351",
"!  c #755A54",
"~  c #785E57",
"^  c #72664D",
"/  c #7B6755",
"(  c #7B645B",
")  c #7A7453",
"_  c #811F35",
"`  c #842538",
"'  c #842A38",
"]  c #893A3C",
"[  c #83413B",
"{  c #8A423A",
"}  c #8A4A3C",
"|  c #93513C",
" . c #873742",
".. c #973949",
"X. c #894047",
"o. c #8A4C43",
"O. c #984A4C",
"+. c #8C5242",
"@. c #875946",
"#. c #8D5C4C",
"$. c #985A46",
"%. c #9B5C44",
"&. c #975C51",
"*. c #A05D46",
"=. c #A45D57",
"-. c #89674D",
";. c #95654C",
":. c #8A704E",
">. c #896A55",
",. c #976753",
"<. c #916B55",
"1. c #8B7A57",
"2. c #927C54",
"3. c #927359",
"4. c #977559",
"5. c #99745A",
"6. c #A6644A",
"7. c #AA6858",
"8. c #A47656",
"9. c #B27C5E",
"0. c #897665",
"q. c #8A7A67",
"w. c #987E63",
"e. c #A97463",
"r. c #B27465",
"t. c #8C855E",
"y. c #908359",
"u. c #AF875F",
"i. c #8C826B",
"p. c #8F886D",
"a. c #9C8263",
"s. c #958A65",
"d. c #9B9364",
"f. c #999565",
"g. c #988A73",
"h. c #999477",
"j. c #9A9B78",
"k. c #B9886B",
"l. c #A79D6B",
"z. c #BA976F",
"x. c #AD9474",
"c. c #AC987D",
"v. c #9FA67B",
"b. c #A4A46C",
"n. c #AAAC6B",
"m. c #B3A56D",
"M. c #AEB26D",
"N. c #A9A876",
"B. c #B9A579",
"V. c #A6B374",
"C. c #ACB475",
"Z. c #AFB973",
"A. c #B1BD74",
"S. c #B3BD7B",
"D. c #C49977",
"F. c #C3A37C",
"G. c #B3C376",
"H. c #B5C47C",
"J. c #B7C87A",
"K. c #BACC7B",
"L. c #BCD17D",
"P. c #A59180",
"I. c #A3AD81",
"U. c #AFA58C",
"Y. c #B3A285",
"T. c #A9B585",
"R. c #B3B482",
"E. c #B8BD8B",
"W. c #B5AA90",
"Q. c #BCB495",
"!. c #C7A786",
"~. c #C7B091",
"^. c #C8BA99",
"/. c #C4BCA6",
"(. c #B9CD81",
"). c #B7C789",
"_. c #BED482",
"`. c #BDD586",
"'. c #BBC895",
"]. c #BDD497",
"[. c #C1D585",
"{. c #C2DB85",
"}. c #C6D38E",
"|. c #C2DD8C",
" X c #CAC491",
".X c #C6DB92",
"XX c #C5E28C",
"oX c #C9E48D",
"OX c #C5E392",
"+X c #CAE493",
"@X c #CDE598",
"#X c #D1E597",
"$X c #D2E59A",
"%X c #DBE69D",
"&X c #C8C4A6",
"*X c #D9CFA0",
"=X c #D7D8AA",
"-X c #D6D8B8",
";X c #E0DCB6",
":X c #C8E1A3",
">X c #D6E5A1",
",X c #DAE5A3",
"<X c #DEE5AE",
"1X c #DFE5B5",
"2X c #E1E5A6",
"3X c #E2E8A7",
"4X c #E1E5AB",
"5X c #E4E6B5",
"6X c #E5E8B1",
"7X c #E5E6BD",
"8X c #DAD7C2",
"9X c #DFDBD6",
"0X c #E5E6C4",
"qX c #E5E6CC",
"wX c #E5E6D2",
"eX c #E6E8D2",
"rX c #E6E6DB",
"tX c #E7E8D9",
"yX c #E6E6E5",
/* pixels */
"2X$XXX{.K.G.A.M.M.M.A.K.{.{.oX@X>X4X7X0XqXrXyXyXyXyXyXyXyXyX",
",X$XoX{.L.J.G.Z.Z.A.J.L.{.XX+X@X>X2X5X0XqXrXyXyXyXyXyXyXyXyX",
",X$X+X{.L.K.G.G.G.J.K._.{.XX+X@X,X2X5X0XqXrXyXyXyXyXyXyXyXyX",
",X$XoX{.L.K.J.K.K.K.K._.{.XXoX$X>X2X6X7XqXrXyXyXyXyXyXyXyXyX",
"%X#XXX{.L.L.L.L.L._.K._.{.XX+X#X,X3X5X7XqXwXyXyXyXyXyXyXyXyX",
"$X+XXX{.{.L._.L.[._.`._.{.oXoX#X>X2X5X7X0XeXrXyXyXyXyXyXyXyX",
"$X#XXXXX{._.`._.`.[.`.{.XXoX+X#X,X4X5X7X0XqXrXyXyXyXyXyXyXyX",
"$X+XXXXX{.{.{._.`.{.Z.f.t.V..X#X%X3X4X5X0X0XeXrXyXyXyXyXyXyX",
"+XoXoXXX{.{.{.[.[.C.A O o - ) }.%X2X6X5X7X0XeXwXyXyXyXyXyXyX",
"#XoXXXXX{.{.{.L.Z.g O @ & + $ ) %X2X6X6X7X0XqXeXrXyXyXyXyXyX",
"{.{.XX{.{.{.{.{.) X > k M 4 O - B.3X4X6X5X7X0XqXwXrXrXyXyXyX",
"| | ;.8.8.u.l.m.H : 0 ` ..c X X 1.3X3X6X7X7X0XqXwXwXrXrXrXyX",
"4.;.;.+.} { ] ] j 0 q w b k 2 2 D z.~. X*X=X;X7X0X0XeXtXrXtX",
";.;.5.5.a.a.a.a.:.e > @ > b ] b B R *.*.6.6.7.9.k.D.!.!.~.^.",
"$.| } [ { ] { } o.u # 6 6 k M d P.h.c.R.Y.x.,.$.$.$.%.%.*.*.",
"3.3.1.3.3.<.;.#.o.F t , , > 6 n W.i.q.h.T.'..X X^.^.^.~.Y.Y.",
"Z C l l C Z o.5.N.~./ # , 6 > I h.( Q ( q.I.].x.6.8.u.D.D.F.",
"<.3.3.<.#.@.#.<.-.>.Q 4 > 7 4 U Y J J L ~ i.I.E.5.&.o.| { ] ",
"k z C C X.3.R c i I J s 1 @ $ & O O $ 3 J ! p.T.'.c.c.Y.W.c.",
"H } H F F -.j 5 7 d s 9 r 3 @ O O $ O o * Q ) j.T.#.' +.8X~.",
"y.b.n.b.d.E y 5 5 4 8 7 8 @ o O & & @ O % L ( h.I.I.w.3./.9X",
"A.}.A.A.d.V 6 5 2 % 3 4 8 O O e j 9 # o o a ! i.j.E.N.5.c.rX",
").l.b.M.>.x 5 2 1 & & 3 1 & 2 w k ' d o O & Y i.h.v.d.z @.-X",
"2.2.f.>.n n n 9 2 & & & 4 c M N M  .b 1 2 o e J U / p.U R b.",
":.d.s.u 7 9 n v v d K d 3 7 ` ..` .. .k r . ; L / &X-XN.1.y.",
";.S.'.f # 2 7 9 u  .D.7.P & w N ` _ ` & o o f ( U.qX0X.Xs.:.",
"2.'.:XW + X & 1 @ b r.D.=.r 7 ' ` _ q & & f ~ q.-XwX1X.Xt.W ",
"2.].].G : # + + @ #  .=.O.7 1 M ` w 2 3 a Y ! Q.wX0X$X+Xi.G ",
"s..X(.G < @ @ @ O O y 0 5 & + & > # ; g J Y 0.8XqX1X@X@Xs.B ",
"N.+X).G 5 + O O . O @ < q k # O X - J Y Y U ^.wX0X<XOXOXb.x ",
"f.`.C.H t @ O o . o o # 0 0 # # r h Q Y B g.0XeX7X$XOXOXS.D ",
"W W H G y X o O $ o . o # 6 5 m P J g Y Y &XeX0X1XOXOX`.`.R ",
"B p x V t o O ; * $ . . O 5 k O. .d 3 e g.qXqX7X>X@XOX`.|./ ",
"- o O - = . O $ % $ . . . O B =.] j $ f =XqX0X5X@XOXXX].|.t.",
"= .     . . o o o . . . . = @.e.] 1 . ^ =X1X7X,X@XOXOX`.|.f.",
"= . . .   . o o . . . . . ;  .&.5.U . T H..X,X>XOXOX|.OX|.b.",
"- . . . . o o   . . . . . - #.o.o.,.R S C.`.+X@X@XOX|.|.XXV.",
"r # # O . o o o . . . . . . p u 5 x V d d.H.|.@X+XOXOXOXOXH.",
"p < < , O o @ X . . . . . . o . . o @ 1 1.S.`.OX+XOXOXOXXX(.",
"x < < < @ o > # O o . . . . . . . . O # ^ n.`.OX+XOXOXOXOXK."
};
