/* XPM */
static char *kaikyaku02[] = {
/* columns rows colors chars-per-pixel */
"30 40 210 2 ",
"   c #1C1919",
".  c #261619",
"X  c #2C171B",
"o  c #23191A",
"O  c #2B191B",
"+  c #31171C",
"@  c #331A1D",
"#  c #3B191C",
"$  c #2D1B23",
"%  c #2B1A26",
"&  c #351B21",
"*  c #3D1B22",
"=  c #371C2A",
"-  c #3B1C36",
";  c #382A26",
":  c #3B3028",
">  c #43191D",
",  c #4B191E",
"<  c #521A1D",
"1  c #441B23",
"2  c #4A1B24",
"3  c #461D29",
"4  c #4B1B2C",
"5  c #531B24",
"6  c #5B1B24",
"7  c #551D2A",
"8  c #5E1F28",
"9  c #571E31",
"0  c #641A24",
"q  c #631E2A",
"w  c #6B1B28",
"e  c #741E2E",
"r  c #731F31",
"t  c #7C1E31",
"y  c #452427",
"u  c #4C242A",
"i  c #5B262A",
"p  c #572534",
"a  c #522E35",
"s  c #5B2D3A",
"d  c #4A3E33",
"f  c #503130",
"g  c #5C333C",
"h  c #61252D",
"j  c #6B232C",
"k  c #622E2B",
"l  c #68282C",
"z  c #78242C",
"x  c #742A2D",
"c  c #67312E",
"v  c #642233",
"b  c #6B2331",
"n  c #652D37",
"m  c #762433",
"M  c #732C33",
"N  c #7A2B33",
"B  c #7C2C3A",
"V  c #673735",
"C  c #6D333A",
"Z  c #63383E",
"A  c #6A3B3B",
"S  c #7A3837",
"D  c #7A3A39",
"F  c #5B4234",
"G  c #654538",
"H  c #714336",
"J  c #7C4639",
"K  c #754C3C",
"L  c #75513E",
"P  c #633540",
"I  c #643B43",
"U  c #694446",
"Y  c #6D4B4B",
"T  c #714D47",
"R  c #7B4C44",
"E  c #6D5646",
"W  c #7C5846",
"Q  c #72534E",
"!  c #725351",
"~  c #775953",
"^  c #7C6559",
"/  c #83312F",
"(  c #88283A",
")  c #833433",
"_  c #843B35",
"`  c #87343C",
"'  c #84423B",
"]  c #8C443A",
"[  c #904C3E",
"{  c #97533F",
"}  c #9C553F",
"|  c #8C3741",
" . c #923345",
".. c #854D43",
"X. c #884842",
"o. c #98494C",
"O. c #875948",
"+. c #8C5B4C",
"@. c #945342",
"#. c #94574A",
"$. c #945B4A",
"%. c #A45F46",
"&. c #84654B",
"*. c #886549",
"=. c #8B6A4A",
"-. c #9C634A",
";. c #8C6553",
":. c #866D51",
">. c #8E6A54",
",. c #956756",
"<. c #936B54",
"1. c #9B6C56",
"2. c #8D7756",
"3. c #96745A",
"4. c #98785D",
"5. c #A5624A",
"6. c #A76A5A",
"7. c #A77654",
"8. c #B37B5B",
"9. c #8B7C68",
"0. c #8A875C",
"q. c #96855B",
"w. c #94825C",
"e. c #A7895F",
"r. c #8D826B",
"t. c #9A8566",
"y. c #8F9264",
"u. c #9A9364",
"i. c #9D9768",
"p. c #9C8C74",
"a. c #999674",
"s. c #999776",
"d. c #A78B61",
"f. c #BA8569",
"g. c #A39968",
"h. c #B9956B",
"j. c #A99678",
"k. c #BA9977",
"l. c #9BA079",
"z. c #A3A46E",
"x. c #A9A66B",
"c. c #ABAC6B",
"v. c #ADB26E",
"b. c #AAA575",
"n. c #B3AC7E",
"m. c #ADB674",
"M. c #AFBA73",
"N. c #ACB37A",
"B. c #B1BE74",
"V. c #B1BA7A",
"C. c #C2A279",
"Z. c #B4C276",
"A. c #B6C57A",
"S. c #B9C57A",
"D. c #B7C879",
"F. c #BBCA7D",
"G. c #BCD27E",
"H. c #AA9E83",
"J. c #A3AC80",
"K. c #B3A588",
"L. c #A9B283",
"P. c #B7B48A",
"I. c #BFBD90",
"U. c #C8AA89",
"Y. c #C8B788",
"T. c #C8B991",
"R. c #C7B6A4",
"E. c #B7CB84",
"W. c #BBCE82",
"Q. c #BCD283",
"!. c #BFD887",
"~. c #BDD689",
"^. c #B4C490",
"/. c #BBD492",
"(. c #C2CB88",
"). c #C0D382",
"_. c #C1DB86",
"`. c #C2DD8A",
"'. c #C6D88C",
"]. c #D7CA96",
"[. c #C6D997",
"{. c #C6E18C",
"}. c #C9E38E",
"|. c #CDE494",
" X c #CAE49A",
".X c #D1E595",
"XX c #D3E49B",
"oX c #DAE59E",
"OX c #DDEC9C",
"+X c #D2CCAA",
"@X c #DCDCB6",
"#X c #E1DDB2",
"$X c #DAE5A2",
"%X c #DBE5A8",
"&X c #DFE1B8",
"*X c #E1E5A4",
"=X c #E3E8A5",
"-X c #E2E5AB",
";X c #E4E6B3",
":X c #E5E6BB",
">X c #E6E8BE",
",X c #DADBC3",
"<X c #E5E6C3",
"1X c #E7E9C3",
"2X c #E5E6CB",
"3X c #E6E8CA",
"4X c #E5E6D4",
"5X c #E6E8D0",
"6X c #E6E6DB",
"7X c #E6E6E5",
/* pixels */
"$X.X_.F.Z.M.c.c.x.c.c.B.S.G.!.}.|.$X-X;X<X2X6X7X7X7X7X7X7X7X",
"$X.X{.G.D.Z.v.c.c.c.v.Z.S.G.!.}. X$X-X;X:X2X6X7X7X7X7X7X7X7X",
"$X|.{.G.Z.Z.v.v.v.m.B.A.S.Q._.}.|.$X-X;X:X2X6X7X7X7X7X7X7X7X",
"oX|.`.G.D.Z.M.Z.B.B.Z.S.F.Q._.}.|.oX-X;X:X2X4X7X7X7X7X7X7X7X",
"oX.X{.G.D.Z.Z.Z.A.S.Z.S.F.Q._.}..XoX-X;X:X<X4X6X7X7X7X7X7X7X",
".X}._.G.D.D.D.D.S.S.S.S.F.).`.}..X$X*X;X:X<X2X6X7X7X7X7X7X7X",
".X|._.G.F.F.D.Z.S.S.S.F.).).`.}..XoX=X;X;X<X2X4X7X7X7X7X7X7X",
"}.{._.G.G.F.F.S.S.A.z.0.0.N.`.}..XoX=X-X;X:X<X2X6X6X7X7X7X7X",
"}.{.!.G.).F.F.S.S.0.: O o : 0.'..XoX*X-X-X:X<X3X4X4X6X7X7X7X",
"}.{._._.Q.F.F.S.u.y O # # X ; y..XoX*X-X-X:X<X<X2X4X6X6X7X7X",
"G.).G.G.F.F.F.V.G X 2 m m * . d (.OX*X=X;X;X>X<X2X2X4X4X6X6X",
"] [ $.-.7.7.e.d.f < w (  .7 O @ g.OX=X=X;X;X;X>X<X<X2X4X4X4X",
"-...' ] ' ) ) / i < 0 6 i q 2 8 R h.C.Y.].].+X#X#X:X<X2X3X5X",
"#.*.<.3.4.3.3.4.W 1 # # 1 ( B C A ..$.5.5.5.5.7.8.f.k.C.U.U.",
"..' _ ) ) ) _ _ _ u # 6 5 q r C H.r.a.L.L.K.1.$.$.@.[ { } %.",
"<.<.<.>.;.+.+.....D u > > > 5 A H.^ ^ 9.a.I.[.T.T.T.T.P.K.j.",
"S x x x N S ' +.d.j.^ # , 6 2 ~ 9.! P Y ^ s.^.j.@.5.7.f.h.k.",
"<.>.>.;.O.....O.R R Y 4 # 5 1 U U g p s ! ^ J.L.3.#..._ _ ) ",
"0 j x x D +.O.i 6 s s p 3 & 1 * X $ o = s ! r.J.^.j.j.k.K.H.",
"c K K J J O.V 5 , 4 9 4 3 2 3 X X O o o - Y ^ s.L.<.z ) R.+X",
"K q.i.g.u.*.h , > # 4 4 4 & . o X & + O O a ~ r.l.L.t.<.K.7X",
"q.(.B.c.z.R 6 , > @ = 4 4 & o O u u > o o y ! r.a.L.g.1.4.,X",
"(.b.q.c.4.V 7 2 > + @ 1 1 @ @ 2 j b b . o X a Y ! ^ 9.x J T.",
"q.=.q.w.V p v v 7 * * & 1 1 q q e N B 1 1 O & s ! r.a.T H q.",
"=.=.z.W 4 7 p v v 9 n P p 2 r ` (  . .b 7 o ; Y Q P.:Xn.2.:.",
"*.q.{.a.& + * 4 7 4 o.8.6.A 0 m ( t ( 8 O & g ! p.@X<X[.u.W ",
"*.i. Xa., + . X @ & M 6.f.#.v m ( t t 1 & a Y ~ +X2X%X}.y.K ",
"{ z./.2.6 # @ @ X o * ` | B 1 q ( t 8 3 u I I p.,X<X$X_.i.A ",
"*.N./.:.i # @ @ O O @ 5 6 # & @ 1 > * a s Z ! +X3X&X X`.z.k ",
":.E.[.:.i # O O o o @ # 6 e 8 + . o f U Z Z j.<X>X%X{.!.B.V ",
"2.V.Z.&.k # O o     o O , w 6 @ # 3 a Y s ~ @X<X:X X`.~.D.K ",
"O.K L H k # O o % &     O > 6 6 w p 3 s s H.<X<X%X}.!.E.Q.^ ",
"L i i c k O   ; = = o     $ 2 6 | b 2 X E @X<X:X$X`.'.E.!.0.",
"F o o @ @     O % $         o R  .t 1 ; P.<X>X-X X`.~.E.~.y.",
"F             o o o         u ,.,.S o d (.%X;X%X}.`.~.E.Q.z.",
"F           o o o           i X.#.1.F F b.E.XXXX}.{.E.E.Q.m.",
"F         o . o             y J l D $.A u.Z.~.}.{.!.Q.Q.Q.A.",
"G @ @ O o o . o             o X O O y 1 :.m.W.}.{.`.Q.~.~.E.",
"H < < , O o O O o                   o # E z.W.`.|.`.!.!.~.G.",
"H < < < > o # # O o                 o X F u.M.`.{.`.`.!.!.!."
};
