/* XPM */
static char *kaikyaku23[] = {
/* columns rows colors chars-per-pixel */
"30 40 217 2 ",
"   c #1D1919",
".  c #24171A",
"X  c #28171B",
"o  c #24191A",
"O  c #2A191C",
"+  c #3B171C",
"@  c #33191D",
"#  c #3B191D",
"$  c #34201F",
"%  c #2C1721",
"&  c #2D1A21",
"*  c #331A24",
"=  c #3C1B24",
"-  c #361A29",
";  c #3C1A2B",
":  c #3F1B30",
">  c #342224",
",  c #3C2324",
"<  c #3D2B27",
"1  c #3D242C",
"2  c #42191C",
"3  c #4C191D",
"4  c #51181E",
"5  c #431A22",
"6  c #4D1B25",
"7  c #421B2E",
"8  c #4A1C2B",
"9  c #571A24",
"0  c #5B1B23",
"q  c #531D2B",
"w  c #591C28",
"e  c #431B33",
"r  c #4B1C35",
"t  c #4D1F38",
"y  c #511D35",
"u  c #621A26",
"i  c #631E2A",
"p  c #442324",
"a  c #482428",
"s  c #4A252D",
"d  c #59272B",
"f  c #49342D",
"g  c #57332C",
"h  c #4C2533",
"j  c #462B33",
"k  c #492836",
"l  c #4B2438",
"z  c #542335",
"x  c #542B34",
"c  c #522339",
"v  c #552B3B",
"b  c #4C3837",
"n  c #573637",
"m  c #5D3235",
"M  c #5C3B34",
"N  c #5B333E",
"B  c #672429",
"V  c #64242A",
"C  c #652B2D",
"Z  c #6C2C2C",
"A  c #642934",
"S  c #6A2834",
"D  c #632D3C",
"F  c #712C32",
"G  c #633334",
"H  c #683739",
"J  c #633A3C",
"K  c #733A36",
"L  c #594338",
"P  c #62423A",
"I  c #67463A",
"U  c #78453B",
"Y  c #7D453A",
"T  c #754B3D",
"R  c #7B523F",
"E  c #5E3641",
"W  c #633B40",
"Q  c #7C3B42",
"!  c #5D424B",
"~  c #6B4847",
"^  c #754B43",
"/  c #6C5548",
"(  c #785646",
")  c #74554A",
"_  c #6D5A55",
"`  c #745350",
"'  c #7F6247",
"]  c #7E644D",
"[  c #6E635A",
"{  c #7B645B",
"}  c #7A685A",
"|  c #766962",
" . c #81433A",
".. c #844D3B",
"X. c #86523E",
"o. c #835543",
"O. c #8A5A44",
"+. c #885847",
"@. c #905049",
"#. c #A35E55",
"$. c #89674A",
"%. c #946847",
"&. c #94644A",
"*. c #926A4A",
"=. c #96714C",
"-. c #866956",
";. c #916E51",
":. c #9D6D51",
">. c #887458",
",. c #947152",
"<. c #987753",
"1. c #9C7A52",
"2. c #A66E46",
"3. c #A77247",
"4. c #A5764D",
"5. c #AA7249",
"6. c #AD7C4E",
"7. c #A76F5E",
"8. c #A27D54",
"9. c #897361",
"0. c #857C67",
"q. c #AF7763",
"w. c #B67665",
"e. c #99855B",
"r. c #AD8454",
"t. c #A68658",
"y. c #AB8C5C",
"u. c #B28451",
"i. c #B78C57",
"p. c #B38D59",
"a. c #AD935D",
"s. c #B0945D",
"d. c #8B836F",
"f. c #958D62",
"g. c #938D6C",
"h. c #988B68",
"j. c #9C9868",
"k. c #858772",
"l. c #8B8E78",
"z. c #9F9873",
"x. c #BA896D",
"c. c #AA9260",
"v. c #A69B66",
"b. c #B59A61",
"n. c #BA9B65",
"m. c #A58E72",
"M. c #A59D7B",
"N. c #9EA374",
"B. c #9DA279",
"V. c #ACA166",
"C. c #A2A46C",
"Z. c #A9A76C",
"A. c #B6A366",
"S. c #BAA466",
"D. c #B7A96B",
"F. c #BCAD6B",
"G. c #B1B46F",
"H. c #BDB16D",
"J. c #A5AC70",
"K. c #AAAD71",
"L. c #A7A779",
"P. c #B4A878",
"I. c #ACB373",
"U. c #AEB874",
"Y. c #AFBA79",
"T. c #BDB671",
"R. c #B4BC75",
"E. c #B8B975",
"W. c #BBBC75",
"Q. c #B1BD79",
"!. c #C48872",
"~. c #CA9677",
"^. c #D09C7A",
"/. c #C9A976",
"(. c #C1B771",
"). c #C3BB74",
"_. c #B7C377",
"`. c #B4C47C",
"'. c #BAC67A",
"]. c #B6C87D",
"[. c #BACC7C",
"{. c #BDD17D",
"}. c #C3C378",
"|. c #C4C378",
" X c #C9C478",
".X c #CDCD7E",
"XX c #C1D57F",
"oX c #D0D07F",
"OX c #989B84",
"+X c #9DA484",
"@X c #AFAB84",
"#X c #ADBA86",
"$X c #B8BA87",
"%X c #CFAF82",
"&X c #DBB688",
"*X c #B7CB81",
"=X c #BACD81",
"-X c #B5C58E",
";X c #BDD381",
":X c #B0C993",
">X c #BEDAA1",
",X c #C5DB83",
"<X c #C7D984",
"1X c #D8C792",
"2X c #C2DE9D",
"3X c #E1CE9D",
"4X c #E2D598",
"5X c #CBE086",
"6X c #CCE28A",
"7X c #D2E58C",
"8X c #CDE293",
"9X c #D4E498",
"0X c #CCDEB2",
"qX c #E2DDA7",
"wX c #C9E1AC",
"eX c #D7E4BC",
"rX c #DBE6C2",
/* pixels */
"{.'._.[.{.[.].`.*X9X9XQ.] b O & O 1 E k X o O & - : OXeX@Xe.",
"[.'.[.{.{.[.].`.=X9X9XC.] j O O % & h 7 @ . O & - - l.rX0X:X",
"[.'.{.{.;X{.].`.*X9X;X-.~ < O & & % 8 r q *   & & * | 2XwXrX",
"{.'.[.{.;X].`.`.*X8XC.I v * & & & % 7 y A = o O   & | >XwXrX",
"{.{.{.;X;X*X`.`.*XY.} E 8 . X % X O e z S 5 G ) / b _ :X>X0X",
"{.{.,X;X;X`.`.`.Y.N.N.g.n j { ,.-., h D H = K ~.1X1XL.-X#XM.",
"].].;X;X].`.Y.J.J.g.B.L.P.%XqX3X~.H h W m = F #./.4X4X%X$XP.",
"{.{.{.;X*X`.U.J.C.} 9.0.x.^.&X^.x.z h E 8 8 #.w.^.&X&XP.:X2X",
"{.XXXX{.`.U.J.J.f.) J J Q @.w.~.q.1 x h = 8 @.7.w.!.x.g.@X2X",
"XXXX[.{.`.I.J.j.] ^ / M m V Q !.+.O k v 7 % : ; 8 S +.{ | -X",
"5X5X].].Q.J.C.f.n g ] $.J = = a = & N v = * ; ; : v 9.h./ _ ",
"5X5X].].Y.J.j.( $ * ) / s ; ; * & > E A A ; ; e : l 9.z.g.~ ",
"5X6X'.Q.I.j.I 6 = > x s ; ; * * o 1 h Q E ; 7 7 : 7 ` h.z.[ ",
"7X6XW.G.j.I @ M m.m.8 ; ; = * & & b z t e : e e e 7 y ` 9.9.",
"7X7X_.f.L   < %XP.~ 7 ; ; ; * * & h 7 e r r r r e 7 7 y ~ { ",
"7X7XI.f o   ] h.s ; : ; ; ; ; ; ; 7 7 e y c t r e e 7 y E { ",
"6X7XR.>   @ *.m = ; ; e e e e e ; e e r t c t t e e 7 8 D { ",
"6X6X].L   = m * * - e e e t e e r e t y y t y t e ; - 7 D [ ",
"6X5X=X/ X q = * * * ; ; e e e e : e c E y y r e e - X ; E E ",
",X=X].e.p 5 @ * * * - ; - : ; ; ; ; : E t e e : : % X % E l ",
";X*X].K.R @ @ O O @ * * * * * * % ; : e e 7 - ; & O   o y e ",
"=X].`.I.=.a O O X X & * & * * O % - * - - - - * & o   O r : ",
"]._.Q.>.K d O O O O & * & * @ O X % O O % & & & O     & = - ",
"'._.f.j T :.= X O & O O O O O O % % O X O O O O O     o & h ",
"].G.$.X f 8.6 X O O o O o o X X O o o X O O O X       & - ~ ",
"W.v.r.M O R a @ O o o o o o O o o o o o o o X o     O q d ^ ",
"G.y.n.t.p p 9 5 6 = X o o o o O o o o o o o o o     P $.Y +.",
"A.n./.(.o.# 8 # 5 9 2 + @ @ O O O o o o o o o o   b B.c.Y ;.",
"a.(. X<XD.J 9 5 @ 5 9 0 0 3 # 4 4 3 # @ O O O o X _ Y.e.K e.",
"F o.n.|.oXZ.A 6 2 @ M p @ @ $ # 2 2 2 2 # @ O o # T G.,.U v.",
"u ^ v.F.T.}.,.w d R =.T O o       o   o o     @ C K X.G R V.",
"F y.(.E.E.T.1.Z F @.&.%.) b > $ O o o     X * R a.t.g p $.Z.",
"+.(.).}.|.}.y.*.%.X. .Y O.} [ _ ! b b 1 > ; ^ D.).' O , $.G.",
"i.F.H.F.).F.s.A.a.1.%.X.V ( +X0.l.[ | | E d O.D.<.> . g =.G.",
"S.S.s.b.(.F.S.S.D.s.t.%...B ^ d.l.k.k.} A V 4.*., X P *.t.G.",
"p.p.t.a.s.(.F.F.F.F.A.t.:...Z d G ) J 6 6 0 K < , R v.L.e.W.",
"u.3.2.6.a.A.(.(.H.).W.T.A.8.%.X.Y X.V 4 3 T M @ T 1.c.#XV.W.",
"u.3.2.5.6.r.s.F.(.|.|.|.|.).D.a.t.t.U 3 0 ,.<.d C O.O.;.V.W.",
"u.5.5.5.u.r.p.s.S.F.).|. X X.X,XD.y.O.V C ,.o.0 u i u K v.W.",
"i.6.5.6.r.p.p.4.4.4.8.S.).)..X.XS.r.&.Y V Z V 9 0 u u K V._."
};
