/* XPM */
static char *kaikyaku08[] = {
/* columns rows colors chars-per-pixel */
"30 40 215 2 ",
"   c #191718",
".  c #1C1919",
"X  c #241618",
"o  c #2B171B",
"O  c #23191A",
"+  c #2B191C",
"@  c #33171B",
"#  c #331A1D",
"$  c #3B191D",
"%  c #341B21",
"&  c #3D1A21",
"*  c #352423",
"=  c #3A2527",
"-  c #3C2927",
";  c #383027",
":  c #45191E",
">  c #4B191F",
",  c #53191F",
"<  c #441A23",
"1  c #4D1B23",
"2  c #461F28",
"3  c #4D1A2A",
"4  c #531B24",
"5  c #5A1C23",
"6  c #521B2B",
"7  c #5C1D2A",
"8  c #621B25",
"9  c #691B28",
"0  c #6D1D29",
"q  c #7B1F30",
"w  c #472427",
"e  c #412D2A",
"r  c #562227",
"t  c #5D2229",
"y  c #5C282B",
"u  c #46372E",
"i  c #50312B",
"p  c #442E30",
"a  c #582933",
"s  c #4B3231",
"d  c #4E3938",
"f  c #543235",
"g  c #5A3B39",
"h  c #66262B",
"j  c #62242D",
"k  c #692C2D",
"l  c #74272B",
"z  c #63352E",
"x  c #79352F",
"c  c #672931",
"v  c #7C2C32",
"b  c #6B3430",
"n  c #6A3837",
"m  c #7C3130",
"M  c #753A35",
"N  c #7A3A3B",
"B  c #5B4A38",
"V  c #684138",
"C  c #734539",
"Z  c #764739",
"A  c #7C503C",
"S  c #783F41",
"D  c #5F5842",
"F  c #6A4645",
"G  c #764B47",
"H  c #68544A",
"J  c #785648",
"K  c #755551",
"L  c #6E6648",
"P  c #7D694B",
"I  c #7A6157",
"U  c #7A6758",
"Y  c #7E655A",
"T  c #7D7859",
"R  c #843C34",
"E  c #843638",
"W  c #834C3A",
"Q  c #8C4838",
"!  c #904736",
"~  c #914538",
"^  c #86533D",
"/  c #8A523C",
"(  c #8F5A3F",
")  c #94563E",
"_  c #8B4D42",
"`  c #864648",
"'  c #954949",
"]  c #815C43",
"[  c #8D5A46",
"{  c #98584A",
"}  c #9B4B50",
"|  c #A15051",
" . c #886749",
".. c #836B4E",
"X. c #996844",
"o. c #976549",
"O. c #9D6C4D",
"+. c #8C6653",
"@. c #836C5E",
"#. c #986854",
"$. c #897352",
"%. c #8A7957",
"&. c #957453",
"*. c #957655",
"=. c #957E5B",
"-. c #9D7B5B",
";. c #A76D4D",
":. c #A4704D",
">. c #B1764E",
",. c #A96B5B",
"<. c #AA775C",
"1. c #B37953",
"2. c #856E61",
"3. c #867363",
"4. c #8A7967",
"5. c #907E6A",
"6. c #AB7261",
"7. c #C17D6D",
"8. c #8C8D5E",
"9. c #9A815D",
"0. c #9A885B",
"q. c #B8845A",
"w. c #878166",
"e. c #9B8561",
"r. c #9C8D65",
"t. c #92836D",
"y. c #9C946D",
"u. c #9E9869",
"i. c #968A71",
"p. c #998E73",
"a. c #999375",
"s. c #9A9374",
"d. c #9C9977",
"f. c #9E9B79",
"g. c #B78B66",
"h. c #A69767",
"j. c #A39469",
"k. c #B89768",
"l. c #A68D72",
"z. c #B18A71",
"x. c #A89975",
"c. c #B99274",
"v. c #9EA46A",
"b. c #9EA27A",
"n. c #A8A96B",
"m. c #B9A86C",
"M. c #ACB06E",
"N. c #A7A675",
"B. c #A1A47D",
"V. c #B5AB7A",
"C. c #ACB576",
"Z. c #B7B877",
"A. c #C29A6A",
"S. c #C69373",
"D. c #CC9477",
"F. c #C8A475",
"G. c #B5C379",
"H. c #B8C87A",
"J. c #A79885",
"K. c #A5A780",
"L. c #A5AA81",
"P. c #A9AD83",
"I. c #AAB485",
"U. c #ACBA87",
"Y. c #AEBD89",
"T. c #BAB988",
"R. c #B7B093",
"E. c #BCB390",
"W. c #BEB9A0",
"Q. c #C2B68B",
"!. c #C5BFA1",
"~. c #AEC08A",
"^. c #BCC485",
"/. c #B6C48C",
"(. c #BDD281",
"). c #B6CB91",
"_. c #BAD494",
"`. c #BCDA96",
"'. c #C4D88A",
"]. c #C4DC8A",
"[. c #C8C599",
"{. c #C9D294",
"}. c #C7D798",
"|. c #C9E48B",
" X c #CAE48B",
".X c #D0E58F",
"XX c #CDE493",
"oX c #CAE49B",
"OX c #D5E793",
"+X c #D2E495",
"@X c #D2E59C",
"#X c #DAE69D",
"$X c #C9C6A6",
"%X c #D9D4A5",
"&X c #D3D2A9",
"*X c #E1DDBB",
"=X c #CBE6A3",
"-X c #D5E4A3",
";X c #DAE5A3",
":X c #DDE5A9",
">X c #D7E9AC",
",X c #E2E6A5",
"<X c #E3E5AC",
"1X c #E4E6B3",
"2X c #E5E6BB",
"3X c #D9D7C5",
"4X c #E5E5C3",
"5X c #E5E6CC",
"6X c #E5E9C9",
"7X c #E5E6D4",
"8X c #E6E6DC",
"9X c #E7E8DD",
"0X c #E6E6E4",
"qX c #E7E8E4",
"wX c #E8E8E1",
/* pixels */
"#X.X X X X X X].C.n.C.'.oXXX@X#X,X<X1X2X4X6X7X9X0X0X0X0X0X0X",
"OX.X X X X X(.$.p % ; D N.XX@X-X,X<X1X2X4X6X7X9X0X0X0X0X0X0X",
"OXXX X X X X8.+ o o o o ; b.oX#X,X<X1X2X2X4X5X7X9X0X0X0X0X0X",
"+X+X X X|.G.s # 3 j 6 % % B '.#X#X<X<X2X2X4X5X7X8X0X0X0X0X0X",
"OXOX X X X8.# : q ' E 3 o < 4.;X,X,X1X1X2X4X4X5X7X8X0X0X0X0X",
"m.m.m.Z.G.P # 8 E ' } 9 1 j S T.,X,X<X1X2X2X4X4X5X7X7X8X0X0X",
"~ ! ! ! ! x > 9 9 5 6 S ' n ` s.{.}.:X1X%X%X&X*X*X*X4X5X7X8X",
"j.r.0.9.*.+.V 5 > $ > E | c +.5.B._.oX=XF.q.>.>.1.q.k.A.A.F.",
"Q { o.#.-.-.+.: # 5 8 8 v j K 4.b.)._.`.}.h.<.:.;.,.O.:.:.:.",
"*.O.{ / Q Q R k r , 4 : 4 4 G 2.b.U.~.).`.{.[.$X%X&X&X&X$X[.",
"*.-.9.e.9.=.=.*.P w $ 5 j 6 F I i.d.B.~.`.^.;.>.1.q.q.A.F.F.",
"R R v v m E _ -.N.K $ : 7 2 f 3.a.d.L.Y._._.h.#.O.o. .) { ) ",
"e.e.9.9.*.+.+.G n a < 3 3 3 F d.B.~.U.U./._.).Q.Q.E.E.Q.E.R.",
"l l m R _ 9.C 5 6 4 6 6 6 6 3.Y.~.~.b.b.T.Q.T.#.R ~ { { <.3X",
"J ^ ] W ] &.b > 1 < $ % @ s f.P.L.b.b.I.l.S.z.x.z.e.&.{ [ R.",
"r.Z.C.n.h. .h 1 $ & & @ + T Y.B.a.b.U.w.n } #.y.x.k.V.V.V.u.",
"%X@XH.H.n.] 9 1 < & % & H P.I.P.L.K.w.= % w a Y [ E R ~ )  .",
"^.h.C.H.0.Z 7 4 3 3 % = a.K.f.p.t.U = o o + & f 2...J A x ^ ",
"0.9.C.G.&.M 7 1 4 n f K K.f.a.t.3.d O + + + O + H C./.!.u.%.",
"0.0.H.C. .b 5 4 r F K i.x.d.a.t.K + O + + + O O p K.7X8X:Xn.",
"9.x.;XT.^ z 7 1 w F F p.J.p.t.2.p   . O O O O O = J.wX7X:Xu.",
"*.Z.>XZ.J k 4 1 3 z F s.p.i.4.F . . . . . O O % Y 3X0X6X;Xj.",
"&.C.=Xx.G h 4 1 < r @.t.5.5.Y % . . . . . . O w J.wX8X2X-XV.",
"*.T.=Xu.C 8 6 1 $ f 5.5.4.3.g o O O . . . O + f $X0X7X1X@X{.",
"9.).-Xu.C t , < o K i.t.3.F % + $ @ # o O O + 4.9X0X5X:X@X@X",
"9.^.}.0.Z t 1 # w 2.3.3.Y d O % $ : : # O . - $XqX9X4X;X@X@X",
"$.$.$.J Z t $ o f K K K K *   O X + + + O O U 7X0X7X2X-X@X@X",
"..V z b C w O # Y 4.K H a O   O O X O O X - W.wX9X5X1X-X@X@X",
"P * O + * X # G S.c.l.I % O . O O O O O O U 7X0X7X4X<X-XoX@X",
"P ; .     @ #.S.S.6.6.S O . O O O . . O + x.6X7X5X2X:X-XoX@X",
"..*     X ` D.D.6.| E = O O + O O O . O 2 x.+X:X2X1X:X-X@X@X",
"..e O O r ,.S.g.{ ' N y : & # + O O O < 3 %.'.XX;X<X;X-X-X-X",
"$.g : > E ,.,.,.S.z.o.{ k 6 3 < & + < 3 3 F ^. X@X;X<X-X-X-X",
"%.C 8 8 0 R } ;.,.N k k 6 3 6 6 6 6 6 3 < s n.'.@X-X,X-X-X-X",
"$.C , , , l x l , + o $ : < 2 3 6 6 3 < & = 0.(.}.;X:X;X-X-X",
"..V t 8 , , > > : O . o o @ < < < < w < o X 8.C.'.@X;X;X;X>X",
"B w / ( / Z z b y # . . . . o o # # # + .   L G.H.OX;X;X;X-X",
"+ + ^ X.X.( / W M - . . . . . . . O . . .   B G.H.|.@X;X-X-X",
"# . V X.X./ / ! M y . . . . . . . . O O .   u M.H.(.oX-X;X;X",
"z O i X.X./ W Z M x @   . . . . . O O . . . ; n.G.(.OX-X;X:X"
};
